<svg width="28" height="28" viewBox="0 0 28 28" fill="none" xmlns="http://www.w3.org/2000/svg">
<ellipse cx="21" cy="24.5" rx="2" ry="2.5" fill="white"/>
<ellipse cx="10.5" cy="24" rx="2.5" ry="2" fill="white"/>
<path d="M10.6415 20.9294C8.69213 20.9294 7.1062 22.5154 7.1062 24.4647C7.1062 26.4141 8.69213 28 10.6415 28C12.5909 28 14.1768 26.4141 14.1768 24.4647C14.1768 22.5154 12.5908 20.9294 10.6415 20.9294ZM10.6415 25.8788C9.86162 25.8788 9.22741 25.2446 9.22741 24.4647C9.22741 23.6848 9.86162 23.0506 10.6415 23.0506C11.421 23.0506 12.0556 23.6848 12.0556 24.4647C12.0556 25.2446 11.4214 25.8788 10.6415 25.8788Z" fill="black"/>
<path d="M21.1059 20.9294C19.1565 20.9294 17.5706 22.5154 17.5706 24.4647C17.5706 26.4141 19.1565 28 21.1059 28C23.0553 28 24.6412 26.4141 24.6412 24.4647C24.6412 22.5154 23.0553 20.9294 21.1059 20.9294ZM21.1059 25.8788C20.326 25.8788 19.6918 25.2446 19.6918 24.4647C19.6918 23.6848 20.326 23.0506 21.1059 23.0506C21.8858 23.0506 22.52 23.6848 22.52 24.4647C22.52 25.2446 21.8858 25.8788 21.1059 25.8788Z" fill="black"/>
<path d="M7 8H26L24.7333 18H8.9L7 8Z" fill="white"/>
<path d="M27.239 6.90558C27.0375 6.65243 26.732 6.50505 26.4089 6.50505H7.83801L6.87393 1.63268C6.78944 1.20596 6.45289 0.874008 6.02475 0.795531L1.78238 0.0177688C1.2051 -0.0886526 0.653581 0.293557 0.54787 0.869797C0.44216 1.44604 0.823604 1.9986 1.3999 2.10431L4.93308 2.75197L8.04555 18.4837C8.14383 18.9804 8.57974 19.3385 9.08598 19.3385H23.9342C24.4281 19.3385 24.8563 18.9981 24.9676 18.5162L27.4423 7.80425C27.5151 7.48925 27.4402 7.15834 27.239 6.90558ZM23.0907 17.2174H9.95704L8.25763 8.62659H25.075L23.0907 17.2174Z" fill="black"/>
</svg>
