<svg width="28" height="28" viewBox="0 0 28 28" fill="none" xmlns="http://www.w3.org/2000/svg">
<circle cx="14" cy="4" r="3" fill="white"/>
<path d="M11 8.5C16.2 8.5 18.5 9.5 19 10L20 16L18 18.5L16 27H11.5L10.5 18.5L7.5 16L9 10L11 8.5Z" fill="white" stroke="white"/>
<path d="M21.0442 16.7439L20.267 11.3045C19.9528 9.24047 18.1102 7.56141 16.1594 7.56141H15.8908C17.1483 6.88272 18.0054 5.54966 18.0054 4.01927C18.0053 1.80303 16.2084 0 13.9998 0C11.7912 0 9.99426 1.80303 9.99426 4.01918C9.99426 5.54956 10.8513 6.88263 12.1089 7.56132H11.8404C9.88952 7.56132 8.0468 9.24047 7.73135 11.3127L6.95546 16.7438C6.90436 17.1016 7.06982 17.4558 7.37716 17.646L9.43935 18.9237L10.4495 26.0051C10.5987 27.1242 11.5536 27.9999 12.6259 27.9999H15.3737C16.446 27.9999 17.401 27.1243 17.5503 26.0053L18.5602 18.9237L20.6226 17.646C20.9298 17.4558 21.0953 17.1016 21.0442 16.7439ZM13.9998 1.82C15.2049 1.82 16.1853 2.8066 16.1853 4.01918C16.1853 5.23195 15.205 6.21855 13.9998 6.21855C12.7946 6.21855 11.8143 5.23195 11.8143 4.01918C11.8143 2.8066 12.7946 1.82 13.9998 1.82ZM17.24 17.6004C17.0108 17.7423 16.8564 17.9786 16.8183 18.2455L15.7477 25.753C15.7473 25.7565 15.7468 25.76 15.7462 25.7635C15.7146 26.0051 15.5018 26.18 15.3737 26.18H12.6258C12.4978 26.18 12.2849 26.0051 12.2533 25.7635C12.2527 25.76 12.2523 25.7565 12.2518 25.753L11.181 18.2455C11.143 17.9786 10.9886 17.7423 10.7593 17.6004L8.84117 16.4121L9.53174 11.5782C9.71303 10.3873 10.7702 9.38123 11.8403 9.38123H16.1593C17.2293 9.38123 18.2864 10.3873 18.4664 11.5699L19.1583 16.4121L17.24 17.6004Z" fill="black"/>
</svg>
