<svg width="42" height="32" viewBox="0 0 42 32" fill="none" xmlns="http://www.w3.org/2000/svg">
<path d="M41 1V31" stroke="#FFCA05" stroke-width="2" stroke-linecap="round"/>
<g clip-path="url(#clip0_133_247)">
<path d="M11.343 23.662C11.3266 23.662 11.3105 23.662 11.2941 23.6619C8.28568 23.6492 5.45724 22.4707 3.3297 20.3433C1.18963 18.2031 0.0108948 15.3576 0.0108948 12.3309C0.0108948 9.30426 1.18963 6.45889 3.3297 4.31875C5.46996 2.17861 8.31539 1 11.342 1C14.3686 1 17.214 2.17861 19.3542 4.31875C20.7486 5.71316 21.7581 7.45047 22.2737 9.34281C22.7734 11.1771 22.8039 13.1245 22.3618 14.9747C22.2491 15.4463 21.7754 15.7374 21.3037 15.6246C20.8322 15.5119 20.5411 15.0382 20.6538 14.5666C21.4346 11.2994 20.4844 7.93264 18.1124 5.56064C16.3039 3.75203 13.8994 2.75605 11.3419 2.75605C8.78431 2.75605 6.3798 3.75203 4.57142 5.56047C2.76281 7.36897 1.76689 9.77336 1.76689 12.331C1.76689 14.8886 2.76287 17.2931 4.57142 19.1015C8.27156 22.8016 14.3183 22.8291 18.0504 19.163C18.3964 18.823 18.9523 18.8282 19.2921 19.1741C19.6319 19.52 19.6269 20.0759 19.281 20.4157C17.1488 22.5102 14.3314 23.662 11.343 23.662Z" fill="#FFCA05"/>
<path d="M16.2093 8.37484C15.9845 8.37484 15.7599 8.28918 15.5884 8.11767C14.4562 6.98546 12.9481 6.36191 11.342 6.36191C9.73576 6.36191 8.22773 6.98546 7.09564 8.11767C6.75269 8.4605 6.19693 8.46062 5.85386 8.11767C5.51103 7.77484 5.51103 7.21884 5.85386 6.87601C7.31765 5.4121 9.26672 4.60597 11.342 4.60597C13.4173 4.60597 15.3662 5.41216 16.8301 6.87595C17.1729 7.21878 17.1729 7.77478 16.8301 8.11773C16.6586 8.28912 16.434 8.37484 16.2093 8.37484Z" fill="#FFCA05"/>
<path d="M11.342 20.0556C9.3542 20.0556 7.36722 19.2992 5.85386 17.7861C5.51103 17.4432 5.51103 16.8872 5.85386 16.5443C6.19681 16.2014 6.75258 16.2014 7.09564 16.5443C9.43699 18.8857 13.2469 18.8858 15.5885 16.5443C15.9315 16.2014 16.4873 16.2014 16.8302 16.5443C17.1732 16.8871 17.1731 17.4431 16.8302 17.7859C15.3172 19.2989 13.3293 20.0556 11.342 20.0556Z" fill="#FFCA05"/>
<path d="M21.8444 23.7315C21.6197 23.7315 21.3951 23.6458 21.2236 23.4743L18.1039 20.3546C17.761 20.0117 17.761 19.4557 18.1039 19.1129C18.447 18.7701 19.0028 18.7701 19.3457 19.1129L22.4654 22.2327C22.8082 22.5756 22.8082 23.1316 22.4654 23.4744C22.2938 23.6458 22.0692 23.7315 21.8444 23.7315Z" fill="#FFCA05"/>
<path d="M23.5869 19.9726L28.1554 24.5411C29.4321 25.8178 29.4321 27.8877 28.1554 29.1644C26.8787 30.4411 24.8087 30.4411 23.5321 29.1644L18.9636 24.5959L23.5869 19.9726Z" fill="#FEE187"/>
<path d="M25.8437 31C24.7359 31 23.6944 30.5686 22.9112 29.7853L18.3428 25.2168C18 24.874 18 24.318 18.3428 23.9752L22.9661 19.3518C23.3091 19.009 23.8648 19.0089 24.2079 19.3518L28.7764 23.9203C30.3934 25.5374 30.3934 28.1684 28.7764 29.7854C27.993 30.5686 26.9515 31 25.8437 31ZM20.2052 24.5959L24.1529 28.5436C24.6045 28.9952 25.205 29.2439 25.8437 29.2439C26.4824 29.2439 27.0829 28.9952 27.5346 28.5436C28.4669 27.6112 28.4669 26.0943 27.5346 25.1619L23.5869 21.2143L20.2052 24.5959Z" fill="#FFCA05"/>
</g>
<defs>
<clipPath id="clip0_133_247">
<rect width="30" height="30" fill="white" transform="translate(0 1)"/>
</clipPath>
</defs>
</svg>
