<svg width="112" height="23" viewBox="0 0 112 23" fill="none" xmlns="http://www.w3.org/2000/svg">
<mask id="path-1-outside-1_3_10" maskUnits="userSpaceOnUse" x="-3" y="-3" width="118" height="29" fill="black">
<rect fill="white" x="-3" y="-3" width="118" height="29"/>
<path d="M8.304 19.92C9.75467 19.92 10.9387 19.8027 11.856 19.568C11.472 17.2 10.384 15.44 8.592 14.288C8.4 16.1867 8.304 18.064 8.304 19.92ZM0.24 12.4C0.24 10.16 0.442667 8.02667 0.848 6H18.608C17.648 8.98667 15.8133 11.152 13.104 12.496C15.5573 13.3707 17.52 14.5867 18.992 16.144C18.8 18.128 18.3413 20.08 17.616 22H1.52C0.666667 19.0347 0.24 15.8347 0.24 12.4ZM8.848 12.08C9.89333 11.8027 10.864 11.3227 11.76 10.64C12.656 9.95733 13.296 9.11467 13.68 8.112C11.9733 8.112 10.5867 8.16533 9.52 8.272C9.264 9.50933 9.04 10.7787 8.848 12.08ZM24.186 21.904C22.2873 19.472 21.338 16.976 21.338 14.416C21.338 11.856 22.4047 9.69067 24.538 7.92C26.6713 6.14933 29.402 5.264 32.73 5.264C34.5007 5.264 36.2607 5.53067 38.01 6.064C39.546 8.00533 40.314 10.0853 40.314 12.304C40.314 15.0987 39.1727 17.5307 36.89 19.6C34.6073 21.6693 31.8447 22.704 28.602 22.704C27.2153 22.704 25.7433 22.4373 24.186 21.904ZM29.05 8.048C28.3033 9.328 27.93 10.832 27.93 12.56C27.93 14.288 28.3033 15.888 29.05 17.36C29.818 18.8107 30.8633 19.856 32.186 20.496C33.1887 19.216 33.69 17.7333 33.69 16.048C33.69 14.3627 33.274 12.7947 32.442 11.344C31.6313 9.89333 30.5007 8.79467 29.05 8.048ZM52.8965 2.32C53.6432 2.78933 54.5178 3.024 55.5205 3.024C56.5445 3.024 57.4618 2.672 58.2725 1.968C58.3152 1.968 58.2192 2.18133 57.9845 2.608C57.7498 3.01333 57.3552 3.44 56.8005 3.888C56.0965 4.48533 55.1472 4.784 53.9525 4.784H53.7925C52.7685 4.784 51.7232 4.45333 50.6565 3.792L50.2085 3.536C50.3152 2.896 50.5072 2.192 50.7845 1.424C51.0832 0.634666 51.2432 0.24 51.2645 0.24L52.8965 2.32ZM43.7445 22C44.0218 19.8667 44.1605 17.3493 44.1605 14.448C44.1605 11.5253 43.9685 8.70933 43.5845 6H52.0325C52.0538 6.384 52.0645 7.408 52.0645 9.072C52.0645 10.736 51.8725 12.944 51.4885 15.696C53.1952 14.1387 54.7205 12.304 56.0645 10.192C56.0432 8.86933 55.9258 7.472 55.7125 6H64.0005C64.0432 7.28 64.0645 8.24 64.0645 8.88C64.0645 13.0187 63.6592 17.392 62.8485 22H55.2005C55.6272 19.1413 55.9045 16.56 56.0325 14.256C54.8378 16.112 52.8752 18.6933 50.1445 22H43.7445ZM81.229 8.08C80.6743 11.4507 80.397 14.2027 80.397 16.336C80.397 18.4693 80.4823 20.3573 80.653 22H73.677C72.9517 18.608 72.589 14.96 72.589 11.056C72.589 10.3947 72.6103 9.40267 72.653 8.08C70.8397 8.61333 69.7303 9.84 69.325 11.76L66.157 11.568L67.309 6H88.589C88.1623 8.34667 87.6717 10.2667 87.117 11.76L83.885 11.568C83.9703 11.2267 84.013 10.8853 84.013 10.544C84.013 9.712 83.757 9.09333 83.245 8.688C82.733 8.28267 82.061 8.08 81.229 8.08ZM91.1195 22C91.3968 19.8667 91.5355 17.3493 91.5355 14.448C91.5355 11.5253 91.3435 8.70933 90.9595 6H99.4075C99.4288 6.384 99.4395 7.408 99.4395 9.072C99.4395 10.736 99.2475 12.944 98.8635 15.696C100.57 14.1387 102.096 12.304 103.44 10.192C103.418 8.86933 103.301 7.472 103.088 6H111.376C111.418 7.28 111.44 8.24 111.44 8.88C111.44 13.0187 111.034 17.392 110.224 22H102.576C103.002 19.1413 103.28 16.56 103.408 14.256C102.213 16.112 100.25 18.6933 97.5195 22H91.1195Z"/>
</mask>
<path d="M8.304 19.92C9.75467 19.92 10.9387 19.8027 11.856 19.568C11.472 17.2 10.384 15.44 8.592 14.288C8.4 16.1867 8.304 18.064 8.304 19.92ZM0.24 12.4C0.24 10.16 0.442667 8.02667 0.848 6H18.608C17.648 8.98667 15.8133 11.152 13.104 12.496C15.5573 13.3707 17.52 14.5867 18.992 16.144C18.8 18.128 18.3413 20.08 17.616 22H1.52C0.666667 19.0347 0.24 15.8347 0.24 12.4ZM8.848 12.08C9.89333 11.8027 10.864 11.3227 11.76 10.64C12.656 9.95733 13.296 9.11467 13.68 8.112C11.9733 8.112 10.5867 8.16533 9.52 8.272C9.264 9.50933 9.04 10.7787 8.848 12.08ZM24.186 21.904C22.2873 19.472 21.338 16.976 21.338 14.416C21.338 11.856 22.4047 9.69067 24.538 7.92C26.6713 6.14933 29.402 5.264 32.73 5.264C34.5007 5.264 36.2607 5.53067 38.01 6.064C39.546 8.00533 40.314 10.0853 40.314 12.304C40.314 15.0987 39.1727 17.5307 36.89 19.6C34.6073 21.6693 31.8447 22.704 28.602 22.704C27.2153 22.704 25.7433 22.4373 24.186 21.904ZM29.05 8.048C28.3033 9.328 27.93 10.832 27.93 12.56C27.93 14.288 28.3033 15.888 29.05 17.36C29.818 18.8107 30.8633 19.856 32.186 20.496C33.1887 19.216 33.69 17.7333 33.69 16.048C33.69 14.3627 33.274 12.7947 32.442 11.344C31.6313 9.89333 30.5007 8.79467 29.05 8.048ZM52.8965 2.32C53.6432 2.78933 54.5178 3.024 55.5205 3.024C56.5445 3.024 57.4618 2.672 58.2725 1.968C58.3152 1.968 58.2192 2.18133 57.9845 2.608C57.7498 3.01333 57.3552 3.44 56.8005 3.888C56.0965 4.48533 55.1472 4.784 53.9525 4.784H53.7925C52.7685 4.784 51.7232 4.45333 50.6565 3.792L50.2085 3.536C50.3152 2.896 50.5072 2.192 50.7845 1.424C51.0832 0.634666 51.2432 0.24 51.2645 0.24L52.8965 2.32ZM43.7445 22C44.0218 19.8667 44.1605 17.3493 44.1605 14.448C44.1605 11.5253 43.9685 8.70933 43.5845 6H52.0325C52.0538 6.384 52.0645 7.408 52.0645 9.072C52.0645 10.736 51.8725 12.944 51.4885 15.696C53.1952 14.1387 54.7205 12.304 56.0645 10.192C56.0432 8.86933 55.9258 7.472 55.7125 6H64.0005C64.0432 7.28 64.0645 8.24 64.0645 8.88C64.0645 13.0187 63.6592 17.392 62.8485 22H55.2005C55.6272 19.1413 55.9045 16.56 56.0325 14.256C54.8378 16.112 52.8752 18.6933 50.1445 22H43.7445ZM81.229 8.08C80.6743 11.4507 80.397 14.2027 80.397 16.336C80.397 18.4693 80.4823 20.3573 80.653 22H73.677C72.9517 18.608 72.589 14.96 72.589 11.056C72.589 10.3947 72.6103 9.40267 72.653 8.08C70.8397 8.61333 69.7303 9.84 69.325 11.76L66.157 11.568L67.309 6H88.589C88.1623 8.34667 87.6717 10.2667 87.117 11.76L83.885 11.568C83.9703 11.2267 84.013 10.8853 84.013 10.544C84.013 9.712 83.757 9.09333 83.245 8.688C82.733 8.28267 82.061 8.08 81.229 8.08ZM91.1195 22C91.3968 19.8667 91.5355 17.3493 91.5355 14.448C91.5355 11.5253 91.3435 8.70933 90.9595 6H99.4075C99.4288 6.384 99.4395 7.408 99.4395 9.072C99.4395 10.736 99.2475 12.944 98.8635 15.696C100.57 14.1387 102.096 12.304 103.44 10.192C103.418 8.86933 103.301 7.472 103.088 6H111.376C111.418 7.28 111.44 8.24 111.44 8.88C111.44 13.0187 111.034 17.392 110.224 22H102.576C103.002 19.1413 103.28 16.56 103.408 14.256C102.213 16.112 100.25 18.6933 97.5195 22H91.1195Z" fill="white"/>
<path d="M8.304 19.92H5.304V22.92H8.304V19.92ZM11.856 19.568L12.5995 22.4744L15.2563 21.7948L14.8173 19.0878L11.856 19.568ZM8.592 14.288L10.2143 11.7645L6.09939 9.11918L5.60722 13.9862L8.592 14.288ZM0.848 6V3H-1.61141L-2.09374 5.41165L0.848 6ZM18.608 6L21.4641 6.91803L22.7235 3H18.608V6ZM13.104 12.496L11.7708 9.8085L5.44049 12.9487L12.0965 15.3218L13.104 12.496ZM18.992 16.144L21.9781 16.433L22.1095 15.0749L21.1722 14.0833L18.992 16.144ZM17.616 22V25H19.6896L20.4224 23.0602L17.616 22ZM1.52 22L-1.363 22.8296L-0.738437 25H1.52V22ZM8.848 12.08L5.88013 11.6421L5.21539 16.1475L9.61731 14.9797L8.848 12.08ZM11.76 10.64L9.94187 8.2537L11.76 10.64ZM13.68 8.112L16.4816 9.18494L18.0414 5.112H13.68V8.112ZM9.52 8.272L9.22149 5.28689L7.02871 5.50617L6.58222 7.66418L9.52 8.272ZM8.304 22.92C9.88764 22.92 11.3468 22.7949 12.5995 22.4744L11.1125 16.6616C10.5305 16.8105 9.6217 16.92 8.304 16.92V22.92ZM14.8173 19.0878C14.3161 15.9972 12.8168 13.4375 10.2143 11.7645L6.96973 16.8115C7.95124 17.4425 8.62786 18.4028 8.89468 20.0482L14.8173 19.0878ZM5.60722 13.9862C5.40537 15.9823 5.304 17.9604 5.304 19.92H11.304C11.304 18.1676 11.3946 16.391 11.5768 14.5898L5.60722 13.9862ZM3.24 12.4C3.24 10.3412 3.42623 8.40592 3.78974 6.58835L-2.09374 5.41165C-2.5409 7.64742 -2.76 9.97877 -2.76 12.4H3.24ZM0.848 9H18.608V3H0.848V9ZM15.7519 5.08197C15.0295 7.32964 13.7246 8.83929 11.7708 9.8085L14.4372 15.1835C17.902 13.4647 20.2666 10.6437 21.4641 6.91803L15.7519 5.08197ZM12.0965 15.3218C14.1989 16.0713 15.7276 17.0577 16.8118 18.2047L21.1722 14.0833C19.3124 12.1156 16.9158 10.67 14.1115 9.67022L12.0965 15.3218ZM16.006 15.855C15.8402 17.5674 15.444 19.2604 14.8096 20.9398L20.4224 23.0602C21.2386 20.8996 21.7598 18.6886 21.9781 16.433L16.006 15.855ZM17.616 19H1.52V25H17.616V19ZM4.403 21.1704C3.63549 18.5033 3.24 15.5853 3.24 12.4H-2.76C-2.76 16.084 -2.30216 19.5661 -1.363 22.8296L4.403 21.1704ZM9.61731 14.9797C11.0583 14.5974 12.3828 13.9371 13.5781 13.0263L9.94187 8.2537C9.34524 8.70828 8.72841 9.00794 8.0787 9.18032L9.61731 14.9797ZM13.5781 13.0263C14.8948 12.0231 15.8882 10.7344 16.4816 9.18494L10.8784 7.03906C10.7038 7.49491 10.4172 7.89155 9.94187 8.2537L13.5781 13.0263ZM13.68 5.112C11.9245 5.112 10.4276 5.16628 9.22149 5.28689L9.81851 11.2571C10.7458 11.1644 12.0222 11.112 13.68 11.112V5.112ZM6.58222 7.66418C6.3141 8.96011 6.08019 10.2862 5.88013 11.6421L11.8159 12.5179C11.9998 11.2712 12.2139 10.0586 12.4578 8.87982L6.58222 7.66418ZM24.186 21.904L21.8213 23.7501L22.3702 24.4532L23.214 24.7422L24.186 21.904ZM24.538 7.92L22.622 5.61156V5.61156L24.538 7.92ZM38.01 6.064L40.3627 4.20255L39.7812 3.46768L38.8849 3.1944L38.01 6.064ZM36.89 19.6L38.9049 21.8226L36.89 19.6ZM29.05 8.048L30.4229 5.38059L27.8926 4.07821L26.4587 6.53639L29.05 8.048ZM29.05 17.36L26.3745 18.7171L26.3864 18.7405L26.3986 18.7637L29.05 17.36ZM32.186 20.496L30.8793 23.1965L33.0563 24.2499L34.5477 22.346L32.186 20.496ZM32.442 11.344L29.8232 12.8075L29.8313 12.822L29.8396 12.8365L32.442 11.344ZM26.5507 20.0579C24.9765 18.0415 24.338 16.1779 24.338 14.416H18.338C18.338 17.7741 19.5981 20.9025 21.8213 23.7501L26.5507 20.0579ZM24.338 14.416C24.338 12.8294 24.9425 11.483 26.454 10.2284L22.622 5.61156C19.8668 7.89834 18.338 10.8826 18.338 14.416H24.338ZM26.454 10.2284C27.9463 8.98987 29.9557 8.264 32.73 8.264V2.264C28.8483 2.264 25.3964 3.3088 22.622 5.61156L26.454 10.2284ZM32.73 8.264C34.1945 8.264 35.66 8.48386 37.1351 8.9336L38.8849 3.1944C36.8614 2.57747 34.8068 2.264 32.73 2.264V8.264ZM35.6573 7.92545C36.8255 9.40181 37.314 10.8394 37.314 12.304H43.314C43.314 9.3313 42.2666 6.60886 40.3627 4.20255L35.6573 7.92545ZM37.314 12.304C37.314 14.1598 36.6022 15.8117 34.8751 17.3774L38.9049 21.8226C41.7432 19.2496 43.314 16.0375 43.314 12.304H37.314ZM34.8751 17.3774C33.1752 18.9184 31.1426 19.704 28.602 19.704V25.704C32.5467 25.704 36.0395 24.4203 38.9049 21.8226L34.8751 17.3774ZM28.602 19.704C27.6013 19.704 26.4594 19.5115 25.158 19.0658L23.214 24.7422C25.0272 25.3631 26.8294 25.704 28.602 25.704V19.704ZM26.4587 6.53639C25.4027 8.34653 24.93 10.39 24.93 12.56H30.93C30.93 11.274 31.2039 10.3095 31.6413 9.55961L26.4587 6.53639ZM24.93 12.56C24.93 14.7368 25.4044 16.8047 26.3745 18.7171L31.7255 16.0029C31.2022 14.9713 30.93 13.8392 30.93 12.56H24.93ZM26.3986 18.7637C27.4288 20.7094 28.9151 22.246 30.8793 23.1965L33.4927 17.7955C32.8116 17.466 32.2072 16.9119 31.7014 15.9563L26.3986 18.7637ZM34.5477 22.346C35.9799 20.5176 36.69 18.3776 36.69 16.048H30.69C30.69 17.0891 30.3974 17.9144 29.8243 18.646L34.5477 22.346ZM36.69 16.048C36.69 13.8433 36.139 11.7601 35.0444 9.85146L29.8396 12.8365C30.409 13.8292 30.69 14.8821 30.69 16.048H36.69ZM35.0608 9.88054C33.968 7.92491 32.4085 6.40258 30.4229 5.38059L27.6771 10.7154C28.5928 11.1867 29.2947 11.8618 29.8232 12.8075L35.0608 9.88054ZM52.8965 2.32L50.5363 4.17186L50.8583 4.58229L51.3 4.85991L52.8965 2.32ZM58.2725 1.968V-1.032H57.1517L56.3054 -0.297102L58.2725 1.968ZM57.9845 2.608L60.5808 4.11111L60.5973 4.08261L60.6132 4.05375L57.9845 2.608ZM56.8005 3.888L54.9155 1.55417L54.8872 1.57698L54.8596 1.60047L56.8005 3.888ZM50.6565 3.792L52.2373 1.24229L52.1916 1.21395L52.1449 1.18727L50.6565 3.792ZM50.2085 3.536L47.2493 3.0428L46.9058 5.10399L48.7201 6.14073L50.2085 3.536ZM50.7845 1.424L47.9786 0.362324L47.9706 0.383635L47.9628 0.405067L50.7845 1.424ZM51.2645 0.24L53.6247 -1.61186L52.7239 -2.76H51.2645V0.24ZM43.7445 22L40.7695 21.6133L40.3293 25H43.7445V22ZM43.5845 6V3H40.1293L40.6142 6.42099L43.5845 6ZM52.0325 6L55.0279 5.83359L54.8705 3H52.0325V6ZM51.4885 15.696L48.5173 15.2814L47.3681 23.5171L53.5107 17.9121L51.4885 15.696ZM56.0645 10.192L58.5955 11.8026L59.0786 11.0434L59.0641 10.1436L56.0645 10.192ZM55.7125 6V3H52.2464L52.7435 6.43029L55.7125 6ZM64.0005 6L66.9988 5.90006L66.9022 3H64.0005V6ZM62.8485 22V25H65.3668L65.8031 22.5198L62.8485 22ZM55.2005 22L52.2334 21.5571L51.7195 25H55.2005V22ZM56.0325 14.256L59.0279 14.4224L59.658 3.08081L53.5099 12.6323L56.0325 14.256ZM50.1445 22V25H51.5578L52.4577 23.9103L50.1445 22ZM51.3 4.85991C52.5879 5.66944 54.0323 6.024 55.5205 6.024V0.0239983C55.0034 0.0239983 54.6985 -0.0907748 54.493 -0.219911L51.3 4.85991ZM55.5205 6.024C57.3046 6.024 58.912 5.38597 60.2396 4.2331L56.3054 -0.297102C56.0117 -0.0419694 55.7844 0.0239983 55.5205 0.0239983V6.024ZM58.2725 4.968C57.5963 4.968 56.7604 4.72786 56.1039 4.03672C55.5258 3.42819 55.3655 2.75841 55.3152 2.423C55.2234 1.81128 55.3544 1.33518 55.3681 1.28039C55.4056 1.1304 55.4461 1.02237 55.4608 0.98419C55.4792 0.936029 55.4932 0.904795 55.4967 0.896906C55.5006 0.888352 55.4665 0.96111 55.3559 1.16225L60.6132 4.05375C60.7372 3.82822 60.8684 3.58098 60.9683 3.35909C61.0028 3.28233 61.1134 3.03758 61.1889 2.73561C61.2093 2.65416 61.3426 2.15805 61.2488 1.533C61.1975 1.19092 61.0352 0.516142 60.4539 -0.0957269C59.7942 -0.790195 58.954 -1.032 58.2725 -1.032V4.968ZM55.3882 1.10489C55.4049 1.0761 55.3913 1.10718 55.3102 1.19487C55.2304 1.28112 55.1043 1.4017 54.9155 1.55417L58.6855 6.22182C59.3922 5.65104 60.0918 4.95566 60.5808 4.11111L55.3882 1.10489ZM54.8596 1.60047C54.8406 1.61659 54.6492 1.784 53.9525 1.784V7.784C55.6451 7.784 57.3524 7.35407 58.7414 6.17553L54.8596 1.60047ZM53.9525 1.784H53.7925V7.784H53.9525V1.784ZM53.7925 1.784C53.4411 1.784 52.9364 1.67575 52.2373 1.24229L49.0757 6.34171C50.5099 7.23091 52.0959 7.784 53.7925 7.784V1.784ZM52.1449 1.18727L51.6969 0.931271L48.7201 6.14073L49.1681 6.39673L52.1449 1.18727ZM53.1677 4.0292C53.238 3.60712 53.3755 3.08178 53.6062 2.44293L47.9628 0.405067C47.6389 1.30222 47.3923 2.18488 47.2493 3.0428L53.1677 4.0292ZM53.5904 2.48568C53.7378 2.09612 53.8424 1.82679 53.9087 1.66312C53.9445 1.5748 53.9552 1.55195 53.9485 1.5665C53.9455 1.57309 53.9377 1.58986 53.926 1.61357C53.9157 1.63424 53.8926 1.68014 53.8591 1.73932C53.8378 1.77682 53.7547 1.92346 53.62 2.09528C53.5579 2.17452 53.4054 2.36279 53.1674 2.55844C53.0444 2.65961 52.8413 2.81043 52.5627 2.94432C52.2871 3.07678 51.8383 3.24 51.2645 3.24V-2.76C50.1922 -2.76 49.5049 -2.19793 49.3568 -2.07613C49.117 -1.87893 48.9622 -1.68835 48.8977 -1.60603C48.7582 -1.42804 48.6692 -1.27215 48.6409 -1.22232C48.5693 -1.09618 48.5176 -0.984414 48.4965 -0.938504C48.4445 -0.825282 48.3925 -0.700134 48.3483 -0.591117C48.2546 -0.360126 48.1299 -0.0374494 47.9786 0.362324L53.5904 2.48568ZM48.9043 2.09186L50.5363 4.17186L55.2567 0.468139L53.6247 -1.61186L48.9043 2.09186ZM46.7195 22.3867C47.0181 20.0898 47.1605 17.4373 47.1605 14.448H41.1605C41.1605 17.2614 41.0256 19.6435 40.7695 21.6133L46.7195 22.3867ZM47.1605 14.448C47.1605 11.3939 46.9599 8.43686 46.5548 5.57901L40.6142 6.42099C40.9771 8.9818 41.1605 11.6567 41.1605 14.448H47.1605ZM43.5845 9H52.0325V3H43.5845V9ZM49.0371 6.16641C49.0527 6.44737 49.0645 7.37249 49.0645 9.072H55.0645C55.0645 7.44351 55.0549 6.32063 55.0279 5.83359L49.0371 6.16641ZM49.0645 9.072C49.0645 10.5362 48.893 12.5889 48.5173 15.2814L54.4597 16.1106C54.852 13.2991 55.0645 10.9358 55.0645 9.072H49.0645ZM53.5107 17.9121C55.4285 16.162 57.1211 14.1195 58.5955 11.8026L53.5335 8.58137C52.3199 10.4885 50.9619 12.1153 49.4664 13.4799L53.5107 17.9121ZM59.0641 10.1436C59.0405 8.67855 58.9109 7.15294 58.6815 5.56971L52.7435 6.43029C52.9407 7.79106 53.0459 9.06011 53.0649 10.2404L59.0641 10.1436ZM55.7125 9H64.0005V3H55.7125V9ZM61.0022 6.09994C61.0446 7.37257 61.0645 8.29185 61.0645 8.88H67.0645C67.0645 8.18815 67.0417 7.18743 66.9988 5.90006L61.0022 6.09994ZM61.0645 8.88C61.0645 12.8236 60.6782 17.022 59.8939 21.4802L65.8031 22.5198C66.6402 17.762 67.0645 13.2137 67.0645 8.88H61.0645ZM62.8485 19H55.2005V25H62.8485V19ZM58.1676 22.4429C58.6047 19.5143 58.8937 16.8386 59.0279 14.4224L53.0371 14.0896C52.9154 16.2814 52.6496 18.7684 52.2334 21.5571L58.1676 22.4429ZM53.5099 12.6323C52.4139 14.335 50.5428 16.8063 47.8313 20.0897L52.4577 23.9103C55.2076 20.5803 57.2618 17.889 58.5551 15.8797L53.5099 12.6323ZM50.1445 19H43.7445V25H50.1445V19ZM81.229 8.08V5.08H78.6823L78.2688 7.59288L81.229 8.08ZM80.653 22V25H83.9808L83.6369 21.69L80.653 22ZM73.677 22L70.7433 22.6273L71.2507 25H73.677V22ZM72.653 8.08L75.6514 8.17672L75.7851 4.03171L71.8065 5.2019L72.653 8.08ZM69.325 11.76L69.1435 14.7545L71.7259 14.911L72.2603 12.3797L69.325 11.76ZM66.157 11.568L63.2192 10.9602L62.5173 14.3529L65.9755 14.5625L66.157 11.568ZM67.309 6V3H64.8661L64.3712 5.39218L67.309 6ZM88.589 6L91.5406 6.53666L92.1836 3H88.589V6ZM87.117 11.76L86.9391 14.7547L89.156 14.8864L89.9293 12.8046L87.117 11.76ZM83.885 11.568L80.9746 10.8404L80.0976 14.3483L83.7071 14.5627L83.885 11.568ZM83.245 8.688L81.3829 11.0401V11.0401L83.245 8.688ZM78.2688 7.59288C77.7014 11.0411 77.397 13.9724 77.397 16.336H83.397C83.397 14.4329 83.6473 11.8602 84.1892 8.56712L78.2688 7.59288ZM77.397 16.336C77.397 18.5448 77.4851 20.5398 77.6691 22.31L83.6369 21.69C83.4795 20.1749 83.397 18.3939 83.397 16.336H77.397ZM80.653 19H73.677V25H80.653V19ZM76.6107 21.3727C75.9345 18.2107 75.589 14.775 75.589 11.056H69.589C69.589 15.145 69.9688 19.0053 70.7433 22.6273L76.6107 21.3727ZM75.589 11.056C75.589 10.4448 75.609 9.49225 75.6514 8.17672L69.6546 7.98327C69.6117 9.31308 69.589 10.3445 69.589 11.056H75.589ZM71.8065 5.2019C70.4467 5.60184 69.2122 6.30828 68.2359 7.38777C67.2644 8.46206 66.6814 9.75879 66.3897 11.1403L72.2603 12.3797C72.374 11.8412 72.5483 11.5646 72.6861 11.4122C72.8192 11.265 73.046 11.0915 73.4995 10.9581L71.8065 5.2019ZM69.5065 8.76549L66.3385 8.57349L65.9755 14.5625L69.1435 14.7545L69.5065 8.76549ZM69.0948 12.1758L70.2468 6.60782L64.3712 5.39218L63.2192 10.9602L69.0948 12.1758ZM67.309 9H88.589V3H67.309V9ZM85.6374 5.46334C85.2283 7.71316 84.7761 9.44646 84.3047 10.7154L89.9293 12.8046C90.5673 11.0869 91.0963 8.98017 91.5406 6.53666L85.6374 5.46334ZM87.2949 8.76528L84.0629 8.57328L83.7071 14.5627L86.9391 14.7547L87.2949 8.76528ZM86.7954 12.2956C86.9384 11.7237 87.013 11.1381 87.013 10.544H81.013C81.013 10.6326 81.0023 10.7297 80.9746 10.8404L86.7954 12.2956ZM87.013 10.544C87.013 9.06949 86.5284 7.46108 85.1071 6.33586L81.3829 11.0401C81.3127 10.9846 81.243 10.9146 81.181 10.832C81.1193 10.7497 81.0767 10.67 81.049 10.6031C80.9948 10.4721 81.013 10.4292 81.013 10.544H87.013ZM85.1071 6.33586C83.9344 5.40746 82.5489 5.08 81.229 5.08V11.08C81.4043 11.08 81.4821 11.1016 81.4908 11.1042C81.4943 11.1053 81.4827 11.102 81.4606 11.0907C81.4381 11.0792 81.411 11.0624 81.3829 11.0401L85.1071 6.33586ZM91.1195 22L88.1445 21.6133L87.7043 25H91.1195V22ZM90.9595 6V3H87.5043L87.9892 6.42099L90.9595 6ZM99.4075 6L102.403 5.83359L102.245 3H99.4075V6ZM98.8635 15.696L95.8923 15.2814L94.7431 23.5171L100.886 17.9121L98.8635 15.696ZM103.439 10.192L105.97 11.8026L106.454 11.0434L106.439 10.1436L103.439 10.192ZM103.088 6V3H99.6214L100.119 6.43029L103.088 6ZM111.376 6L114.374 5.90006L114.277 3H111.376V6ZM110.224 22V25H112.742L113.178 22.5198L110.224 22ZM102.576 22L99.6084 21.5571L99.0945 25H102.576V22ZM103.408 14.256L106.403 14.4224L107.033 3.08081L100.885 12.6323L103.408 14.256ZM97.5195 22V25H98.9328L99.8327 23.9103L97.5195 22ZM94.0945 22.3867C94.3931 20.0898 94.5355 17.4373 94.5355 14.448H88.5355C88.5355 17.2614 88.4006 19.6435 88.1445 21.6133L94.0945 22.3867ZM94.5355 14.448C94.5355 11.3939 94.3349 8.43686 93.9298 5.57901L87.9892 6.42099C88.3521 8.9818 88.5355 11.6567 88.5355 14.448H94.5355ZM90.9595 9H99.4075V3H90.9595V9ZM96.4121 6.16641C96.4277 6.44737 96.4395 7.37249 96.4395 9.072H102.439C102.439 7.44351 102.43 6.32063 102.403 5.83359L96.4121 6.16641ZM96.4395 9.072C96.4395 10.5362 96.268 12.5889 95.8923 15.2814L101.835 16.1106C102.227 13.2991 102.439 10.9358 102.439 9.072H96.4395ZM100.886 17.9121C102.803 16.162 104.496 14.1195 105.97 11.8026L100.909 8.58137C99.6949 10.4885 98.3369 12.1153 96.8413 13.4799L100.886 17.9121ZM106.439 10.1436C106.415 8.67855 106.286 7.15294 106.056 5.56971L100.119 6.43029C100.316 7.79106 100.421 9.06011 100.44 10.2404L106.439 10.1436ZM103.088 9H111.376V3H103.088V9ZM108.377 6.09994C108.42 7.37257 108.439 8.29185 108.439 8.88H114.439C114.439 8.18815 114.417 7.18743 114.374 5.90006L108.377 6.09994ZM108.439 8.88C108.439 12.8236 108.053 17.022 107.269 21.4802L113.178 22.5198C114.015 17.762 114.439 13.2137 114.439 8.88H108.439ZM110.224 19H102.576V25H110.224V19ZM105.543 22.4429C105.98 19.5143 106.269 16.8386 106.403 14.4224L100.412 14.0896C100.29 16.2814 100.025 18.7684 99.6084 21.5571L105.543 22.4429ZM100.885 12.6323C99.7889 14.335 97.9178 16.8063 95.2063 20.0897L99.8327 23.9103C102.583 20.5803 104.637 17.889 105.93 15.8797L100.885 12.6323ZM97.5195 19H91.1195V25H97.5195V19Z" fill="black" mask="url(#path-1-outside-1_3_10)"/>
</svg>
