<svg width="121" height="22" viewBox="0 0 121 22" fill="none" xmlns="http://www.w3.org/2000/svg">
<mask id="path-1-outside-1_132_225" maskUnits="userSpaceOnUse" x="-3" y="-3" width="127" height="30" fill="black">
<rect fill="white" x="-3" y="-3" width="127" height="30"/>
<path d="M8.304 19.92C9.75467 19.92 10.9387 19.8027 11.856 19.568C11.472 17.2 10.384 15.44 8.592 14.288C8.4 16.1867 8.304 18.064 8.304 19.92ZM0.24 12.4C0.24 10.16 0.442667 8.02667 0.848 6H18.608C17.648 8.98667 15.8133 11.152 13.104 12.496C15.5573 13.3707 17.52 14.5867 18.992 16.144C18.8 18.128 18.3413 20.08 17.616 22H1.52C0.666667 19.0347 0.24 15.8347 0.24 12.4ZM8.848 12.08C9.89333 11.8027 10.864 11.3227 11.76 10.64C12.656 9.95733 13.296 9.11467 13.68 8.112C11.9733 8.112 10.5867 8.16533 9.52 8.272C9.264 9.50933 9.04 10.7787 8.848 12.08ZM22.266 22C21.7753 19.952 21.53 17.2853 21.53 14C21.53 10.7147 21.8287 8.048 22.426 6H30.33C29.9887 8.02667 29.7647 9.85067 29.658 11.472C33.3913 11.8987 36.7087 12.8373 39.61 14.288C39.546 17.1253 39.2047 19.696 38.586 22H22.266ZM29.594 13.68C29.594 15.9413 29.8607 18.0107 30.394 19.888C31.5033 18.5227 32.2073 16.7413 32.506 14.544C31.5673 14.0533 30.5967 13.7653 29.594 13.68ZM49.53 9.264C49.53 13.7227 49.1673 17.968 48.442 22H41.178C41.4553 19.9093 41.594 17.4133 41.594 14.512C41.594 11.5893 41.402 8.752 41.018 6H49.466C49.5087 7.45067 49.53 8.53867 49.53 9.264ZM62.3965 2.32C63.1432 2.78933 64.0178 3.024 65.0205 3.024C66.0445 3.024 66.9618 2.672 67.7725 1.968C67.8152 1.968 67.7192 2.18133 67.4845 2.608C67.2498 3.01333 66.8552 3.44 66.3005 3.888C65.5965 4.48533 64.6472 4.784 63.4525 4.784H63.2925C62.2685 4.784 61.2232 4.45333 60.1565 3.792L59.7085 3.536C59.8152 2.896 60.0072 2.192 60.2845 1.424C60.5832 0.634666 60.7432 0.24 60.7645 0.24L62.3965 2.32ZM53.2445 22C53.5218 19.8667 53.6605 17.3493 53.6605 14.448C53.6605 11.5253 53.4685 8.70933 53.0845 6H61.5325C61.5538 6.384 61.5645 7.408 61.5645 9.072C61.5645 10.736 61.3725 12.944 60.9885 15.696C62.6952 14.1387 64.2205 12.304 65.5645 10.192C65.5432 8.86933 65.4258 7.472 65.2125 6H73.5005C73.5432 7.28 73.5645 8.24 73.5645 8.88C73.5645 13.0187 73.1592 17.392 72.3485 22H64.7005C65.1272 19.1413 65.4045 16.56 65.5325 14.256C64.3378 16.112 62.3752 18.6933 59.6445 22H53.2445ZM90.729 8.08C90.1743 11.4507 89.897 14.2027 89.897 16.336C89.897 18.4693 89.9823 20.3573 90.153 22H83.177C82.4517 18.608 82.089 14.96 82.089 11.056C82.089 10.3947 82.1103 9.40267 82.153 8.08C80.3397 8.61333 79.2303 9.84 78.825 11.76L75.657 11.568L76.809 6H98.089C97.6623 8.34667 97.1717 10.2667 96.617 11.76L93.385 11.568C93.4703 11.2267 93.513 10.8853 93.513 10.544C93.513 9.712 93.257 9.09333 92.745 8.688C92.233 8.28267 91.561 8.08 90.729 8.08ZM100.62 22C100.897 19.8667 101.036 17.3493 101.036 14.448C101.036 11.5253 100.844 8.70933 100.46 6H108.908C108.929 6.384 108.94 7.408 108.94 9.072C108.94 10.736 108.748 12.944 108.364 15.696C110.07 14.1387 111.596 12.304 112.94 10.192C112.918 8.86933 112.801 7.472 112.588 6H120.876C120.918 7.28 120.94 8.24 120.94 8.88C120.94 13.0187 120.534 17.392 119.724 22H112.076C112.502 19.1413 112.78 16.56 112.908 14.256C111.713 16.112 109.75 18.6933 107.02 22H100.62Z"/>
</mask>
<path d="M8.304 19.92C9.75467 19.92 10.9387 19.8027 11.856 19.568C11.472 17.2 10.384 15.44 8.592 14.288C8.4 16.1867 8.304 18.064 8.304 19.92ZM0.24 12.4C0.24 10.16 0.442667 8.02667 0.848 6H18.608C17.648 8.98667 15.8133 11.152 13.104 12.496C15.5573 13.3707 17.52 14.5867 18.992 16.144C18.8 18.128 18.3413 20.08 17.616 22H1.52C0.666667 19.0347 0.24 15.8347 0.24 12.4ZM8.848 12.08C9.89333 11.8027 10.864 11.3227 11.76 10.64C12.656 9.95733 13.296 9.11467 13.68 8.112C11.9733 8.112 10.5867 8.16533 9.52 8.272C9.264 9.50933 9.04 10.7787 8.848 12.08ZM22.266 22C21.7753 19.952 21.53 17.2853 21.53 14C21.53 10.7147 21.8287 8.048 22.426 6H30.33C29.9887 8.02667 29.7647 9.85067 29.658 11.472C33.3913 11.8987 36.7087 12.8373 39.61 14.288C39.546 17.1253 39.2047 19.696 38.586 22H22.266ZM29.594 13.68C29.594 15.9413 29.8607 18.0107 30.394 19.888C31.5033 18.5227 32.2073 16.7413 32.506 14.544C31.5673 14.0533 30.5967 13.7653 29.594 13.68ZM49.53 9.264C49.53 13.7227 49.1673 17.968 48.442 22H41.178C41.4553 19.9093 41.594 17.4133 41.594 14.512C41.594 11.5893 41.402 8.752 41.018 6H49.466C49.5087 7.45067 49.53 8.53867 49.53 9.264ZM62.3965 2.32C63.1432 2.78933 64.0178 3.024 65.0205 3.024C66.0445 3.024 66.9618 2.672 67.7725 1.968C67.8152 1.968 67.7192 2.18133 67.4845 2.608C67.2498 3.01333 66.8552 3.44 66.3005 3.888C65.5965 4.48533 64.6472 4.784 63.4525 4.784H63.2925C62.2685 4.784 61.2232 4.45333 60.1565 3.792L59.7085 3.536C59.8152 2.896 60.0072 2.192 60.2845 1.424C60.5832 0.634666 60.7432 0.24 60.7645 0.24L62.3965 2.32ZM53.2445 22C53.5218 19.8667 53.6605 17.3493 53.6605 14.448C53.6605 11.5253 53.4685 8.70933 53.0845 6H61.5325C61.5538 6.384 61.5645 7.408 61.5645 9.072C61.5645 10.736 61.3725 12.944 60.9885 15.696C62.6952 14.1387 64.2205 12.304 65.5645 10.192C65.5432 8.86933 65.4258 7.472 65.2125 6H73.5005C73.5432 7.28 73.5645 8.24 73.5645 8.88C73.5645 13.0187 73.1592 17.392 72.3485 22H64.7005C65.1272 19.1413 65.4045 16.56 65.5325 14.256C64.3378 16.112 62.3752 18.6933 59.6445 22H53.2445ZM90.729 8.08C90.1743 11.4507 89.897 14.2027 89.897 16.336C89.897 18.4693 89.9823 20.3573 90.153 22H83.177C82.4517 18.608 82.089 14.96 82.089 11.056C82.089 10.3947 82.1103 9.40267 82.153 8.08C80.3397 8.61333 79.2303 9.84 78.825 11.76L75.657 11.568L76.809 6H98.089C97.6623 8.34667 97.1717 10.2667 96.617 11.76L93.385 11.568C93.4703 11.2267 93.513 10.8853 93.513 10.544C93.513 9.712 93.257 9.09333 92.745 8.688C92.233 8.28267 91.561 8.08 90.729 8.08ZM100.62 22C100.897 19.8667 101.036 17.3493 101.036 14.448C101.036 11.5253 100.844 8.70933 100.46 6H108.908C108.929 6.384 108.94 7.408 108.94 9.072C108.94 10.736 108.748 12.944 108.364 15.696C110.07 14.1387 111.596 12.304 112.94 10.192C112.918 8.86933 112.801 7.472 112.588 6H120.876C120.918 7.28 120.94 8.24 120.94 8.88C120.94 13.0187 120.534 17.392 119.724 22H112.076C112.502 19.1413 112.78 16.56 112.908 14.256C111.713 16.112 109.75 18.6933 107.02 22H100.62Z" fill="white"/>
<path d="M8.304 19.92H5.304V22.92H8.304V19.92ZM11.856 19.568L12.5995 22.4744L15.2563 21.7948L14.8173 19.0878L11.856 19.568ZM8.592 14.288L10.2143 11.7645L6.09939 9.11918L5.60722 13.9862L8.592 14.288ZM0.848 6V3H-1.61141L-2.09374 5.41165L0.848 6ZM18.608 6L21.4641 6.91803L22.7235 3H18.608V6ZM13.104 12.496L11.7708 9.8085L5.44049 12.9487L12.0965 15.3218L13.104 12.496ZM18.992 16.144L21.9781 16.433L22.1095 15.0749L21.1722 14.0833L18.992 16.144ZM17.616 22V25H19.6896L20.4224 23.0602L17.616 22ZM1.52 22L-1.363 22.8296L-0.738437 25H1.52V22ZM8.848 12.08L5.88013 11.6421L5.2154 16.1475L9.61731 14.9797L8.848 12.08ZM11.76 10.64L9.94187 8.2537L9.94187 8.2537L11.76 10.64ZM13.68 8.112L16.4816 9.18494L18.0414 5.112H13.68V8.112ZM9.52 8.272L9.22149 5.28689L7.02871 5.50617L6.58222 7.66418L9.52 8.272ZM8.304 22.92C9.88764 22.92 11.3468 22.7949 12.5995 22.4744L11.1125 16.6616C10.5305 16.8105 9.6217 16.92 8.304 16.92V22.92ZM14.8173 19.0878C14.3161 15.9972 12.8168 13.4375 10.2143 11.7645L6.96973 16.8115C7.95124 17.4425 8.62786 18.4028 8.89468 20.0482L14.8173 19.0878ZM5.60722 13.9862C5.40537 15.9823 5.304 17.9604 5.304 19.92H11.304C11.304 18.1676 11.3946 16.391 11.5768 14.5898L5.60722 13.9862ZM3.24 12.4C3.24 10.3412 3.42623 8.40592 3.78974 6.58835L-2.09374 5.41165C-2.5409 7.64742 -2.76 9.97877 -2.76 12.4H3.24ZM0.848 9H18.608V3H0.848V9ZM15.7519 5.08197C15.0295 7.32964 13.7246 8.83929 11.7708 9.8085L14.4372 15.1835C17.902 13.4647 20.2666 10.6437 21.4641 6.91803L15.7519 5.08197ZM12.0965 15.3218C14.1989 16.0713 15.7276 17.0577 16.8118 18.2047L21.1722 14.0833C19.3124 12.1156 16.9158 10.67 14.1115 9.67022L12.0965 15.3218ZM16.006 15.855C15.8402 17.5674 15.444 19.2604 14.8096 20.9398L20.4224 23.0602C21.2386 20.8996 21.7598 18.6886 21.9781 16.433L16.006 15.855ZM17.616 19H1.52V25H17.616V19ZM4.403 21.1704C3.63549 18.5033 3.24 15.5853 3.24 12.4H-2.76C-2.76 16.084 -2.30216 19.5661 -1.363 22.8296L4.403 21.1704ZM9.61731 14.9797C11.0583 14.5974 12.3828 13.9371 13.5781 13.0263L9.94187 8.2537C9.34524 8.70828 8.72841 9.00794 8.0787 9.18032L9.61731 14.9797ZM13.5781 13.0263C14.8948 12.0231 15.8882 10.7344 16.4816 9.18494L10.8784 7.03906C10.7038 7.49491 10.4172 7.89155 9.94187 8.2537L13.5781 13.0263ZM13.68 5.112C11.9245 5.112 10.4276 5.16628 9.22149 5.28689L9.81851 11.2571C10.7458 11.1644 12.0222 11.112 13.68 11.112V5.112ZM6.58222 7.66418C6.3141 8.96011 6.08019 10.2862 5.88013 11.6421L11.8159 12.5179C11.9998 11.2712 12.2139 10.0586 12.4578 8.87982L6.58222 7.66418ZM22.266 22L19.3486 22.699L19.8999 25H22.266V22ZM22.426 6V3H20.176L19.546 5.16L22.426 6ZM30.33 6L33.2883 6.49825L33.8775 3H30.33V6ZM29.658 11.472L26.6645 11.2751L26.4768 14.128L29.3174 14.4526L29.658 11.472ZM39.61 14.288L42.6092 14.3557L42.6521 12.455L40.9516 11.6047L39.61 14.288ZM38.586 22V25H40.8867L41.4834 22.778L38.586 22ZM29.594 13.68L29.8484 10.6908L26.594 10.4138V13.68H29.594ZM30.394 19.888L27.5082 20.7078L29.0846 26.2569L32.7223 21.7798L30.394 19.888ZM32.506 14.544L35.4787 14.9481L35.7623 12.861L33.8958 11.8853L32.506 14.544ZM48.442 22V25H50.9505L51.3946 22.5312L48.442 22ZM41.178 22L38.2041 21.6055L37.7538 25H41.178V22ZM41.018 6V3H37.5703L38.0468 6.41459L41.018 6ZM49.466 6L52.4647 5.9118L52.3791 3H49.466V6ZM25.1834 21.301C24.7692 19.5721 24.53 17.1653 24.53 14H18.53C18.53 17.4053 18.7815 20.3319 19.3486 22.699L25.1834 21.301ZM24.53 14C24.53 10.8632 24.819 8.50986 25.306 6.84L19.546 5.16C18.8384 7.58614 18.53 10.5661 18.53 14H24.53ZM22.426 9H30.33V3H22.426V9ZM27.3717 5.50175C27.0177 7.60345 26.7792 9.53048 26.6645 11.2751L32.6515 11.6689C32.7501 10.1708 32.9596 8.44988 33.2883 6.49825L27.3717 5.50175ZM29.3174 14.4526C32.7565 14.8456 35.7261 15.7002 38.2684 16.9713L40.9516 11.6047C37.6912 9.9745 34.0262 8.95169 29.9986 8.4914L29.3174 14.4526ZM36.6108 14.2203C36.5512 16.8615 36.2346 19.1887 35.6886 21.222L41.4834 22.778C42.1747 20.2033 42.5408 17.3891 42.6092 14.3557L36.6108 14.2203ZM38.586 19H22.266V25H38.586V19ZM26.594 13.68C26.594 16.1757 26.8882 18.5255 27.5082 20.7078L33.2798 19.0682C32.8331 17.4958 32.594 15.707 32.594 13.68H26.594ZM32.7223 21.7798C34.2587 19.8888 35.125 17.5503 35.4787 14.9481L29.5333 14.1399C29.2897 15.9324 28.7479 17.1565 28.0657 17.9962L32.7223 21.7798ZM33.8958 11.8853C32.6232 11.2201 31.2684 10.8117 29.8484 10.6908L29.3396 16.6692C29.925 16.719 30.5115 16.8866 31.1162 17.2027L33.8958 11.8853ZM46.53 9.264C46.53 13.56 46.1806 17.6267 45.4894 21.4688L51.3946 22.5312C52.1541 18.3093 52.53 13.8853 52.53 9.264H46.53ZM48.442 19H41.178V25H48.442V19ZM44.1519 22.3945C44.4517 20.1348 44.594 17.5001 44.594 14.512H38.594C38.594 17.3266 38.459 19.6838 38.2041 21.6055L44.1519 22.3945ZM44.594 14.512C44.594 11.4578 44.3933 8.48165 43.9892 5.58541L38.0468 6.41459C38.4107 9.02235 38.594 11.7209 38.594 14.512H44.594ZM41.018 9H49.466V3H41.018V9ZM46.4673 6.0882C46.5098 7.53235 46.53 8.58441 46.53 9.264H52.53C52.53 8.49292 52.5076 7.36898 52.4647 5.9118L46.4673 6.0882ZM62.3965 2.32L60.0363 4.17186L60.3583 4.58229L60.8 4.85991L62.3965 2.32ZM67.7725 1.968V-1.032H66.6517L65.8054 -0.297102L67.7725 1.968ZM67.4845 2.608L70.0808 4.11111L70.0973 4.08261L70.1132 4.05375L67.4845 2.608ZM66.3005 3.888L64.4155 1.55417L64.3873 1.57698L64.3596 1.60047L66.3005 3.888ZM60.1565 3.792L61.7373 1.24229L61.6916 1.21395L61.6449 1.18727L60.1565 3.792ZM59.7085 3.536L56.7493 3.0428L56.4058 5.10399L58.2201 6.14073L59.7085 3.536ZM60.2845 1.424L57.4786 0.362324L57.4706 0.383635L57.4628 0.405067L60.2845 1.424ZM60.7645 0.24L63.1247 -1.61186L62.2239 -2.76H60.7645V0.24ZM53.2445 22L50.2695 21.6133L49.8293 25H53.2445V22ZM53.0845 6V3H49.6293L50.1142 6.42099L53.0845 6ZM61.5325 6L64.5279 5.83359L64.3705 3H61.5325V6ZM60.9885 15.696L58.0173 15.2814L56.8681 23.5171L63.0107 17.9121L60.9885 15.696ZM65.5645 10.192L68.0955 11.8026L68.5786 11.0434L68.5641 10.1436L65.5645 10.192ZM65.2125 6V3H61.7464L62.2435 6.43029L65.2125 6ZM73.5005 6L76.4988 5.90006L76.4022 3H73.5005V6ZM72.3485 22V25H74.8668L75.3031 22.5198L72.3485 22ZM64.7005 22L61.7334 21.5571L61.2195 25H64.7005V22ZM65.5325 14.256L68.5279 14.4224L69.158 3.08081L63.0099 12.6323L65.5325 14.256ZM59.6445 22V25H61.0578L61.9577 23.9103L59.6445 22ZM60.8 4.85991C62.0879 5.66944 63.5323 6.024 65.0205 6.024V0.0239983C64.5034 0.0239983 64.1985 -0.0907748 63.993 -0.219911L60.8 4.85991ZM65.0205 6.024C66.8046 6.024 68.412 5.38597 69.7396 4.2331L65.8054 -0.297102C65.5117 -0.0419694 65.2844 0.0239983 65.0205 0.0239983V6.024ZM67.7725 4.968C67.0963 4.968 66.2604 4.72786 65.6039 4.03672C65.0258 3.42819 64.8655 2.75841 64.8152 2.423C64.7234 1.81128 64.8544 1.33518 64.8681 1.28039C64.9056 1.1304 64.9461 1.02237 64.9608 0.98419C64.9792 0.936029 64.9932 0.904795 64.9967 0.896906C65.0006 0.888352 64.9665 0.96111 64.8559 1.16225L70.1132 4.05375C70.2372 3.82822 70.3684 3.58098 70.4683 3.35909C70.5028 3.28233 70.6134 3.03758 70.6889 2.73561C70.7093 2.65415 70.8426 2.15805 70.7488 1.533C70.6975 1.19092 70.5352 0.516142 69.9539 -0.0957269C69.2942 -0.790195 68.454 -1.032 67.7725 -1.032V4.968ZM64.8882 1.10489C64.9049 1.0761 64.8913 1.10718 64.8102 1.19487C64.7304 1.28112 64.6043 1.4017 64.4155 1.55417L68.1855 6.22182C68.8922 5.65104 69.5918 4.95566 70.0808 4.11111L64.8882 1.10489ZM64.3596 1.60047C64.3406 1.61659 64.1492 1.784 63.4525 1.784V7.784C65.1451 7.784 66.8524 7.35407 68.2414 6.17553L64.3596 1.60047ZM63.4525 1.784H63.2925V7.784H63.4525V1.784ZM63.2925 1.784C62.9411 1.784 62.4364 1.67575 61.7373 1.24229L58.5757 6.34171C60.0099 7.23091 61.5959 7.784 63.2925 7.784V1.784ZM61.6449 1.18727L61.1969 0.931271L58.2201 6.14073L58.6681 6.39673L61.6449 1.18727ZM62.6677 4.0292C62.738 3.60712 62.8755 3.08178 63.1062 2.44293L57.4628 0.405067C57.1389 1.30222 56.8923 2.18488 56.7493 3.0428L62.6677 4.0292ZM63.0904 2.48568C63.2378 2.09612 63.3424 1.82679 63.4087 1.66312C63.4445 1.5748 63.4552 1.55195 63.4485 1.5665C63.4455 1.57309 63.4377 1.58986 63.426 1.61357C63.4157 1.63424 63.3926 1.68014 63.3591 1.73932C63.3378 1.77682 63.2547 1.92346 63.12 2.09528C63.0579 2.17452 62.9054 2.36279 62.6674 2.55844C62.5444 2.65961 62.3413 2.81043 62.0627 2.94432C61.7871 3.07678 61.3383 3.24 60.7645 3.24V-2.76C59.6922 -2.76 59.0049 -2.19793 58.8568 -2.07613C58.617 -1.87893 58.4622 -1.68835 58.3977 -1.60603C58.2582 -1.42804 58.1692 -1.27215 58.1409 -1.22232C58.0693 -1.09618 58.0176 -0.984414 57.9965 -0.938504C57.9445 -0.825282 57.8925 -0.700134 57.8483 -0.591117C57.7546 -0.360126 57.6299 -0.0374494 57.4786 0.362324L63.0904 2.48568ZM58.4043 2.09186L60.0363 4.17186L64.7567 0.468139L63.1247 -1.61186L58.4043 2.09186ZM56.2195 22.3867C56.5181 20.0898 56.6605 17.4373 56.6605 14.448H50.6605C50.6605 17.2614 50.5256 19.6435 50.2695 21.6133L56.2195 22.3867ZM56.6605 14.448C56.6605 11.3939 56.4599 8.43686 56.0548 5.57901L50.1142 6.42099C50.4771 8.9818 50.6605 11.6567 50.6605 14.448H56.6605ZM53.0845 9H61.5325V3H53.0845V9ZM58.5371 6.16641C58.5527 6.44737 58.5645 7.37249 58.5645 9.072H64.5645C64.5645 7.44351 64.5549 6.32063 64.5279 5.83359L58.5371 6.16641ZM58.5645 9.072C58.5645 10.5362 58.393 12.5889 58.0173 15.2814L63.9597 16.1106C64.352 13.2991 64.5645 10.9358 64.5645 9.072H58.5645ZM63.0107 17.9121C64.9285 16.162 66.6211 14.1195 68.0955 11.8026L63.0335 8.58137C61.8199 10.4885 60.4619 12.1153 58.9663 13.4799L63.0107 17.9121ZM68.5641 10.1436C68.5405 8.67855 68.4109 7.15294 68.1815 5.56971L62.2435 6.43029C62.4407 7.79106 62.5459 9.06011 62.5649 10.2404L68.5641 10.1436ZM65.2125 9H73.5005V3H65.2125V9ZM70.5022 6.09994C70.5446 7.37257 70.5645 8.29185 70.5645 8.88H76.5645C76.5645 8.18815 76.5417 7.18743 76.4988 5.90006L70.5022 6.09994ZM70.5645 8.88C70.5645 12.8236 70.1782 17.022 69.3939 21.4802L75.3031 22.5198C76.1402 17.762 76.5645 13.2137 76.5645 8.88H70.5645ZM72.3485 19H64.7005V25H72.3485V19ZM67.6676 22.4429C68.1047 19.5143 68.3937 16.8386 68.5279 14.4224L62.5371 14.0896C62.4154 16.2814 62.1496 18.7684 61.7334 21.5571L67.6676 22.4429ZM63.0099 12.6323C61.9139 14.335 60.0428 16.8063 57.3313 20.0897L61.9577 23.9103C64.7076 20.5803 66.7618 17.889 68.0551 15.8797L63.0099 12.6323ZM59.6445 19H53.2445V25H59.6445V19ZM90.729 8.08V5.08H88.1823L87.7688 7.59288L90.729 8.08ZM90.153 22V25H93.4808L93.1369 21.69L90.153 22ZM83.177 22L80.2433 22.6273L80.7507 25H83.177V22ZM82.153 8.08L85.1514 8.17672L85.2852 4.03171L81.3065 5.2019L82.153 8.08ZM78.825 11.76L78.6435 14.7545L81.2259 14.911L81.7603 12.3797L78.825 11.76ZM75.657 11.568L72.7192 10.9602L72.0173 14.3529L75.4755 14.5625L75.657 11.568ZM76.809 6V3H74.3662L73.8712 5.39218L76.809 6ZM98.089 6L101.041 6.53666L101.684 3H98.089V6ZM96.617 11.76L96.4391 14.7547L98.656 14.8864L99.4293 12.8046L96.617 11.76ZM93.385 11.568L90.4746 10.8404L89.5976 14.3483L93.2071 14.5627L93.385 11.568ZM92.745 8.688L90.8829 11.0401L90.8829 11.0401L92.745 8.688ZM87.7688 7.59288C87.2014 11.0411 86.897 13.9724 86.897 16.336H92.897C92.897 14.4329 93.1473 11.8602 93.6892 8.56712L87.7688 7.59288ZM86.897 16.336C86.897 18.5448 86.9851 20.5398 87.1691 22.31L93.1369 21.69C92.9795 20.1749 92.897 18.3939 92.897 16.336H86.897ZM90.153 19H83.177V25H90.153V19ZM86.1107 21.3727C85.4345 18.2107 85.089 14.775 85.089 11.056H79.089C79.089 15.145 79.4688 19.0053 80.2433 22.6273L86.1107 21.3727ZM85.089 11.056C85.089 10.4448 85.109 9.49225 85.1514 8.17672L79.1546 7.98327C79.1117 9.31308 79.089 10.3445 79.089 11.056H85.089ZM81.3065 5.2019C79.9467 5.60184 78.7122 6.30828 77.7359 7.38777C76.7644 8.46206 76.1814 9.75879 75.8897 11.1403L81.7603 12.3797C81.874 11.8412 82.0483 11.5646 82.1861 11.4122C82.3192 11.265 82.546 11.0915 82.9995 10.9581L81.3065 5.2019ZM79.0065 8.76549L75.8385 8.57349L75.4755 14.5625L78.6435 14.7545L79.0065 8.76549ZM78.5948 12.1758L79.7468 6.60782L73.8712 5.39218L72.7192 10.9602L78.5948 12.1758ZM76.809 9H98.089V3H76.809V9ZM95.1374 5.46334C94.7283 7.71316 94.2761 9.44646 93.8047 10.7154L99.4293 12.8046C100.067 11.0869 100.596 8.98017 101.041 6.53666L95.1374 5.46334ZM96.7949 8.76528L93.5629 8.57328L93.2071 14.5627L96.4391 14.7547L96.7949 8.76528ZM96.2954 12.2956C96.4384 11.7237 96.513 11.1381 96.513 10.544H90.513C90.513 10.6326 90.5023 10.7297 90.4746 10.8404L96.2954 12.2956ZM96.513 10.544C96.513 9.06949 96.0284 7.46108 94.6071 6.33586L90.8829 11.0401C90.8127 10.9846 90.743 10.9146 90.681 10.832C90.6193 10.7497 90.5767 10.67 90.5489 10.6031C90.4947 10.4721 90.513 10.4292 90.513 10.544H96.513ZM94.6071 6.33586C93.4344 5.40746 92.0488 5.08 90.729 5.08V11.08C90.9043 11.08 90.9821 11.1016 90.9908 11.1042C90.9943 11.1053 90.9827 11.102 90.9606 11.0907C90.9381 11.0792 90.911 11.0624 90.8829 11.0401L94.6071 6.33586ZM100.62 22L97.6445 21.6133L97.2043 25H100.62V22ZM100.46 6V3H97.0043L97.4892 6.42099L100.46 6ZM108.908 6L111.903 5.83359L111.745 3H108.908V6ZM108.364 15.696L105.392 15.2814L104.243 23.5171L110.386 17.9121L108.364 15.696ZM112.94 10.192L115.47 11.8026L115.954 11.0434L115.939 10.1436L112.94 10.192ZM112.588 6V3H109.121L109.619 6.43029L112.588 6ZM120.876 6L123.874 5.90006L123.777 3H120.876V6ZM119.724 22V25H122.242L122.678 22.5198L119.724 22ZM112.076 22L109.108 21.5571L108.595 25H112.076V22ZM112.908 14.256L115.903 14.4224L116.533 3.08081L110.385 12.6323L112.908 14.256ZM107.02 22V25H108.433L109.333 23.9103L107.02 22ZM103.594 22.3867C103.893 20.0898 104.036 17.4373 104.036 14.448H98.0355C98.0355 17.2614 97.9006 19.6435 97.6445 21.6133L103.594 22.3867ZM104.036 14.448C104.036 11.3939 103.835 8.43686 103.43 5.57901L97.4892 6.42099C97.8521 8.9818 98.0355 11.6567 98.0355 14.448H104.036ZM100.46 9H108.908V3H100.46V9ZM105.912 6.16641C105.928 6.44737 105.94 7.37249 105.94 9.072H111.94C111.94 7.44351 111.93 6.32063 111.903 5.83359L105.912 6.16641ZM105.94 9.072C105.94 10.5362 105.768 12.5889 105.392 15.2814L111.335 16.1106C111.727 13.2991 111.94 10.9358 111.94 9.072H105.94ZM110.386 17.9121C112.303 16.162 113.996 14.1195 115.47 11.8026L110.409 8.58137C109.195 10.4885 107.837 12.1153 106.341 13.4799L110.386 17.9121ZM115.939 10.1436C115.915 8.67855 115.786 7.15294 115.556 5.56971L109.619 6.43029C109.816 7.79106 109.921 9.06011 109.94 10.2404L115.939 10.1436ZM112.588 9H120.876V3H112.588V9ZM117.877 6.09994C117.92 7.37257 117.94 8.29185 117.94 8.88H123.94C123.94 8.18815 123.917 7.18743 123.874 5.90006L117.877 6.09994ZM117.94 8.88C117.94 12.8236 117.553 17.022 116.769 21.4802L122.678 22.5198C123.515 17.762 123.94 13.2137 123.94 8.88H117.94ZM119.724 19H112.076V25H119.724V19ZM115.043 22.4429C115.48 19.5143 115.769 16.8386 115.903 14.4224L109.912 14.0896C109.79 16.2814 109.525 18.7684 109.108 21.5571L115.043 22.4429ZM110.385 12.6323C109.289 14.335 107.418 16.8063 104.706 20.0897L109.333 23.9103C112.083 20.5803 114.137 17.889 115.43 15.8797L110.385 12.6323ZM107.02 19H100.62V25H107.02V19Z" fill="black" mask="url(#path-1-outside-1_132_225)"/>
</svg>
