<svg width="25" height="25" viewBox="0 0 25 25" fill="none" xmlns="http://www.w3.org/2000/svg">
<path d="M19.7624 24.459C19.6667 24.459 19.5706 24.4406 19.4792 24.4034L12.5 21.5473L5.52084 24.4034C5.2807 24.5016 5.007 24.4683 4.79719 24.3156C4.58738 24.1629 4.47141 23.9122 4.49049 23.6533L5.04476 16.1202L0.177207 10.3521C0.00974149 10.1538 -0.0434736 9.88258 0.0366351 9.63548C0.116744 9.38838 0.318923 9.20033 0.570693 9.13841L7.89244 7.33874L11.8632 0.917892C11.9999 0.696971 12.2406 0.562622 12.5 0.562622C12.7594 0.562622 13.0003 0.696971 13.1369 0.917892L17.1076 7.33874L24.4293 9.13841C24.6813 9.20033 24.8833 9.38838 24.9634 9.63548C25.0435 9.88277 24.9903 10.1538 24.8228 10.3521L19.9553 16.1202L20.5096 23.6533C20.5286 23.9124 20.4127 24.1629 20.2027 24.3156C20.0728 24.4102 19.9183 24.459 19.7624 24.459Z" fill="#FFCA05"/>
<path d="M24.4293 9.13841L17.1076 7.33874L13.1369 0.917892C13.0003 0.696971 12.7594 0.562622 12.5 0.562622H12.4998V21.5474L12.5 21.5472L19.4792 24.4034C19.5706 24.4406 19.6667 24.459 19.7622 24.459C19.9183 24.459 20.0728 24.4102 20.2026 24.3156C20.4125 24.1629 20.5286 23.9122 20.5095 23.6533L19.9553 16.1202L24.8228 10.3521C24.9903 10.1536 25.0435 9.88258 24.9634 9.63548C24.8833 9.38838 24.6813 9.20033 24.4293 9.13841Z" fill="#EC801C"/>
</svg>
