<svg width="162" height="17" viewBox="0 0 162 17" fill="none" xmlns="http://www.w3.org/2000/svg">
<mask id="path-1-outside-1_235_420" maskUnits="userSpaceOnUse" x="-3" y="-8" width="168" height="28" fill="black">
<rect fill="white" x="-3" y="-8" width="168" height="28"/>
<path d="M17.24 0.775999H18.296C19.6613 0.775999 20.6747 0.615999 21.336 0.296C20.3973 1.68267 19.4907 2.888 18.616 3.912H18.104C17.016 3.912 15.96 3.74133 14.936 3.4C13.4853 4.59467 12.3227 6.184 11.448 8.168C13.7093 8.744 16.2267 9.08533 19 9.192C19.64 10.8133 20.0773 13.416 20.312 17H12.024C11.6613 15.4213 11.1067 13.9707 10.36 12.648C9.63467 11.304 8.87733 10.3867 8.088 9.896C7.93867 11.6453 7.864 13.0533 7.864 14.12C7.864 15.1867 7.896 16.1467 7.96 17H0.92C0.514667 13.864 0.312 11.2187 0.312 9.064C0.312 6.888 0.472 4.2 0.792 1H9.688C9.048 3.64533 8.61067 5.864 8.376 7.656C9.336 6.07733 10.3387 4.75467 11.384 3.688C12.4507 2.6 13.7093 1.68267 15.16 0.935999C15.7147 0.829332 16.408 0.775999 17.24 0.775999ZM43.705 16.744V17H36.281C36.1957 15.784 36.0143 14.5253 35.737 13.224C34.4143 14.568 32.921 15.8267 31.257 17H23.801C23.6517 16.1253 23.577 14.9733 23.577 13.544C23.577 12.0933 23.7903 10.6427 24.217 9.192C25.753 8.744 27.225 7.98667 28.633 6.92C30.0623 5.85333 31.097 4.70133 31.737 3.464C31.161 2.568 30.553 1.74667 29.913 1H40.537C42.649 5.58667 43.705 10.8347 43.705 16.744ZM35.161 10.888C34.6063 8.98933 33.881 7.19733 32.985 5.512C31.9823 8.456 31.4063 11.24 31.257 13.864C32.793 13.0747 34.0943 12.0827 35.161 10.888ZM55.9163 14.888C57.3883 14.888 58.5829 14.7707 59.5003 14.536C59.2016 12.3387 58.1136 10.4933 56.2363 9C56.0229 10.8987 55.9163 12.8613 55.9163 14.888ZM47.8523 7.272C47.8523 5.096 48.0549 3.00533 48.4603 1H67.6283C67.3296 2.49333 66.9883 3.784 66.6043 4.872C66.0923 4.89333 65.3456 4.91467 64.3643 4.936C63.4043 4.95733 62.6683 4.97867 62.1562 5C62.3909 4.27467 62.5189 3.63467 62.5403 3.08C60.3429 3.08 58.5403 3.144 57.1323 3.272C56.9616 4.04 56.7483 5.21333 56.4923 6.792C60.8443 7.32533 64.2149 8.38133 66.6043 9.96C66.3483 12.6693 65.8896 15.016 65.2283 17H49.1643C48.2896 13.928 47.8523 10.6853 47.8523 7.272ZM71.182 17C71.4593 14.8667 71.598 12.3493 71.598 9.448C71.598 6.52533 71.406 3.70933 71.022 1H79.47C79.4913 1.384 79.502 2.408 79.502 4.072C79.502 5.736 79.31 7.944 78.926 10.696C80.6327 9.13867 82.158 7.304 83.502 5.192C83.4807 3.86933 83.3633 2.472 83.15 1H91.438C91.4807 2.28 91.502 3.24 91.502 3.88C91.502 8.01867 91.0967 12.392 90.286 17H82.638C83.0647 14.1413 83.342 11.56 83.47 9.256C82.2753 11.112 80.3127 13.6933 77.582 17H71.182ZM115.931 3.656C115.931 7.83733 115.525 12.2853 114.715 17H107.067C107.408 14.4827 107.632 11.7733 107.739 8.872C106.629 8.18933 105.392 7.77333 104.027 7.624C103.899 10.76 103.557 13.8853 103.003 17H95.7385C96.0158 14.9093 96.1545 12.4133 96.1545 9.512C96.1545 6.58933 95.9625 3.752 95.5785 1H104.027C104.069 1.87467 104.091 3.176 104.091 4.904C105.328 5.288 106.555 5.81067 107.771 6.472C107.771 4.488 107.696 2.664 107.547 1H115.867C115.909 2.19467 115.931 3.08 115.931 3.656ZM130.53 7.432L133.538 7.624C133.837 7.624 134.061 7.61333 134.21 7.592L132.706 10.408H132.418C132.013 10.408 131.437 10.3013 130.69 10.088C129.943 9.85333 129.41 9.736 129.09 9.736C128.215 9.736 127.522 10.3013 127.01 11.432C126.925 12.4773 126.861 13.5227 126.818 14.568C127.927 14.7813 128.802 14.888 129.442 14.888H129.73C130.647 14.888 131.373 14.6853 131.906 14.28C132.461 13.8747 132.855 13.1493 133.09 12.104L136.93 12.264C136.61 14.0987 136.183 15.6773 135.65 17H119.938C119.511 14.12 119.298 11.2613 119.298 8.424C119.298 5.58667 119.447 3.112 119.746 1H136.898C136.514 3.304 136.173 4.92533 135.874 5.864C134.615 5.928 133.463 5.97067 132.418 5.992C132.589 5.50133 132.674 5.04267 132.674 4.616C132.674 3.592 131.906 3.08 130.37 3.08C129.794 3.08 129.154 3.144 128.45 3.272C127.981 5.29867 127.618 7.08 127.362 8.616C128.215 7.82667 129.271 7.432 130.53 7.432ZM153.823 3.08C153.268 6.45067 152.991 9.20267 152.991 11.336C152.991 13.4693 153.076 15.3573 153.247 17H146.271C145.545 13.608 145.183 9.96 145.183 6.056C145.183 5.39467 145.204 4.40267 145.247 3.08C143.433 3.61333 142.324 4.84 141.919 6.76L138.751 6.568L139.903 1H161.183C160.756 3.34667 160.265 5.26667 159.711 6.76L156.479 6.568C156.564 6.22667 156.607 5.88533 156.607 5.544C156.607 4.712 156.351 4.09333 155.839 3.688C155.327 3.28267 154.655 3.08 153.823 3.08Z"/>
</mask>
<path d="M17.24 0.775999H18.296C19.6613 0.775999 20.6747 0.615999 21.336 0.296C20.3973 1.68267 19.4907 2.888 18.616 3.912H18.104C17.016 3.912 15.96 3.74133 14.936 3.4C13.4853 4.59467 12.3227 6.184 11.448 8.168C13.7093 8.744 16.2267 9.08533 19 9.192C19.64 10.8133 20.0773 13.416 20.312 17H12.024C11.6613 15.4213 11.1067 13.9707 10.36 12.648C9.63467 11.304 8.87733 10.3867 8.088 9.896C7.93867 11.6453 7.864 13.0533 7.864 14.12C7.864 15.1867 7.896 16.1467 7.96 17H0.92C0.514667 13.864 0.312 11.2187 0.312 9.064C0.312 6.888 0.472 4.2 0.792 1H9.688C9.048 3.64533 8.61067 5.864 8.376 7.656C9.336 6.07733 10.3387 4.75467 11.384 3.688C12.4507 2.6 13.7093 1.68267 15.16 0.935999C15.7147 0.829332 16.408 0.775999 17.24 0.775999ZM43.705 16.744V17H36.281C36.1957 15.784 36.0143 14.5253 35.737 13.224C34.4143 14.568 32.921 15.8267 31.257 17H23.801C23.6517 16.1253 23.577 14.9733 23.577 13.544C23.577 12.0933 23.7903 10.6427 24.217 9.192C25.753 8.744 27.225 7.98667 28.633 6.92C30.0623 5.85333 31.097 4.70133 31.737 3.464C31.161 2.568 30.553 1.74667 29.913 1H40.537C42.649 5.58667 43.705 10.8347 43.705 16.744ZM35.161 10.888C34.6063 8.98933 33.881 7.19733 32.985 5.512C31.9823 8.456 31.4063 11.24 31.257 13.864C32.793 13.0747 34.0943 12.0827 35.161 10.888ZM55.9163 14.888C57.3883 14.888 58.5829 14.7707 59.5003 14.536C59.2016 12.3387 58.1136 10.4933 56.2363 9C56.0229 10.8987 55.9163 12.8613 55.9163 14.888ZM47.8523 7.272C47.8523 5.096 48.0549 3.00533 48.4603 1H67.6283C67.3296 2.49333 66.9883 3.784 66.6043 4.872C66.0923 4.89333 65.3456 4.91467 64.3643 4.936C63.4043 4.95733 62.6683 4.97867 62.1562 5C62.3909 4.27467 62.5189 3.63467 62.5403 3.08C60.3429 3.08 58.5403 3.144 57.1323 3.272C56.9616 4.04 56.7483 5.21333 56.4923 6.792C60.8443 7.32533 64.2149 8.38133 66.6043 9.96C66.3483 12.6693 65.8896 15.016 65.2283 17H49.1643C48.2896 13.928 47.8523 10.6853 47.8523 7.272ZM71.182 17C71.4593 14.8667 71.598 12.3493 71.598 9.448C71.598 6.52533 71.406 3.70933 71.022 1H79.47C79.4913 1.384 79.502 2.408 79.502 4.072C79.502 5.736 79.31 7.944 78.926 10.696C80.6327 9.13867 82.158 7.304 83.502 5.192C83.4807 3.86933 83.3633 2.472 83.15 1H91.438C91.4807 2.28 91.502 3.24 91.502 3.88C91.502 8.01867 91.0967 12.392 90.286 17H82.638C83.0647 14.1413 83.342 11.56 83.47 9.256C82.2753 11.112 80.3127 13.6933 77.582 17H71.182ZM115.931 3.656C115.931 7.83733 115.525 12.2853 114.715 17H107.067C107.408 14.4827 107.632 11.7733 107.739 8.872C106.629 8.18933 105.392 7.77333 104.027 7.624C103.899 10.76 103.557 13.8853 103.003 17H95.7385C96.0158 14.9093 96.1545 12.4133 96.1545 9.512C96.1545 6.58933 95.9625 3.752 95.5785 1H104.027C104.069 1.87467 104.091 3.176 104.091 4.904C105.328 5.288 106.555 5.81067 107.771 6.472C107.771 4.488 107.696 2.664 107.547 1H115.867C115.909 2.19467 115.931 3.08 115.931 3.656ZM130.53 7.432L133.538 7.624C133.837 7.624 134.061 7.61333 134.21 7.592L132.706 10.408H132.418C132.013 10.408 131.437 10.3013 130.69 10.088C129.943 9.85333 129.41 9.736 129.09 9.736C128.215 9.736 127.522 10.3013 127.01 11.432C126.925 12.4773 126.861 13.5227 126.818 14.568C127.927 14.7813 128.802 14.888 129.442 14.888H129.73C130.647 14.888 131.373 14.6853 131.906 14.28C132.461 13.8747 132.855 13.1493 133.09 12.104L136.93 12.264C136.61 14.0987 136.183 15.6773 135.65 17H119.938C119.511 14.12 119.298 11.2613 119.298 8.424C119.298 5.58667 119.447 3.112 119.746 1H136.898C136.514 3.304 136.173 4.92533 135.874 5.864C134.615 5.928 133.463 5.97067 132.418 5.992C132.589 5.50133 132.674 5.04267 132.674 4.616C132.674 3.592 131.906 3.08 130.37 3.08C129.794 3.08 129.154 3.144 128.45 3.272C127.981 5.29867 127.618 7.08 127.362 8.616C128.215 7.82667 129.271 7.432 130.53 7.432ZM153.823 3.08C153.268 6.45067 152.991 9.20267 152.991 11.336C152.991 13.4693 153.076 15.3573 153.247 17H146.271C145.545 13.608 145.183 9.96 145.183 6.056C145.183 5.39467 145.204 4.40267 145.247 3.08C143.433 3.61333 142.324 4.84 141.919 6.76L138.751 6.568L139.903 1H161.183C160.756 3.34667 160.265 5.26667 159.711 6.76L156.479 6.568C156.564 6.22667 156.607 5.88533 156.607 5.544C156.607 4.712 156.351 4.09333 155.839 3.688C155.327 3.28267 154.655 3.08 153.823 3.08Z" fill="white"/>
<path d="M21.336 0.296L23.8203 1.9777L30.0782 -7.26682L20.0293 -2.40448L21.336 0.296ZM18.616 3.912V6.912H19.9989L20.8971 5.86046L18.616 3.912ZM14.936 3.4L15.8847 0.55395L14.3101 0.0290875L13.0289 1.08421L14.936 3.4ZM11.448 8.168L8.70293 6.95781L7.27338 10.2004L10.7075 11.0752L11.448 8.168ZM19 9.192L21.7905 8.0905L21.0716 6.26946L19.1153 6.19422L19 9.192ZM20.312 17V20H23.5149L23.3056 16.804L20.312 17ZM12.024 17L9.10016 17.6717L9.63504 20H12.024V17ZM10.36 12.648L7.71993 14.0728L7.73349 14.0979L7.74753 14.1228L10.36 12.648ZM8.088 9.896L9.6718 7.34814L5.51516 4.76429L5.09887 9.64083L8.088 9.896ZM7.96 17V20H11.1934L10.9516 16.7756L7.96 17ZM0.92 17L-2.05525 17.3846L-1.7172 20H0.92V17ZM0.792 1V-2H-1.92296L-2.19311 0.701489L0.792 1ZM9.688 1L12.6039 1.70545L13.5004 -2H9.688V1ZM8.376 7.656L5.4014 7.26647L10.9393 9.21474L8.376 7.656ZM11.384 3.688L9.24178 1.58779L9.24136 1.58821L11.384 3.688ZM15.16 0.935999L14.5935 -2.01002L14.1703 -1.92863L13.7871 -1.73141L15.16 0.935999ZM17.24 3.776H18.296V-2.224H17.24V3.776ZM18.296 3.776C19.7898 3.776 21.3583 3.61794 22.6427 2.99648L20.0293 -2.40448C20.0456 -2.41235 19.9337 -2.35807 19.6121 -2.30729C19.3012 -2.2582 18.8698 -2.224 18.296 -2.224V3.776ZM18.8517 -1.3857C17.9613 -0.0704294 17.1219 1.0421 16.3349 1.96354L20.8971 5.86046C21.8594 4.7339 22.8333 3.43576 23.8203 1.9777L18.8517 -1.3857ZM18.616 0.912H18.104V6.912H18.616V0.912ZM18.104 0.912C17.3358 0.912 16.6003 0.792492 15.8847 0.55395L13.9873 6.24605C15.3197 6.69017 16.6962 6.912 18.104 6.912V0.912ZM13.0289 1.08421C11.1644 2.61964 9.73755 4.61097 8.70293 6.95781L14.1931 9.37819C14.9078 7.75703 15.8062 6.5697 16.8431 5.71579L13.0289 1.08421ZM10.7075 11.0752C13.2076 11.712 15.9388 12.0765 18.8847 12.1898L19.1153 6.19422C16.5146 6.09419 14.2111 5.77601 12.1885 5.26083L10.7075 11.0752ZM16.2095 10.2935C16.6687 11.4567 17.0873 13.6658 17.3184 17.196L23.3056 16.804C23.0674 13.1662 22.6113 10.17 21.7905 8.0905L16.2095 10.2935ZM20.312 14H12.024V20H20.312V14ZM14.9478 16.3283C14.5248 14.487 13.8701 12.7634 12.9725 11.1732L7.74753 14.1228C8.3432 15.178 8.79783 16.3556 9.10016 17.6717L14.9478 16.3283ZM13.0001 11.2232C12.1688 9.68299 11.1044 8.23869 9.6718 7.34814L6.5042 12.4439C6.65024 12.5346 7.10049 12.925 7.71993 14.0728L13.0001 11.2232ZM5.09887 9.64083C4.94627 11.4285 4.864 12.9316 4.864 14.12H10.864C10.864 13.1751 10.9311 11.8622 11.0771 10.1512L5.09887 9.64083ZM4.864 14.12C4.864 15.2442 4.89764 16.2809 4.9684 17.2244L10.9516 16.7756C10.8944 16.0125 10.864 15.1291 10.864 14.12H4.864ZM7.96 14H0.92V20H7.96V14ZM3.89525 16.6154C3.49954 13.5539 3.312 11.0458 3.312 9.064H-2.688C-2.688 11.3915 -2.47021 14.1741 -2.05525 17.3846L3.89525 16.6154ZM3.312 9.064C3.312 7.0225 3.46283 4.44135 3.77711 1.29851L-2.19311 0.701489C-2.51883 3.95865 -2.688 6.7535 -2.688 9.064H3.312ZM0.792 4H9.688V-2H0.792V4ZM6.77212 0.294546C6.11815 2.99765 5.65504 5.32952 5.4014 7.26647L11.3506 8.04553C11.5663 6.39848 11.9779 4.29301 12.6039 1.70545L6.77212 0.294546ZM10.9393 9.21474C11.807 7.78775 12.6742 6.65758 13.5266 5.78779L9.24136 1.58821C8.00309 2.85175 6.86497 4.36691 5.81274 6.09726L10.9393 9.21474ZM13.5262 5.78821C14.353 4.94486 15.3471 4.21374 16.5329 3.60341L13.7871 -1.73141C12.0715 -0.848408 10.5483 0.255135 9.24178 1.58779L13.5262 5.78821ZM15.7265 3.88202C16.0295 3.82376 16.5179 3.776 17.24 3.776V-2.224C16.2981 -2.224 15.3999 -2.1651 14.5935 -2.01002L15.7265 3.88202ZM43.705 17V20H46.705V17H43.705ZM36.281 17L33.2884 17.21L33.4841 20H36.281V17ZM35.737 13.224L38.6711 12.5987L37.5091 7.1463L33.5988 11.1197L35.737 13.224ZM31.257 17V20H32.2083L32.9858 19.4518L31.257 17ZM23.801 17L20.8438 17.5049L21.2698 20H23.801V17ZM24.217 9.192L23.377 6.312L21.8019 6.77141L21.3389 8.3455L24.217 9.192ZM28.633 6.92L26.8387 4.5157L26.8301 4.52218L26.8214 4.52872L28.633 6.92ZM31.737 3.464L34.4017 4.84227L35.1988 3.30119L34.2605 1.84173L31.737 3.464ZM29.913 1V-2H23.3903L27.6352 2.95238L29.913 1ZM40.537 1L43.262 -0.254763L42.4584 -2H40.537V1ZM35.161 10.888L37.3988 12.886L38.5074 11.6445L38.0406 10.0468L35.161 10.888ZM32.985 5.512L35.6339 4.10372L32.3799 -2.01684L30.1452 4.54482L32.985 5.512ZM31.257 13.864L28.2618 13.6935L27.9639 18.9292L32.6282 16.5323L31.257 13.864ZM40.705 16.744V17H46.705V16.744H40.705ZM43.705 14H36.281V20H43.705V14ZM39.2736 16.79C39.1777 15.4224 38.975 14.0246 38.6711 12.5987L32.8029 13.8493C33.0537 15.026 33.2137 16.1456 33.2884 17.21L39.2736 16.79ZM33.5988 11.1197C32.4114 12.3262 31.0571 13.4701 29.5282 14.5482L32.9858 19.4518C34.7849 18.1832 36.4172 16.8098 37.8752 15.3283L33.5988 11.1197ZM31.257 14H23.801V20H31.257V14ZM26.7582 16.4951C26.6492 15.8565 26.577 14.893 26.577 13.544H20.577C20.577 15.0536 20.6542 16.3942 20.8438 17.5049L26.7582 16.4951ZM26.577 13.544C26.577 12.3918 26.7458 11.226 27.0951 10.0385L21.3389 8.3455C20.8348 10.0594 20.577 11.7948 20.577 13.544H26.577ZM25.057 12.072C26.9786 11.5115 28.7755 10.5758 30.4446 9.31128L26.8214 4.52872C25.6745 5.39758 24.5274 5.97647 23.377 6.312L25.057 12.072ZM30.4273 9.3243C32.122 8.0596 33.5029 6.57984 34.4017 4.84227L29.0723 2.08573C28.6911 2.82283 28.0027 3.64707 26.8387 4.5157L30.4273 9.3243ZM34.2605 1.84173C33.6163 0.839635 32.9272 -0.0932446 32.1908 -0.952375L27.6352 2.95238C28.1788 3.58658 28.7057 4.29636 29.2135 5.08627L34.2605 1.84173ZM29.913 4H40.537V-2H29.913V4ZM37.812 2.25476C39.7145 6.3865 40.705 11.1947 40.705 16.744H46.705C46.705 10.4746 45.5835 4.78684 43.262 -0.254763L37.812 2.25476ZM38.0406 10.0468C37.4307 7.95883 36.6294 5.97614 35.6339 4.10372L30.3361 6.92028C31.1326 8.41853 31.782 10.0198 32.2814 11.7292L38.0406 10.0468ZM30.1452 4.54482C29.0704 7.70048 28.4291 10.7539 28.2618 13.6935L34.2522 14.0345C34.3835 11.7261 34.8942 9.21152 35.8248 6.47918L30.1452 4.54482ZM32.6282 16.5323C34.466 15.5879 36.0683 14.3763 37.3988 12.886L32.9232 8.88995C32.1204 9.78908 31.12 10.5614 29.8858 11.1957L32.6282 16.5323ZM55.9163 14.888H52.9163V17.888H55.9163V14.888ZM59.5003 14.536L60.2438 17.4424L62.8329 16.7801L62.4729 14.1319L59.5003 14.536ZM56.2363 9L58.1038 6.6522L53.8604 3.27677L53.255 8.66503L56.2363 9ZM48.4603 1V-2H46.006L45.5197 0.405637L48.4603 1ZM67.6283 1L70.57 1.58835L71.2877 -2H67.6283V1ZM66.6043 4.872L66.7291 7.8694L68.7575 7.78488L69.4332 5.87046L66.6043 4.872ZM64.3643 4.936L64.299 1.93671L64.2976 1.93674L64.3643 4.936ZM62.1562 5L59.3019 4.07653L57.9754 8.1768L62.2811 7.9974L62.1562 5ZM62.5403 3.08L65.538 3.1953L65.6579 0.079999H62.5403V3.08ZM57.1323 3.272L56.8606 0.28432L54.6789 0.482658L54.2037 2.62121L57.1323 3.272ZM56.4923 6.792L53.5309 6.31179L53.0317 9.39036L56.1273 9.76972L56.4923 6.792ZM66.6043 9.96L69.5909 10.2422L69.7603 8.44959L68.258 7.45699L66.6043 9.96ZM65.2283 17V20H67.3905L68.0743 17.9487L65.2283 17ZM49.1643 17L46.2789 17.8215L46.8992 20H49.1643V17ZM55.9163 17.888C57.5169 17.888 58.9884 17.7636 60.2438 17.4424L58.7568 11.6296C58.1775 11.7778 57.2596 11.888 55.9163 11.888V17.888ZM62.4729 14.1319C62.0611 11.1025 60.532 8.58369 58.1038 6.6522L54.3687 11.3478C55.6952 12.403 56.342 13.5749 56.5276 14.9401L62.4729 14.1319ZM53.255 8.66503C53.0285 10.6814 52.9163 12.7561 52.9163 14.888H58.9163C58.9163 12.9665 59.0174 11.1159 59.2175 9.33497L53.255 8.66503ZM50.8523 7.272C50.8523 5.28302 51.0374 3.39208 51.4008 1.59436L45.5197 0.405637C45.0724 2.61858 44.8523 4.90898 44.8523 7.272H50.8523ZM48.4603 4H67.6283V-2H48.4603V4ZM64.6865 0.411652C64.4074 1.80698 64.0999 2.95391 63.7753 3.87354L69.4332 5.87046C69.8766 4.61409 70.2517 3.17969 70.57 1.58835L64.6865 0.411652ZM66.4794 1.8746C65.9978 1.89467 65.2749 1.91549 64.299 1.93671L64.4295 7.93529C65.4162 7.91384 66.1867 7.892 66.7291 7.8694L66.4794 1.8746ZM64.2976 1.93674C63.3318 1.9582 62.5728 1.98004 62.0314 2.0026L62.2811 7.9974C62.7637 7.97729 63.4767 7.95646 64.4309 7.93526L64.2976 1.93674ZM65.0106 5.92346C65.3007 5.0266 65.503 4.10541 65.538 3.1953L59.5425 2.9647C59.5348 3.16393 59.4811 3.52273 59.3019 4.07653L65.0106 5.92346ZM62.5403 0.079999C60.2959 0.079999 58.3939 0.144929 56.8606 0.28432L57.4039 6.25968C58.6866 6.14307 60.3899 6.08 62.5403 6.08V0.079999ZM54.2037 2.62121C54.0134 3.4777 53.7888 4.72155 53.5309 6.31179L59.4536 7.27221C59.7077 5.70512 59.9098 4.60229 60.0608 3.92279L54.2037 2.62121ZM56.1273 9.76972C60.2409 10.2738 63.0995 11.24 64.9505 12.463L68.258 7.45699C65.3303 5.52262 61.4476 4.37684 56.8572 3.81428L56.1273 9.76972ZM63.6176 9.67779C63.3769 12.2242 62.9537 14.3368 62.3822 16.0513L68.0743 17.9487C68.8255 15.6952 69.3196 13.1144 69.5909 10.2422L63.6176 9.67779ZM65.2283 14H49.1643V20H65.2283V14ZM52.0496 16.1785C51.256 13.3914 50.8523 10.4265 50.8523 7.272H44.8523C44.8523 10.9441 45.3231 14.4646 46.2789 17.8215L52.0496 16.1785ZM71.182 17L68.207 16.6133L67.7668 20H71.182V17ZM71.022 1V-2H67.5668L68.0517 1.42099L71.022 1ZM79.47 1L82.4654 0.833587L82.308 -2H79.47V1ZM78.926 10.696L75.9548 10.2814L74.8056 18.5171L80.9482 12.9121L78.926 10.696ZM83.502 5.192L86.033 6.80263L86.5161 6.04341L86.5016 5.14362L83.502 5.192ZM83.15 1V-2H79.6839L80.181 1.43029L83.15 1ZM91.438 1L94.4363 0.900057L94.3397 -2H91.438V1ZM90.286 17V20H92.8043L93.2406 17.5198L90.286 17ZM82.638 17L79.6709 16.5571L79.157 20H82.638V17ZM83.47 9.256L86.4654 9.42241L87.0955 -1.91919L80.9474 7.63226L83.47 9.256ZM77.582 17V20H78.9953L79.8952 18.9103L77.582 17ZM74.157 17.3867C74.4556 15.0898 74.598 12.4373 74.598 9.448H68.598C68.598 12.2614 68.4631 14.6435 68.207 16.6133L74.157 17.3867ZM74.598 9.448C74.598 6.39394 74.3974 3.43686 73.9923 0.57901L68.0517 1.42099C68.4146 3.9818 68.598 6.65673 68.598 9.448H74.598ZM71.022 4H79.47V-2H71.022V4ZM76.4746 1.16641C76.4902 1.44737 76.502 2.37249 76.502 4.072H82.502C82.502 2.44351 82.4924 1.32063 82.4654 0.833587L76.4746 1.16641ZM76.502 4.072C76.502 5.53623 76.3305 7.58893 75.9548 10.2814L81.8972 11.1106C82.2895 8.29907 82.502 5.93577 82.502 4.072H76.502ZM80.9482 12.9121C82.866 11.162 84.5586 9.1195 86.033 6.80263L80.971 3.58137C79.7574 5.4885 78.3994 7.11529 76.9038 8.47994L80.9482 12.9121ZM86.5016 5.14362C86.478 3.67855 86.3484 2.15294 86.119 0.569713L80.181 1.43029C80.3782 2.79106 80.4834 4.06011 80.5024 5.24038L86.5016 5.14362ZM83.15 4H91.438V-2H83.15V4ZM88.4397 1.09994C88.4821 2.37257 88.502 3.29185 88.502 3.88H94.502C94.502 3.18815 94.4792 2.18743 94.4363 0.900057L88.4397 1.09994ZM88.502 3.88C88.502 7.8236 88.1157 12.022 87.3314 16.4802L93.2406 17.5198C94.0777 12.762 94.502 8.21373 94.502 3.88H88.502ZM90.286 14H82.638V20H90.286V14ZM85.6051 17.4429C86.0422 14.5143 86.3312 11.8386 86.4654 9.42241L80.4746 9.08959C80.3529 11.2814 80.0871 13.7684 79.6709 16.5571L85.6051 17.4429ZM80.9474 7.63226C79.8514 9.335 77.9803 11.8063 75.2688 15.0897L79.8952 18.9103C82.6451 15.5803 84.6993 12.889 85.9926 10.8797L80.9474 7.63226ZM77.582 14H71.182V20H77.582V14ZM114.715 17V20H117.243L117.671 17.5084L114.715 17ZM107.067 17L104.094 16.5969L103.632 20H107.067V17ZM107.739 8.872L110.736 8.98222L110.801 7.23392L109.311 6.31703L107.739 8.872ZM104.027 7.624L104.353 4.64178L101.16 4.29258L101.029 7.50165L104.027 7.624ZM103.003 17V20H105.515L105.956 17.526L103.003 17ZM95.7385 17L92.7646 16.6055L92.3143 20H95.7385V17ZM95.5785 1V-2H92.1308L92.6073 1.41459L95.5785 1ZM104.027 1L107.023 0.853832L106.884 -2H104.027V1ZM104.091 4.904H101.091V7.11411L103.201 7.76919L104.091 4.904ZM107.771 6.472L106.337 9.10745L110.771 11.5186V6.472H107.771ZM107.547 1V-2H104.265L104.559 1.26815L107.547 1ZM115.867 1L118.865 0.892924L118.761 -2H115.867V1ZM112.931 3.656C112.931 7.6447 112.544 11.9214 111.758 16.4916L117.671 17.5084C118.507 12.6492 118.931 8.02997 118.931 3.656H112.931ZM114.715 14H107.067V20H114.715V14ZM110.039 17.4031C110.396 14.7761 110.627 11.968 110.736 8.98222L104.741 8.76178C104.637 11.5787 104.42 14.1893 104.094 16.5969L110.039 17.4031ZM109.311 6.31703C107.802 5.38874 106.135 4.83676 104.353 4.64178L103.7 10.6062C104.648 10.7099 105.456 10.9899 106.166 11.427L109.311 6.31703ZM101.029 7.50165C100.907 10.5012 100.58 13.4917 100.049 16.474L105.956 17.526C106.534 14.279 106.89 11.0188 107.024 7.74635L101.029 7.50165ZM103.003 14H95.7385V20H103.003V14ZM98.7124 17.3945C99.0122 15.1348 99.1545 12.5001 99.1545 9.512H93.1545C93.1545 12.3266 93.0195 14.6838 92.7646 16.6055L98.7124 17.3945ZM99.1545 9.512C99.1545 6.45776 98.9538 3.48165 98.5497 0.585412L92.6073 1.41459C92.9712 4.02235 93.1545 6.72091 93.1545 9.512H99.1545ZM95.5785 4H104.027V-2H95.5785V4ZM101.03 1.14617C101.069 1.94548 101.091 3.18759 101.091 4.904H107.091C107.091 3.16441 107.069 1.80385 107.023 0.853832L101.03 1.14617ZM103.201 7.76919C104.238 8.09086 105.283 8.53402 106.337 9.10745L109.204 3.83655C107.826 3.08731 106.418 2.48514 104.98 2.03881L103.201 7.76919ZM110.771 6.472C110.771 4.41451 110.693 2.49966 110.534 0.731846L104.559 1.26815C104.699 2.82834 104.771 4.56149 104.771 6.472H110.771ZM107.547 4H115.867V-2H107.547V4ZM112.868 1.10708C112.911 2.29538 112.931 3.13631 112.931 3.656H118.931C118.931 3.02369 118.907 2.09395 118.865 0.892924L112.868 1.10708ZM130.53 7.432L130.721 4.43809L130.626 4.432H130.53V7.432ZM133.538 7.624L133.347 10.6179L133.442 10.624H133.538V7.624ZM134.21 7.592L136.856 9.00533L139.644 3.78524L133.786 4.62215L134.21 7.592ZM132.706 10.408V13.408H134.505L135.352 11.8213L132.706 10.408ZM130.69 10.088L129.791 12.95L129.828 12.9618L129.866 12.9726L130.69 10.088ZM127.01 11.432L124.277 10.1945L124.062 10.6689L124.02 11.1879L127.01 11.432ZM126.818 14.568L123.82 14.4457L123.715 17.0263L126.251 17.514L126.818 14.568ZM131.906 14.28L130.136 11.8578L130.113 11.8745L130.091 11.8915L131.906 14.28ZM133.09 12.104L133.215 9.1066L130.712 9.0023L130.163 11.4469L133.09 12.104ZM136.93 12.264L139.885 12.7795L140.473 9.40903L137.055 9.2666L136.93 12.264ZM135.65 17V20H137.675L138.432 18.1219L135.65 17ZM119.938 17L116.97 17.4396L117.35 20H119.938V17ZM119.746 1V-2H117.14L116.776 0.579937L119.746 1ZM136.898 1L139.857 1.4932L140.439 -2H136.898V1ZM135.874 5.864L136.026 8.86013L138.102 8.75456L138.733 6.77361L135.874 5.864ZM132.418 5.992L129.585 5.00644L128.168 9.07936L132.479 8.99138L132.418 5.992ZM128.45 3.272L127.913 0.32039L125.972 0.673287L125.527 2.59517L128.45 3.272ZM127.362 8.616L124.403 8.1228L122.961 16.7735L129.399 10.8183L127.362 8.616ZM130.339 10.4259L133.347 10.6179L133.729 4.63009L130.721 4.43809L130.339 10.4259ZM133.538 10.624C133.87 10.624 134.267 10.6143 134.634 10.5618L133.786 4.62215C133.816 4.61788 133.831 4.61668 133.828 4.61696C133.825 4.61717 133.813 4.61819 133.787 4.6194C133.735 4.62187 133.654 4.624 133.538 4.624V10.624ZM131.564 6.17867L130.06 8.99467L135.352 11.8213L136.856 9.00533L131.564 6.17867ZM132.706 7.408H132.418V13.408H132.706V7.408ZM132.418 7.408C132.46 7.408 132.408 7.41146 132.228 7.37815C132.058 7.34668 131.823 7.29179 131.514 7.20343L129.866 12.9726C130.683 13.2061 131.584 13.408 132.418 13.408V7.408ZM131.589 7.22602C130.852 6.99417 129.921 6.736 129.09 6.736V12.736C128.996 12.736 128.947 12.7281 128.961 12.73C128.971 12.7314 129.011 12.7375 129.085 12.7539C129.238 12.7876 129.469 12.8488 129.791 12.95L131.589 7.22602ZM129.09 6.736C126.555 6.736 125.038 8.51369 124.277 10.1945L129.743 12.6695C129.877 12.3723 129.934 12.3839 129.81 12.4851C129.74 12.5421 129.631 12.6117 129.486 12.6642C129.339 12.7169 129.201 12.736 129.09 12.736V6.736ZM124.02 11.1879C123.931 12.2737 123.865 13.3596 123.82 14.4457L129.816 14.6903C129.857 13.6857 129.918 12.681 130 11.6761L124.02 11.1879ZM126.251 17.514C127.429 17.7405 128.521 17.888 129.442 17.888V11.888C129.083 11.888 128.426 11.8222 127.385 11.622L126.251 17.514ZM129.442 17.888H129.73V11.888H129.442V17.888ZM129.73 17.888C131.064 17.888 132.503 17.5941 133.721 16.6685L130.091 11.8915C130.161 11.8384 130.198 11.8346 130.155 11.8467C130.105 11.8606 129.973 11.888 129.73 11.888V17.888ZM133.676 16.7022C135.069 15.6842 135.708 14.137 136.017 12.7611L130.163 11.4469C130.089 11.7742 130.015 11.9396 129.983 11.9982C129.955 12.049 129.99 11.9641 130.136 11.8578L133.676 16.7022ZM132.965 15.1014L136.805 15.2614L137.055 9.2666L133.215 9.1066L132.965 15.1014ZM133.975 11.7485C133.681 13.4348 133.302 14.7998 132.868 15.8781L138.432 18.1219C139.064 16.5549 139.539 14.7626 139.885 12.7795L133.975 11.7485ZM135.65 14H119.938V20H135.65V14ZM122.906 16.5604C122.5 13.8221 122.298 11.1104 122.298 8.424H116.298C116.298 11.4123 116.523 14.4179 116.97 17.4396L122.906 16.5604ZM122.298 8.424C122.298 5.6844 122.443 3.35613 122.716 1.42006L116.776 0.579937C116.452 2.86787 116.298 5.48893 116.298 8.424H122.298ZM119.746 4H136.898V-2H119.746V4ZM133.939 0.506803C133.555 2.8083 133.242 4.24055 133.015 4.95439L138.733 6.77361C139.103 5.61011 139.473 3.7997 139.857 1.4932L133.939 0.506803ZM135.722 2.86787C134.487 2.93063 133.366 2.97202 132.357 2.99262L132.479 8.99138C133.56 8.96931 134.743 8.92537 136.026 8.86013L135.722 2.86787ZM135.251 6.97756C135.509 6.23662 135.674 5.44212 135.674 4.616H129.674C129.674 4.64321 129.668 4.76605 129.585 5.00644L135.251 6.97756ZM135.674 4.616C135.674 3.23008 135.083 1.84826 133.762 0.967848C132.656 0.230553 131.377 0.079999 130.37 0.079999V6.08C130.597 6.08 130.706 6.09978 130.727 6.10456C130.75 6.10959 130.623 6.08598 130.434 5.96015C130.225 5.82097 130.002 5.59548 129.847 5.28564C129.698 4.98822 129.674 4.7368 129.674 4.616H135.674ZM130.37 0.079999C129.577 0.079999 128.754 0.167572 127.913 0.32039L128.987 6.22361C129.554 6.12043 130.011 6.08 130.37 6.08V0.079999ZM125.527 2.59517C125.048 4.66389 124.672 6.50878 124.403 8.1228L130.321 9.1092C130.564 7.65122 130.913 5.93344 131.373 3.94882L125.527 2.59517ZM129.399 10.8183C129.65 10.5863 129.958 10.432 130.53 10.432V4.432C128.584 4.432 126.781 5.06703 125.325 6.4137L129.399 10.8183ZM153.823 3.08V0.079999H151.276L150.863 2.59288L153.823 3.08ZM153.247 17V20H156.575L156.231 16.69L153.247 17ZM146.271 17L143.337 17.6273L143.844 20H146.271V17ZM145.247 3.08L148.245 3.17672L148.379 -0.968289L144.4 0.201902L145.247 3.08ZM141.919 6.76L141.737 9.7545L144.32 9.91101L144.854 7.37967L141.919 6.76ZM138.751 6.568L135.813 5.96018L135.111 9.35292L138.569 9.56251L138.751 6.568ZM139.903 1V-2H137.46L136.965 0.392183L139.903 1ZM161.183 1L164.134 1.53666L164.777 -2H161.183V1ZM159.711 6.76L159.533 9.75472L161.75 9.88642L162.523 7.80456L159.711 6.76ZM156.479 6.568L153.568 5.84039L152.691 9.3483L156.301 9.56272L156.479 6.568ZM155.839 3.688L153.977 6.04014L153.977 6.04014L155.839 3.688ZM150.863 2.59288C150.295 6.04113 149.991 8.97244 149.991 11.336H155.991C155.991 9.43289 156.241 6.8602 156.783 3.56712L150.863 2.59288ZM149.991 11.336C149.991 13.5448 150.079 15.5398 150.263 17.31L156.231 16.69C156.073 15.1749 155.991 13.3939 155.991 11.336H149.991ZM153.247 14H146.271V20H153.247V14ZM149.204 16.3727C148.528 13.2107 148.183 9.77499 148.183 6.056H142.183C142.183 10.145 142.563 14.0053 143.337 17.6273L149.204 16.3727ZM148.183 6.056C148.183 5.44484 148.203 4.49225 148.245 3.17672L142.248 2.98327C142.205 4.31308 142.183 5.34449 142.183 6.056H148.183ZM144.4 0.201902C143.04 0.601845 141.806 1.30828 140.83 2.38777C139.858 3.46206 139.275 4.75879 138.983 6.14032L144.854 7.37967C144.968 6.84121 145.142 6.56461 145.28 6.41223C145.413 6.26505 145.64 6.09149 146.093 5.9581L144.4 0.201902ZM142.1 3.76549L138.932 3.57349L138.569 9.56251L141.737 9.7545L142.1 3.76549ZM141.689 7.17582L142.841 1.60782L136.965 0.392183L135.813 5.96018L141.689 7.17582ZM139.903 4H161.183V-2H139.903V4ZM158.231 0.463344C157.822 2.71316 157.37 4.44646 156.898 5.71544L162.523 7.80456C163.161 6.08687 163.69 3.98017 164.134 1.53666L158.231 0.463344ZM159.889 3.76528L156.657 3.57328L156.301 9.56272L159.533 9.75472L159.889 3.76528ZM159.389 7.29561C159.532 6.72366 159.607 6.13808 159.607 5.544H153.607C153.607 5.63259 153.596 5.72967 153.568 5.84039L159.389 7.29561ZM159.607 5.544C159.607 4.06949 159.122 2.46108 157.701 1.33586L153.977 6.04014C153.906 5.9846 153.837 5.9146 153.775 5.832C153.713 5.74972 153.67 5.67004 153.643 5.60305C153.588 5.47207 153.607 5.42919 153.607 5.544H159.607ZM157.701 1.33586C156.528 0.407456 155.143 0.079999 153.823 0.079999V6.08C153.998 6.08 154.076 6.1016 154.085 6.10422C154.088 6.10529 154.076 6.10205 154.054 6.0907C154.032 6.07915 154.005 6.06238 153.977 6.04014L157.701 1.33586Z" fill="black" mask="url(#path-1-outside-1_235_420)"/>
</svg>
