<svg width="155" height="21" viewBox="0 0 155 21" fill="none" xmlns="http://www.w3.org/2000/svg">
<mask id="path-1-outside-1_132_235" maskUnits="userSpaceOnUse" x="-3" y="-8" width="161" height="35" fill="black">
<rect fill="white" x="-3" y="-8" width="161" height="35"/>
<path d="M17.24 0.775999H18.296C19.6613 0.775999 20.6747 0.615999 21.336 0.296C20.3973 1.68267 19.4907 2.888 18.616 3.912H18.104C17.016 3.912 15.96 3.74133 14.936 3.4C13.4853 4.59467 12.3227 6.184 11.448 8.168C13.7093 8.744 16.2267 9.08533 19 9.192C19.64 10.8133 20.0773 13.416 20.312 17H12.024C11.6613 15.4213 11.1067 13.9707 10.36 12.648C9.63467 11.304 8.87733 10.3867 8.088 9.896C7.93867 11.6453 7.864 13.0533 7.864 14.12C7.864 15.1867 7.896 16.1467 7.96 17H0.92C0.514667 13.864 0.312 11.2187 0.312 9.064C0.312 6.888 0.472 4.2 0.792 1H9.688C9.048 3.64533 8.61067 5.864 8.376 7.656C9.336 6.07733 10.3387 4.75467 11.384 3.688C12.4507 2.6 13.7093 1.68267 15.16 0.935999C15.7147 0.829332 16.408 0.775999 17.24 0.775999ZM25.561 16.904C23.6623 14.472 22.713 11.976 22.713 9.416C22.713 6.856 23.7797 4.69067 25.913 2.92C28.0463 1.14933 30.777 0.264 34.105 0.264C35.8757 0.264 37.6357 0.530666 39.385 1.064C40.921 3.00533 41.689 5.08533 41.689 7.304C41.689 10.0987 40.5477 12.5307 38.265 14.6C35.9823 16.6693 33.2197 17.704 29.977 17.704C28.5903 17.704 27.1183 17.4373 25.561 16.904ZM30.425 3.048C29.6783 4.328 29.305 5.832 29.305 7.56C29.305 9.288 29.6783 10.888 30.425 12.36C31.193 13.8107 32.2383 14.856 33.561 15.496C34.5637 14.216 35.065 12.7333 35.065 11.048C35.065 9.36267 34.649 7.79467 33.817 6.344C33.0063 4.89333 31.8757 3.79467 30.425 3.048ZM52.0955 13C52.0955 14.216 52.1488 15.5493 52.2555 17H45.2155C44.3408 13.608 43.9035 10.0027 43.9035 6.184C43.9035 4.24267 44.0208 2.51467 44.2555 1H61.5995C62.2182 3.41067 62.5595 6.28 62.6235 9.608C59.4662 11.016 55.9568 11.9333 52.0955 12.36V13ZM52.1275 10.152C53.4928 9.98133 54.6342 9.64 55.5515 9.128C55.2102 6.86667 54.2928 4.86133 52.7995 3.112C52.4582 5.224 52.2342 7.57067 52.1275 10.152ZM76.2888 3.656L76.2568 2.92C75.8088 2.792 75.0301 2.728 73.9208 2.728C72.8328 2.728 72.0861 2.792 71.6808 2.92C71.8301 3.70933 72.0114 4.424 72.2248 5.064C70.7314 5.02133 69.3554 4.95733 68.0968 4.872C67.6274 3.82667 67.2008 2.54667 66.8168 1.032C69.1208 0.52 71.4461 0.264 73.7928 0.264C78.7634 0.264 81.2488 1.04267 81.2488 2.6C81.2488 2.83467 81.1741 3.12267 81.0248 3.464C80.0648 5.29867 79.0194 6.76 77.8888 7.848C79.5954 8.296 80.9074 9.17067 81.8248 10.472C82.7634 11.752 83.3288 13.288 83.5208 15.08C82.5181 16.4027 81.1634 17.5653 79.4568 18.568C77.7714 19.5707 76.0434 20.2427 74.2728 20.584C73.0781 20.4773 71.5634 20.1467 69.7288 19.592C67.9154 19.0373 66.5501 18.76 65.6328 18.76C64.7368 18.76 63.8088 19.048 62.8487 19.624C63.8088 16.8933 64.5981 15.528 65.2168 15.528C66.5394 15.528 67.7874 15.7413 68.9608 16.168C70.1554 16.5947 71.2328 17.0213 72.1927 17.448C73.1741 17.8747 73.9848 18.088 74.6248 18.088C75.2861 18.088 75.6808 18.0027 75.8088 17.832C75.9368 17.6827 76.0008 17.3413 76.0008 16.808C76.0008 15.2933 75.6594 13.7147 74.9768 12.072C74.3154 10.4293 73.6434 9.608 72.9608 9.608C71.7874 9.928 71.0194 10.088 70.6568 10.088C70.3154 10.088 70.1128 10.0773 70.0488 10.056C70.4328 9.26667 70.9448 8.31733 71.5848 7.208H72.5768C73.8141 7.208 74.8168 7.26133 75.5848 7.368C76.0541 6.152 76.2888 4.91467 76.2888 3.656ZM86.307 17C86.5843 14.8667 86.723 12.3493 86.723 9.448C86.723 6.52533 86.531 3.70933 86.147 1H94.595C94.6163 1.384 94.627 2.408 94.627 4.072C94.627 5.736 94.435 7.944 94.051 10.696C95.7577 9.13867 97.283 7.304 98.627 5.192C98.6057 3.86933 98.4883 2.472 98.275 1H106.563C106.606 2.28 106.627 3.24 106.627 3.88C106.627 8.01867 106.222 12.392 105.411 17H97.763C98.1897 14.1413 98.467 11.56 98.595 9.256C97.4003 11.112 95.4377 13.6933 92.707 17H86.307ZM131.056 3.656C131.056 7.83733 130.65 12.2853 129.84 17H122.192C122.533 14.4827 122.757 11.7733 122.864 8.872C121.754 8.18933 120.517 7.77333 119.152 7.624C119.024 10.76 118.682 13.8853 118.128 17H110.864C111.141 14.9093 111.28 12.4133 111.28 9.512C111.28 6.58933 111.088 3.752 110.704 1H119.152C119.194 1.87467 119.216 3.176 119.216 4.904C120.453 5.288 121.68 5.81067 122.896 6.472C122.896 4.488 122.821 2.664 122.672 1H130.992C131.034 2.19467 131.056 3.08 131.056 3.656ZM154.455 16.744V17H147.031C146.946 15.784 146.764 14.5253 146.487 13.224C145.164 14.568 143.671 15.8267 142.007 17H134.551C134.402 16.1253 134.327 14.9733 134.327 13.544C134.327 12.0933 134.54 10.6427 134.967 9.192C136.503 8.744 137.975 7.98667 139.383 6.92C140.812 5.85333 141.847 4.70133 142.487 3.464C141.911 2.568 141.303 1.74667 140.663 1H151.287C153.399 5.58667 154.455 10.8347 154.455 16.744ZM145.911 10.888C145.356 8.98933 144.631 7.19733 143.735 5.512C142.732 8.456 142.156 11.24 142.007 13.864C143.543 13.0747 144.844 12.0827 145.911 10.888Z"/>
</mask>
<path d="M17.24 0.775999H18.296C19.6613 0.775999 20.6747 0.615999 21.336 0.296C20.3973 1.68267 19.4907 2.888 18.616 3.912H18.104C17.016 3.912 15.96 3.74133 14.936 3.4C13.4853 4.59467 12.3227 6.184 11.448 8.168C13.7093 8.744 16.2267 9.08533 19 9.192C19.64 10.8133 20.0773 13.416 20.312 17H12.024C11.6613 15.4213 11.1067 13.9707 10.36 12.648C9.63467 11.304 8.87733 10.3867 8.088 9.896C7.93867 11.6453 7.864 13.0533 7.864 14.12C7.864 15.1867 7.896 16.1467 7.96 17H0.92C0.514667 13.864 0.312 11.2187 0.312 9.064C0.312 6.888 0.472 4.2 0.792 1H9.688C9.048 3.64533 8.61067 5.864 8.376 7.656C9.336 6.07733 10.3387 4.75467 11.384 3.688C12.4507 2.6 13.7093 1.68267 15.16 0.935999C15.7147 0.829332 16.408 0.775999 17.24 0.775999ZM25.561 16.904C23.6623 14.472 22.713 11.976 22.713 9.416C22.713 6.856 23.7797 4.69067 25.913 2.92C28.0463 1.14933 30.777 0.264 34.105 0.264C35.8757 0.264 37.6357 0.530666 39.385 1.064C40.921 3.00533 41.689 5.08533 41.689 7.304C41.689 10.0987 40.5477 12.5307 38.265 14.6C35.9823 16.6693 33.2197 17.704 29.977 17.704C28.5903 17.704 27.1183 17.4373 25.561 16.904ZM30.425 3.048C29.6783 4.328 29.305 5.832 29.305 7.56C29.305 9.288 29.6783 10.888 30.425 12.36C31.193 13.8107 32.2383 14.856 33.561 15.496C34.5637 14.216 35.065 12.7333 35.065 11.048C35.065 9.36267 34.649 7.79467 33.817 6.344C33.0063 4.89333 31.8757 3.79467 30.425 3.048ZM52.0955 13C52.0955 14.216 52.1488 15.5493 52.2555 17H45.2155C44.3408 13.608 43.9035 10.0027 43.9035 6.184C43.9035 4.24267 44.0208 2.51467 44.2555 1H61.5995C62.2182 3.41067 62.5595 6.28 62.6235 9.608C59.4662 11.016 55.9568 11.9333 52.0955 12.36V13ZM52.1275 10.152C53.4928 9.98133 54.6342 9.64 55.5515 9.128C55.2102 6.86667 54.2928 4.86133 52.7995 3.112C52.4582 5.224 52.2342 7.57067 52.1275 10.152ZM76.2888 3.656L76.2568 2.92C75.8088 2.792 75.0301 2.728 73.9208 2.728C72.8328 2.728 72.0861 2.792 71.6808 2.92C71.8301 3.70933 72.0114 4.424 72.2248 5.064C70.7314 5.02133 69.3554 4.95733 68.0968 4.872C67.6274 3.82667 67.2008 2.54667 66.8168 1.032C69.1208 0.52 71.4461 0.264 73.7928 0.264C78.7634 0.264 81.2488 1.04267 81.2488 2.6C81.2488 2.83467 81.1741 3.12267 81.0248 3.464C80.0648 5.29867 79.0194 6.76 77.8888 7.848C79.5954 8.296 80.9074 9.17067 81.8248 10.472C82.7634 11.752 83.3288 13.288 83.5208 15.08C82.5181 16.4027 81.1634 17.5653 79.4568 18.568C77.7714 19.5707 76.0434 20.2427 74.2728 20.584C73.0781 20.4773 71.5634 20.1467 69.7288 19.592C67.9154 19.0373 66.5501 18.76 65.6328 18.76C64.7368 18.76 63.8088 19.048 62.8487 19.624C63.8088 16.8933 64.5981 15.528 65.2168 15.528C66.5394 15.528 67.7874 15.7413 68.9608 16.168C70.1554 16.5947 71.2328 17.0213 72.1927 17.448C73.1741 17.8747 73.9848 18.088 74.6248 18.088C75.2861 18.088 75.6808 18.0027 75.8088 17.832C75.9368 17.6827 76.0008 17.3413 76.0008 16.808C76.0008 15.2933 75.6594 13.7147 74.9768 12.072C74.3154 10.4293 73.6434 9.608 72.9608 9.608C71.7874 9.928 71.0194 10.088 70.6568 10.088C70.3154 10.088 70.1128 10.0773 70.0488 10.056C70.4328 9.26667 70.9448 8.31733 71.5848 7.208H72.5768C73.8141 7.208 74.8168 7.26133 75.5848 7.368C76.0541 6.152 76.2888 4.91467 76.2888 3.656ZM86.307 17C86.5843 14.8667 86.723 12.3493 86.723 9.448C86.723 6.52533 86.531 3.70933 86.147 1H94.595C94.6163 1.384 94.627 2.408 94.627 4.072C94.627 5.736 94.435 7.944 94.051 10.696C95.7577 9.13867 97.283 7.304 98.627 5.192C98.6057 3.86933 98.4883 2.472 98.275 1H106.563C106.606 2.28 106.627 3.24 106.627 3.88C106.627 8.01867 106.222 12.392 105.411 17H97.763C98.1897 14.1413 98.467 11.56 98.595 9.256C97.4003 11.112 95.4377 13.6933 92.707 17H86.307ZM131.056 3.656C131.056 7.83733 130.65 12.2853 129.84 17H122.192C122.533 14.4827 122.757 11.7733 122.864 8.872C121.754 8.18933 120.517 7.77333 119.152 7.624C119.024 10.76 118.682 13.8853 118.128 17H110.864C111.141 14.9093 111.28 12.4133 111.28 9.512C111.28 6.58933 111.088 3.752 110.704 1H119.152C119.194 1.87467 119.216 3.176 119.216 4.904C120.453 5.288 121.68 5.81067 122.896 6.472C122.896 4.488 122.821 2.664 122.672 1H130.992C131.034 2.19467 131.056 3.08 131.056 3.656ZM154.455 16.744V17H147.031C146.946 15.784 146.764 14.5253 146.487 13.224C145.164 14.568 143.671 15.8267 142.007 17H134.551C134.402 16.1253 134.327 14.9733 134.327 13.544C134.327 12.0933 134.54 10.6427 134.967 9.192C136.503 8.744 137.975 7.98667 139.383 6.92C140.812 5.85333 141.847 4.70133 142.487 3.464C141.911 2.568 141.303 1.74667 140.663 1H151.287C153.399 5.58667 154.455 10.8347 154.455 16.744ZM145.911 10.888C145.356 8.98933 144.631 7.19733 143.735 5.512C142.732 8.456 142.156 11.24 142.007 13.864C143.543 13.0747 144.844 12.0827 145.911 10.888Z" fill="white"/>
<path d="M21.336 0.296L23.8203 1.9777L30.0782 -7.26682L20.0293 -2.40448L21.336 0.296ZM18.616 3.912V6.912H19.9989L20.8971 5.86046L18.616 3.912ZM14.936 3.4L15.8847 0.55395L14.3101 0.0290875L13.0289 1.08421L14.936 3.4ZM11.448 8.168L8.70293 6.95781L7.27338 10.2004L10.7075 11.0752L11.448 8.168ZM19 9.192L21.7905 8.0905L21.0716 6.26946L19.1153 6.19422L19 9.192ZM20.312 17V20H23.5149L23.3056 16.804L20.312 17ZM12.024 17L9.10016 17.6717L9.63504 20H12.024V17ZM10.36 12.648L7.71993 14.0728L7.73349 14.0979L7.74753 14.1228L10.36 12.648ZM8.088 9.896L9.6718 7.34814L5.51516 4.76429L5.09887 9.64083L8.088 9.896ZM7.96 17V20H11.1934L10.9516 16.7756L7.96 17ZM0.92 17L-2.05525 17.3846L-1.7172 20H0.92V17ZM0.792 1V-2H-1.92296L-2.19311 0.701489L0.792 1ZM9.688 1L12.6039 1.70545L13.5004 -2H9.688V1ZM8.376 7.656L5.4014 7.26647L10.9393 9.21474L8.376 7.656ZM11.384 3.688L9.24178 1.58779L9.24136 1.58821L11.384 3.688ZM15.16 0.935999L14.5935 -2.01002L14.1703 -1.92863L13.7871 -1.73141L15.16 0.935999ZM17.24 3.776H18.296V-2.224H17.24V3.776ZM18.296 3.776C19.7898 3.776 21.3583 3.61794 22.6427 2.99648L20.0293 -2.40448C20.0456 -2.41235 19.9337 -2.35807 19.6121 -2.30729C19.3012 -2.2582 18.8698 -2.224 18.296 -2.224V3.776ZM18.8517 -1.3857C17.9613 -0.0704294 17.1219 1.0421 16.3349 1.96354L20.8971 5.86046C21.8594 4.7339 22.8333 3.43576 23.8203 1.9777L18.8517 -1.3857ZM18.616 0.912H18.104V6.912H18.616V0.912ZM18.104 0.912C17.3358 0.912 16.6003 0.792492 15.8847 0.55395L13.9873 6.24605C15.3197 6.69017 16.6962 6.912 18.104 6.912V0.912ZM13.0289 1.08421C11.1644 2.61964 9.73755 4.61097 8.70293 6.95781L14.1931 9.37819C14.9078 7.75703 15.8062 6.5697 16.8431 5.71579L13.0289 1.08421ZM10.7075 11.0752C13.2076 11.712 15.9388 12.0765 18.8847 12.1898L19.1153 6.19422C16.5146 6.09419 14.2111 5.77601 12.1885 5.26083L10.7075 11.0752ZM16.2095 10.2935C16.6687 11.4567 17.0873 13.6658 17.3184 17.196L23.3056 16.804C23.0674 13.1662 22.6113 10.17 21.7905 8.0905L16.2095 10.2935ZM20.312 14H12.024V20H20.312V14ZM14.9478 16.3283C14.5248 14.487 13.8701 12.7634 12.9725 11.1732L7.74753 14.1228C8.3432 15.178 8.79783 16.3556 9.10016 17.6717L14.9478 16.3283ZM13.0001 11.2232C12.1688 9.68299 11.1044 8.23869 9.6718 7.34814L6.5042 12.4439C6.65024 12.5346 7.10049 12.925 7.71993 14.0728L13.0001 11.2232ZM5.09887 9.64083C4.94627 11.4285 4.864 12.9316 4.864 14.12H10.864C10.864 13.1751 10.9311 11.8622 11.0771 10.1512L5.09887 9.64083ZM4.864 14.12C4.864 15.2442 4.89764 16.2809 4.9684 17.2244L10.9516 16.7756C10.8944 16.0125 10.864 15.1291 10.864 14.12H4.864ZM7.96 14H0.92V20H7.96V14ZM3.89525 16.6154C3.49954 13.5539 3.312 11.0458 3.312 9.064H-2.688C-2.688 11.3915 -2.47021 14.1741 -2.05525 17.3846L3.89525 16.6154ZM3.312 9.064C3.312 7.0225 3.46283 4.44135 3.77711 1.29851L-2.19311 0.701489C-2.51883 3.95865 -2.688 6.7535 -2.688 9.064H3.312ZM0.792 4H9.688V-2H0.792V4ZM6.77212 0.294546C6.11815 2.99765 5.65504 5.32952 5.4014 7.26647L11.3506 8.04553C11.5663 6.39848 11.9779 4.29301 12.6039 1.70545L6.77212 0.294546ZM10.9393 9.21474C11.807 7.78775 12.6742 6.65758 13.5266 5.78779L9.24136 1.58821C8.00309 2.85175 6.86497 4.36691 5.81274 6.09726L10.9393 9.21474ZM13.5262 5.78821C14.353 4.94486 15.3471 4.21374 16.5329 3.60341L13.7871 -1.73141C12.0715 -0.848408 10.5483 0.255135 9.24178 1.58779L13.5262 5.78821ZM15.7265 3.88202C16.0295 3.82376 16.5179 3.776 17.24 3.776V-2.224C16.2981 -2.224 15.3999 -2.1651 14.5935 -2.01002L15.7265 3.88202ZM25.561 16.904L23.1963 18.7501L23.7452 19.4532L24.589 19.7422L25.561 16.904ZM25.913 2.92L23.997 0.611555L23.997 0.611555L25.913 2.92ZM39.385 1.064L41.7377 -0.797448L41.1562 -1.53232L40.2599 -1.8056L39.385 1.064ZM38.265 14.6L40.2799 16.8226L40.2799 16.8226L38.265 14.6ZM30.425 3.048L31.7979 0.380592L29.2676 -0.921785L27.8337 1.53639L30.425 3.048ZM30.425 12.36L27.7495 13.7171L27.7614 13.7405L27.7736 13.7637L30.425 12.36ZM33.561 15.496L32.2543 18.1965L34.4313 19.2499L35.9227 17.346L33.561 15.496ZM33.817 6.344L31.1982 7.80746L31.2063 7.82205L31.2146 7.83654L33.817 6.344ZM27.9257 15.0579C26.3515 13.0415 25.713 11.1779 25.713 9.416H19.713C19.713 12.7741 20.9731 15.9025 23.1963 18.7501L27.9257 15.0579ZM25.713 9.416C25.713 7.82941 26.3175 6.48299 27.829 5.22844L23.997 0.611555C21.2418 2.89834 19.713 5.88259 19.713 9.416H25.713ZM27.829 5.22844C29.3213 3.98987 31.3307 3.264 34.105 3.264V-2.736C30.2233 -2.736 26.7714 -1.6912 23.997 0.611555L27.829 5.22844ZM34.105 3.264C35.5695 3.264 37.035 3.48386 38.5101 3.9336L40.2599 -1.8056C38.2364 -2.42253 36.1818 -2.736 34.105 -2.736V3.264ZM37.0323 2.92545C38.2004 4.40181 38.689 5.83937 38.689 7.304H44.689C44.689 4.3313 43.6416 1.60886 41.7377 -0.797448L37.0323 2.92545ZM38.689 7.304C38.689 9.15979 37.9772 10.8117 36.2501 12.3774L40.2799 16.8226C43.1182 14.2496 44.689 11.0375 44.689 7.304H38.689ZM36.2501 12.3774C34.5502 13.9184 32.5176 14.704 29.977 14.704V20.704C33.9217 20.704 37.4145 19.4203 40.2799 16.8226L36.2501 12.3774ZM29.977 14.704C28.9763 14.704 27.8344 14.5115 26.533 14.0658L24.589 19.7422C26.4022 20.3631 28.2044 20.704 29.977 20.704V14.704ZM27.8337 1.53639C26.7777 3.34653 26.305 5.39001 26.305 7.56H32.305C32.305 6.27399 32.5789 5.30946 33.0163 4.55961L27.8337 1.53639ZM26.305 7.56C26.305 9.73679 26.7794 11.8047 27.7495 13.7171L33.1005 11.0029C32.5772 9.97133 32.305 8.83921 32.305 7.56H26.305ZM27.7736 13.7637C28.8038 15.7094 30.2901 17.246 32.2543 18.1965L34.8677 12.7955C34.1866 12.466 33.5822 11.9119 33.0764 10.9563L27.7736 13.7637ZM35.9227 17.346C37.3549 15.5176 38.065 13.3776 38.065 11.048H32.065C32.065 12.0891 31.7724 12.9144 31.1993 13.646L35.9227 17.346ZM38.065 11.048C38.065 8.84326 37.514 6.76011 36.4194 4.85146L31.2146 7.83654C31.784 8.82922 32.065 9.88207 32.065 11.048H38.065ZM36.4358 4.88054C35.343 2.92491 33.7835 1.40258 31.7979 0.380592L29.0521 5.71541C29.9678 6.18675 30.6697 6.86175 31.1982 7.80746L36.4358 4.88054ZM52.2555 17V20H55.4842L55.2474 16.78L52.2555 17ZM45.2155 17L42.3105 17.7491L42.891 20H45.2155V17ZM44.2555 1V-2H41.6845L41.2909 0.540691L44.2555 1ZM61.5995 1L64.5053 0.254256L63.9268 -2H61.5995V1ZM62.6235 9.608L63.8454 12.3479L65.6612 11.5381L65.6229 9.55032L62.6235 9.608ZM52.0955 12.36L51.766 9.37815L49.0955 9.67323V12.36H52.0955ZM52.1275 10.152L49.1301 10.0281L48.9838 13.5683L52.4996 13.1288L52.1275 10.152ZM55.5515 9.128L57.0136 11.7476L58.828 10.7349L58.5179 8.68024L55.5515 9.128ZM52.7995 3.112L55.0812 1.16421L50.8722 -3.7663L49.8379 2.63336L52.7995 3.112ZM49.0955 13C49.0955 14.3019 49.1525 15.7098 49.2636 17.22L55.2474 16.78C55.1451 15.3889 55.0955 14.1301 55.0955 13H49.0955ZM52.2555 14H45.2155V20H52.2555V14ZM48.1205 16.2509C47.3143 13.1245 46.9035 9.7725 46.9035 6.184H40.9035C40.9035 10.2328 41.3674 14.0915 42.3105 17.7491L48.1205 16.2509ZM46.9035 6.184C46.9035 4.35798 47.0142 2.78821 47.2201 1.45931L41.2909 0.540691C41.0274 2.24112 40.9035 4.12735 40.9035 6.184H46.9035ZM44.2555 4H61.5995V-2H44.2555V4ZM58.6937 1.74574C59.239 3.87059 59.5631 6.49728 59.6241 9.66568L65.6229 9.55032C65.5559 6.06272 65.1974 2.95075 64.5053 0.254256L58.6937 1.74574ZM61.4017 6.86809C58.5601 8.13527 55.3568 8.98138 51.766 9.37815L52.425 15.3419C56.5569 14.8853 60.3722 13.8967 63.8454 12.3479L61.4017 6.86809ZM49.0955 12.36V13H55.0955V12.36H49.0955ZM52.4996 13.1288C54.1352 12.9244 55.6726 12.4961 57.0136 11.7476L54.0894 6.50841C53.5957 6.78395 52.8505 7.03828 51.7554 7.17517L52.4996 13.1288ZM58.5179 8.68024C58.0924 5.86141 56.9362 3.3372 55.0812 1.16421L50.5178 5.05979C51.6495 6.38547 52.3279 7.87193 52.5851 9.57576L58.5179 8.68024ZM49.8379 2.63336C49.4742 4.88391 49.2407 7.35141 49.1301 10.0281L55.1249 10.2759C55.2277 7.78992 55.4421 5.56409 55.7611 3.59064L49.8379 2.63336ZM76.2888 3.656H79.2888V3.59081L79.2859 3.52569L76.2888 3.656ZM76.2568 2.92L79.2539 2.78969L79.16 0.629448L77.0809 0.0354267L76.2568 2.92ZM71.6808 2.92L70.7774 0.0592502L68.238 0.861144L68.733 3.47767L71.6808 2.92ZM72.2248 5.064L72.1391 8.06278L76.4275 8.1853L75.0708 4.11532L72.2248 5.064ZM68.0968 4.872L65.3599 6.10077L66.0974 7.74334L67.8938 7.86513L68.0968 4.872ZM66.8168 1.032L66.166 -1.89656L63.1493 -1.2262L63.9087 1.76924L66.8168 1.032ZM81.0248 3.464L83.6829 4.85487L83.7313 4.76223L83.7732 4.66645L81.0248 3.464ZM77.8888 7.848L75.8086 5.68628L71.957 9.39255L77.1271 10.7497L77.8888 7.848ZM81.8248 10.472L79.3727 12.2005L79.3889 12.2234L79.4055 12.2461L81.8248 10.472ZM83.5208 15.08L85.9115 16.8923L86.6305 15.9438L86.5037 14.7604L83.5208 15.08ZM79.4568 18.568L77.9371 15.9814L77.93 15.9856L77.9229 15.9898L79.4568 18.568ZM74.2728 20.584L74.006 23.5721L74.4263 23.6096L74.8406 23.5298L74.2728 20.584ZM69.7288 19.592L68.8512 22.4608L68.8606 22.4636L69.7288 19.592ZM62.8487 19.624L60.0186 18.629L57.2599 26.4759L64.3922 22.1965L62.8487 19.624ZM68.9608 16.168L67.9355 18.9874L67.9436 18.9903L67.9517 18.9932L68.9608 16.168ZM72.1927 17.448L70.9743 20.1894L70.9854 20.1944L70.9966 20.1992L72.1927 17.448ZM75.8088 17.832L73.531 15.8796L73.4674 15.9538L73.4087 16.032L75.8088 17.832ZM74.9768 12.072L72.1938 13.1924L72.2001 13.2079L72.2065 13.2233L74.9768 12.072ZM72.9608 9.608V6.608H72.559L72.1714 6.71371L72.9608 9.608ZM70.0488 10.056L67.351 8.7436L65.8544 11.8201L69.1001 12.902L70.0488 10.056ZM71.5848 7.208V4.208H69.8521L68.9862 5.70883L71.5848 7.208ZM75.5848 7.368L75.172 10.3395L77.5273 10.6666L78.3835 8.44823L75.5848 7.368ZM79.2859 3.52569L79.2539 2.78969L73.2596 3.05031L73.2916 3.78631L79.2859 3.52569ZM77.0809 0.0354267C76.1883 -0.219591 75.0311 -0.272 73.9208 -0.272V5.728C74.4244 5.728 74.8094 5.74277 75.091 5.76592C75.3969 5.79106 75.4815 5.81855 75.4326 5.80457L77.0809 0.0354267ZM73.9208 -0.272C72.8587 -0.272 71.6781 -0.225191 70.7774 0.0592502L72.5841 5.78075C72.4754 5.81508 72.5081 5.79015 72.801 5.76504C73.0605 5.74279 73.4278 5.728 73.9208 5.728V-0.272ZM68.733 3.47767C68.9029 4.37532 69.1156 5.2234 69.3787 6.01268L75.0708 4.11532C74.9072 3.6246 74.7573 3.04335 74.6285 2.36232L68.733 3.47767ZM72.3104 2.06522C70.8493 2.02348 69.513 1.96113 68.2997 1.87887L67.8938 7.86513C69.1978 7.95354 70.6135 8.01919 72.1391 8.06278L72.3104 2.06522ZM70.8336 3.64323C70.4558 2.80176 70.0803 1.69708 69.7248 0.294759L63.9087 1.76924C64.3212 3.39625 64.7991 4.85157 65.3599 6.10077L70.8336 3.64323ZM67.4675 3.96056C69.5591 3.49577 71.6662 3.264 73.7928 3.264V-2.736C71.2259 -2.736 68.6824 -2.45577 66.166 -1.89656L67.4675 3.96056ZM73.7928 3.264C76.1972 3.264 77.691 3.46113 78.4878 3.71078C78.8837 3.83483 78.8753 3.90233 78.7281 3.76398C78.4993 3.54888 78.2488 3.12214 78.2488 2.6H84.2488C84.2488 -0.279596 81.8075 -1.53675 80.2817 -2.01478C78.5932 -2.5438 76.359 -2.736 73.7928 -2.736V3.264ZM78.2488 2.6C78.2488 2.40618 78.2785 2.27875 78.2888 2.23912C78.2998 2.19672 78.3024 2.20181 78.2763 2.26155L83.7732 4.66645C84.0019 4.14376 84.2488 3.42045 84.2488 2.6H78.2488ZM78.3667 2.07313C77.5115 3.70741 76.6454 4.88106 75.8086 5.68628L79.9689 10.0097C81.3934 8.63894 82.618 6.88993 83.6829 4.85487L78.3667 2.07313ZM77.1271 10.7497C78.2288 11.0389 78.9077 11.5408 79.3727 12.2005L84.2768 8.74353C82.9071 6.80054 80.9621 5.55311 78.6504 4.94631L77.1271 10.7497ZM79.4055 12.2461C79.9908 13.0442 80.3944 14.0611 80.5378 15.3996L86.5037 14.7604C86.2631 12.5149 85.536 10.4598 84.244 8.69791L79.4055 12.2461ZM81.13 13.2677C80.4053 14.2238 79.3694 15.1399 77.9371 15.9814L80.9764 21.1546C82.9574 19.9908 84.6309 18.5816 85.9115 16.8923L81.13 13.2677ZM77.9229 15.9898C76.5097 16.8305 75.1061 17.3681 73.7049 17.6382L74.8406 23.5298C76.9807 23.1172 79.0331 22.3108 80.9906 21.1462L77.9229 15.9898ZM74.5395 17.5959C73.6325 17.5149 72.337 17.2464 70.5969 16.7204L68.8606 22.4636C70.7898 23.0469 72.5237 23.4398 74.006 23.5721L74.5395 17.5959ZM70.6063 16.7232C68.7444 16.1537 67.0211 15.76 65.6328 15.76V21.76C66.0791 21.76 67.0864 21.921 68.8512 22.4608L70.6063 16.7232ZM65.6328 15.76C64.0726 15.76 62.6162 16.265 61.3053 17.0515L64.3922 22.1965C65.0013 21.831 65.4009 21.76 65.6328 21.76V15.76ZM65.6789 20.619C66.1392 19.3099 66.5036 18.4934 66.758 18.0535C66.8898 17.8254 66.9152 17.8349 66.8092 17.9377C66.7404 18.0044 66.1914 18.528 65.2168 18.528V12.528C63.9327 12.528 63.0531 13.2223 62.6323 13.6303C62.1743 14.0744 61.8263 14.596 61.5635 15.0505C61.0285 15.9759 60.5183 17.2075 60.0186 18.629L65.6789 20.619ZM65.2168 18.528C66.2107 18.528 67.1099 18.6872 67.9355 18.9874L69.986 13.3486C68.4649 12.7955 66.8681 12.528 65.2168 12.528V18.528ZM67.9517 18.9932C69.0895 19.3996 70.0954 19.7988 70.9743 20.1894L73.4112 14.7066C72.3701 14.2439 71.2213 13.7898 69.9698 13.3428L67.9517 18.9932ZM70.9966 20.1992C72.135 20.6942 73.3866 21.088 74.6248 21.088V15.088C74.6277 15.088 74.5286 15.0869 74.3002 15.0268C74.0766 14.9679 73.7757 14.8649 73.3889 14.6968L70.9966 20.1992ZM74.6248 21.088C75.0521 21.088 75.5558 21.0633 76.0507 20.9562C76.4029 20.8801 77.4635 20.6257 78.2088 19.632L73.4087 16.032C73.7455 15.583 74.13 15.3542 74.3431 15.2498C74.5616 15.1428 74.7283 15.1035 74.7828 15.0918C74.883 15.0701 74.8588 15.088 74.6248 15.088V21.088ZM78.0865 19.7844C78.6647 19.1098 78.8366 18.3623 78.9014 18.0169C78.9805 17.5946 79.0008 17.173 79.0008 16.808H73.0008C73.0008 16.9764 72.989 16.9921 73.0041 16.9111C73.0125 16.8664 73.037 16.7493 73.099 16.5908C73.1587 16.4384 73.2839 16.1679 73.531 15.8796L78.0865 19.7844ZM79.0008 16.808C79.0008 14.8355 78.5553 12.8656 77.747 10.9207L72.2065 13.2233C72.7635 14.5638 73.0008 15.7511 73.0008 16.808H79.0008ZM77.7597 10.9516C77.3806 10.0101 76.9125 9.07461 76.2986 8.32429C75.7107 7.60571 74.6058 6.608 72.9608 6.608V12.608C72.5001 12.608 72.1387 12.4627 71.9154 12.3273C71.7131 12.2046 71.634 12.0982 71.6549 12.1237C71.6716 12.1441 71.7371 12.2312 71.8403 12.4217C71.9412 12.6082 72.0603 12.8608 72.1938 13.1924L77.7597 10.9516ZM72.1714 6.71371C71.6154 6.86536 71.1944 6.96825 70.8929 7.03106C70.7428 7.06233 70.6429 7.07931 70.5844 7.08759C70.513 7.0977 70.5508 7.088 70.6568 7.088V13.088C71.168 13.088 71.7078 12.9901 72.1166 12.9049C72.5831 12.8077 73.1328 12.6706 73.7501 12.5023L72.1714 6.71371ZM70.6568 7.088C70.5085 7.088 70.4319 7.08549 70.4064 7.08415C70.3925 7.08342 70.4228 7.08449 70.4802 7.09137C70.5098 7.09493 70.5651 7.1022 70.6369 7.11579C70.6739 7.12278 70.7222 7.13275 70.7787 7.14666C70.8342 7.16029 70.9093 7.18058 70.9974 7.20995L69.1001 12.902C69.5821 13.0627 70.0616 13.0743 70.0911 13.0759C70.2682 13.0852 70.4637 13.088 70.6568 13.088V7.088ZM72.7465 11.3684C73.0892 10.6639 73.5641 9.78038 74.1833 8.70717L68.9862 5.70883C68.3254 6.85429 67.7763 7.86939 67.351 8.7436L72.7465 11.3684ZM71.5848 10.208H72.5768V4.208H71.5848V10.208ZM72.5768 10.208C73.7469 10.208 74.5966 10.2595 75.172 10.3395L75.9975 4.39652C75.0369 4.26312 73.8813 4.208 72.5768 4.208V10.208ZM78.3835 8.44823C78.9811 6.90007 79.2888 5.29719 79.2888 3.656H73.2888C73.2888 4.53215 73.1271 5.40393 72.786 6.28777L78.3835 8.44823ZM86.307 17L83.332 16.6133L82.8918 20H86.307V17ZM86.147 1V-2H82.6918L83.1767 1.42099L86.147 1ZM94.595 1L97.5904 0.833587L97.433 -2H94.595V1ZM94.051 10.696L91.0798 10.2814L89.9306 18.5171L96.0732 12.9121L94.051 10.696ZM98.627 5.192L101.158 6.80263L101.641 6.04341L101.627 5.14362L98.627 5.192ZM98.275 1V-2H94.8089L95.306 1.43029L98.275 1ZM106.563 1L109.561 0.900057L109.465 -2H106.563V1ZM105.411 17V20H107.929L108.366 17.5198L105.411 17ZM97.763 17L94.7959 16.5571L94.282 20H97.763V17ZM98.595 9.256L101.59 9.42241L102.22 -1.91919L96.0724 7.63226L98.595 9.256ZM92.707 17V20H94.1203L95.0202 18.9103L92.707 17ZM89.282 17.3867C89.5806 15.0898 89.723 12.4373 89.723 9.448H83.723C83.723 12.2614 83.5881 14.6435 83.332 16.6133L89.282 17.3867ZM89.723 9.448C89.723 6.39394 89.5224 3.43686 89.1173 0.57901L83.1767 1.42099C83.5396 3.9818 83.723 6.65673 83.723 9.448H89.723ZM86.147 4H94.595V-2H86.147V4ZM91.5996 1.16641C91.6152 1.44737 91.627 2.37249 91.627 4.072H97.627C97.627 2.44351 97.6174 1.32063 97.5904 0.833587L91.5996 1.16641ZM91.627 4.072C91.627 5.53623 91.4555 7.58893 91.0798 10.2814L97.0222 11.1106C97.4145 8.29907 97.627 5.93577 97.627 4.072H91.627ZM96.0732 12.9121C97.991 11.162 99.6836 9.1195 101.158 6.80263L96.096 3.58137C94.8824 5.4885 93.5244 7.11529 92.0288 8.47994L96.0732 12.9121ZM101.627 5.14362C101.603 3.67855 101.473 2.15294 101.244 0.569713L95.306 1.43029C95.5032 2.79106 95.6084 4.06011 95.6274 5.24038L101.627 5.14362ZM98.275 4H106.563V-2H98.275V4ZM103.565 1.09994C103.607 2.37257 103.627 3.29185 103.627 3.88H109.627C109.627 3.18815 109.604 2.18743 109.561 0.900057L103.565 1.09994ZM103.627 3.88C103.627 7.8236 103.241 12.022 102.456 16.4802L108.366 17.5198C109.203 12.762 109.627 8.21373 109.627 3.88H103.627ZM105.411 14H97.763V20H105.411V14ZM100.73 17.4429C101.167 14.5143 101.456 11.8386 101.59 9.42241L95.5996 9.08959C95.4779 11.2814 95.2121 13.7684 94.7959 16.5571L100.73 17.4429ZM96.0724 7.63226C94.9764 9.335 93.1053 11.8063 90.3938 15.0897L95.0202 18.9103C97.7701 15.5803 99.8243 12.889 101.118 10.8797L96.0724 7.63226ZM92.707 14H86.307V20H92.707V14ZM129.84 17V20H132.368L132.796 17.5084L129.84 17ZM122.192 17L119.219 16.5969L118.757 20H122.192V17ZM122.864 8.872L125.861 8.98222L125.926 7.23392L124.436 6.31703L122.864 8.872ZM119.152 7.624L119.478 4.64178L116.285 4.29258L116.154 7.50165L119.152 7.624ZM118.128 17V20H120.64L121.081 17.526L118.128 17ZM110.864 17L107.89 16.6055L107.439 20H110.864V17ZM110.704 1V-2H107.256L107.732 1.41459L110.704 1ZM119.152 1L122.148 0.853832L122.009 -2H119.152V1ZM119.216 4.904H116.216V7.11411L118.326 7.76919L119.216 4.904ZM122.896 6.472L121.462 9.10745L125.896 11.5186V6.472H122.896ZM122.672 1V-2H119.39L119.684 1.26815L122.672 1ZM130.992 1L133.99 0.892924L133.886 -2H130.992V1ZM128.056 3.656C128.056 7.6447 127.669 11.9214 126.883 16.4916L132.796 17.5084C133.632 12.6492 134.056 8.02997 134.056 3.656H128.056ZM129.84 14H122.192V20H129.84V14ZM125.164 17.4031C125.521 14.7761 125.752 11.968 125.861 8.98222L119.866 8.76178C119.762 11.5787 119.545 14.1893 119.219 16.5969L125.164 17.4031ZM124.436 6.31703C122.927 5.38874 121.26 4.83676 119.478 4.64178L118.825 10.6062C119.773 10.7099 120.581 10.9899 121.291 11.427L124.436 6.31703ZM116.154 7.50165C116.032 10.5012 115.705 13.4917 115.174 16.474L121.081 17.526C121.659 14.279 122.015 11.0188 122.149 7.74635L116.154 7.50165ZM118.128 14H110.864V20H118.128V14ZM113.837 17.3945C114.137 15.1348 114.28 12.5001 114.28 9.512H108.28C108.28 12.3266 108.144 14.6838 107.89 16.6055L113.837 17.3945ZM114.28 9.512C114.28 6.45776 114.079 3.48165 113.675 0.585412L107.732 1.41459C108.096 4.02235 108.28 6.72091 108.28 9.512H114.28ZM110.704 4H119.152V-2H110.704V4ZM116.155 1.14617C116.194 1.94548 116.216 3.18759 116.216 4.904H122.216C122.216 3.16441 122.194 1.80385 122.148 0.853832L116.155 1.14617ZM118.326 7.76919C119.363 8.09086 120.408 8.53402 121.462 9.10745L124.329 3.83655C122.951 3.08731 121.543 2.48514 120.105 2.03881L118.326 7.76919ZM125.896 6.472C125.896 4.41451 125.818 2.49966 125.659 0.731846L119.684 1.26815C119.824 2.82834 119.896 4.56149 119.896 6.472H125.896ZM122.672 4H130.992V-2H122.672V4ZM127.993 1.10708C128.036 2.29538 128.056 3.13631 128.056 3.656H134.056C134.056 3.02369 134.032 2.09395 133.99 0.892924L127.993 1.10708ZM154.455 17V20H157.455V17H154.455ZM147.031 17L144.038 17.21L144.234 20H147.031V17ZM146.487 13.224L149.421 12.5987L148.259 7.1463L144.349 11.1197L146.487 13.224ZM142.007 17V20H142.958L143.736 19.4518L142.007 17ZM134.551 17L131.594 17.5049L132.02 20H134.551V17ZM134.967 9.192L134.127 6.312L132.552 6.77141L132.089 8.3455L134.967 9.192ZM139.383 6.92L137.589 4.5157L137.58 4.52218L137.571 4.52872L139.383 6.92ZM142.487 3.464L145.152 4.84227L145.949 3.30119L145.011 1.84173L142.487 3.464ZM140.663 1V-2H134.14L138.385 2.95238L140.663 1ZM151.287 1L154.012 -0.254763L153.208 -2H151.287V1ZM145.911 10.888L148.149 12.886L149.257 11.6445L148.791 10.0468L145.911 10.888ZM143.735 5.512L146.384 4.10372L143.13 -2.01684L140.895 4.54482L143.735 5.512ZM142.007 13.864L139.012 13.6935L138.714 18.9292L143.378 16.5323L142.007 13.864ZM151.455 16.744V17H157.455V16.744H151.455ZM154.455 14H147.031V20H154.455V14ZM150.024 16.79C149.928 15.4224 149.725 14.0246 149.421 12.5987L143.553 13.8493C143.804 15.026 143.964 16.1456 144.038 17.21L150.024 16.79ZM144.349 11.1197C143.161 12.3262 141.807 13.4701 140.278 14.5482L143.736 19.4518C145.535 18.1832 147.167 16.8098 148.625 15.3283L144.349 11.1197ZM142.007 14H134.551V20H142.007V14ZM137.508 16.4951C137.399 15.8565 137.327 14.893 137.327 13.544H131.327C131.327 15.0536 131.404 16.3942 131.594 17.5049L137.508 16.4951ZM137.327 13.544C137.327 12.3918 137.496 11.226 137.845 10.0385L132.089 8.3455C131.585 10.0594 131.327 11.7948 131.327 13.544H137.327ZM135.807 12.072C137.729 11.5115 139.525 10.5758 141.195 9.31128L137.571 4.52872C136.425 5.39758 135.277 5.97647 134.127 6.312L135.807 12.072ZM141.177 9.3243C142.872 8.0596 144.253 6.57984 145.152 4.84227L139.822 2.08573C139.441 2.82283 138.753 3.64707 137.589 4.5157L141.177 9.3243ZM145.011 1.84173C144.366 0.839635 143.677 -0.0932446 142.941 -0.952375L138.385 2.95238C138.929 3.58658 139.456 4.29636 139.963 5.08627L145.011 1.84173ZM140.663 4H151.287V-2H140.663V4ZM148.562 2.25476C150.465 6.3865 151.455 11.1947 151.455 16.744H157.455C157.455 10.4746 156.333 4.78684 154.012 -0.254763L148.562 2.25476ZM148.791 10.0468C148.181 7.95883 147.379 5.97614 146.384 4.10372L141.086 6.92028C141.883 8.41853 142.532 10.0198 143.031 11.7292L148.791 10.0468ZM140.895 4.54482C139.82 7.70048 139.179 10.7539 139.012 13.6935L145.002 14.0345C145.134 11.7261 145.644 9.21152 146.575 6.47918L140.895 4.54482ZM143.378 16.5323C145.216 15.5879 146.818 14.3763 148.149 12.886L143.673 8.88995C142.87 9.78908 141.87 10.5614 140.636 11.1957L143.378 16.5323Z" fill="black" mask="url(#path-1-outside-1_132_235)"/>
</svg>
