<svg width="244" height="21" viewBox="0 0 244 21" fill="none" xmlns="http://www.w3.org/2000/svg">
<mask id="path-1-outside-1_10_3" maskUnits="userSpaceOnUse" x="-3" y="-5" width="250" height="29" fill="black">
<rect fill="white" x="-3" y="-5" width="250" height="29"/>
<path d="M8.408 13C8.408 14.216 8.46133 15.5493 8.568 17H1.528C0.653333 13.608 0.216 10.0027 0.216 6.184C0.216 4.24267 0.333333 2.51467 0.568 1H17.912C18.5307 3.41067 18.872 6.28 18.936 9.608C15.7787 11.016 12.2693 11.9333 8.408 12.36V13ZM8.44 10.152C9.80533 9.98133 10.9467 9.64 11.864 9.128C11.5227 6.86667 10.6053 4.86133 9.112 3.112C8.77067 5.224 8.54667 7.57067 8.44 10.152ZM33.5613 7.432L36.5693 7.624C36.8679 7.624 37.0919 7.61333 37.2413 7.592L35.7373 10.408H35.4493C35.0439 10.408 34.4679 10.3013 33.7213 10.088C32.9746 9.85333 32.4413 9.736 32.1213 9.736C31.2466 9.736 30.5533 10.3013 30.0413 11.432C29.9559 12.4773 29.8919 13.5227 29.8493 14.568C30.9586 14.7813 31.8333 14.888 32.4733 14.888H32.7613C33.6786 14.888 34.4039 14.6853 34.9373 14.28C35.4919 13.8747 35.8866 13.1493 36.1213 12.104L39.9613 12.264C39.6413 14.0987 39.2146 15.6773 38.6813 17H22.9693C22.5426 14.12 22.3293 11.2613 22.3293 8.424C22.3293 5.58667 22.4786 3.112 22.7773 1H39.9293C39.5453 3.304 39.2039 4.92533 38.9053 5.864C37.6466 5.928 36.4946 5.97067 35.4493 5.992C35.6199 5.50133 35.7053 5.04267 35.7053 4.616C35.7053 3.592 34.9373 3.08 33.4013 3.08C32.8253 3.08 32.1853 3.144 31.4813 3.272C31.0119 5.29867 30.6493 7.08 30.3933 8.616C31.2466 7.82667 32.3026 7.432 33.5613 7.432ZM56.726 4.616C56.726 3.592 55.958 3.08 54.422 3.08C53.846 3.08 53.206 3.144 52.502 3.272C51.4353 7.64533 50.902 11.528 50.902 14.92C50.902 15.8587 50.9233 16.552 50.966 17H44.022C43.5953 14.12 43.382 11.2613 43.382 8.424C43.382 5.56533 43.5313 3.09067 43.83 1H60.95C60.5873 3.09067 60.246 4.712 59.926 5.864C58.838 5.88533 57.686 5.928 56.47 5.992C56.6407 5.50133 56.726 5.04267 56.726 4.616ZM63.4633 17C63.7406 14.8667 63.8793 12.3493 63.8793 9.448C63.8793 6.52533 63.6873 3.70933 63.3033 1H71.7513C71.7726 1.384 71.7833 2.408 71.7833 4.072C71.7833 5.736 71.5913 7.944 71.2073 10.696C72.9139 9.13867 74.4393 7.304 75.7833 5.192C75.7619 3.86933 75.6446 2.472 75.4313 1H83.7193C83.7619 2.28 83.7833 3.24 83.7833 3.88C83.7833 8.01867 83.3779 12.392 82.5673 17H74.9193C75.3459 14.1413 75.6233 11.56 75.7513 9.256C74.5566 11.112 72.5939 13.6933 69.8633 17H63.4633ZM100.212 2.952C99.4651 2.824 98.7398 2.76 98.0358 2.76C97.3531 2.76 96.5211 2.87733 95.5398 3.112C95.2198 4.456 95.0598 5.768 95.0598 7.048C95.0598 10.3547 96.5318 12.8933 99.4758 14.664C101.438 13.3627 103.209 11.7413 104.788 9.8C104.852 10.6533 104.905 11.9547 104.948 13.704C103.369 14.9413 101.758 15.912 100.116 16.616C98.4731 17.32 96.4251 17.672 93.9718 17.672H93.2358C91.3158 16.84 89.8011 15.6133 88.6918 13.992C87.6038 12.3707 87.0598 10.664 87.0598 8.872C87.0598 6.48267 88.0411 4.456 90.0038 2.792C91.9664 1.10667 94.8144 0.264 98.5478 0.264C100.638 0.264 102.825 0.530666 105.108 1.064C104.766 2.408 104.34 3.67733 103.828 4.872C102.484 5 101.097 5.064 99.6678 5.064C99.8811 4.46667 100.062 3.76267 100.212 2.952ZM121.167 3.08C120.612 6.45067 120.335 9.20267 120.335 11.336C120.335 13.4693 120.42 15.3573 120.591 17H113.615C112.889 13.608 112.527 9.96 112.527 6.056C112.527 5.39467 112.548 4.40267 112.591 3.08C110.777 3.61333 109.668 4.84 109.263 6.76L106.095 6.568L107.247 1H128.527C128.1 3.34667 127.609 5.26667 127.055 6.76L123.823 6.568C123.908 6.22667 123.951 5.88533 123.951 5.544C123.951 4.712 123.695 4.09333 123.183 3.688C122.671 3.28267 121.999 3.08 121.167 3.08ZM138.033 13C138.033 14.216 138.086 15.5493 138.193 17H131.153C130.278 13.608 129.841 10.0027 129.841 6.184C129.841 4.24267 129.958 2.51467 130.193 1H147.537C148.156 3.41067 148.497 6.28 148.561 9.608C145.404 11.016 141.894 11.9333 138.033 12.36V13ZM138.065 10.152C139.43 9.98133 140.572 9.64 141.489 9.128C141.148 6.86667 140.23 4.86133 138.737 3.112C138.396 5.224 138.172 7.57067 138.065 10.152ZM171.986 16.744V17H164.562C164.477 15.784 164.296 14.5253 164.018 13.224C162.696 14.568 161.202 15.8267 159.538 17H152.082C151.933 16.1253 151.858 14.9733 151.858 13.544C151.858 12.0933 152.072 10.6427 152.498 9.192C154.034 8.744 155.506 7.98667 156.914 6.92C158.344 5.85333 159.378 4.70133 160.018 3.464C159.442 2.568 158.834 1.74667 158.194 1H168.818C170.93 5.58667 171.986 10.8347 171.986 16.744ZM163.442 10.888C162.888 8.98933 162.162 7.19733 161.266 5.512C160.264 8.456 159.688 11.24 159.538 13.864C161.074 13.0747 162.376 12.0827 163.442 10.888ZM190.918 17H176.198C176.496 14.9307 176.646 12.488 176.646 9.672C176.646 6.856 176.454 3.96533 176.07 1H184.518C184.56 2.45067 184.582 3.53867 184.582 4.264C184.582 7.86933 184.347 11.304 183.878 14.568C184.88 14.8027 186.182 14.92 187.782 14.92C188.102 12.04 188.262 9.50133 188.262 7.304C188.262 5.10667 188.176 3.00533 188.006 1H196.326C196.368 2.23733 196.39 3.15467 196.39 3.752C196.39 7.336 196.102 11.0053 195.526 14.76C196.486 14.8453 197.392 14.8987 198.246 14.92C197.883 17.0533 197.403 18.9733 196.806 20.68L193.286 20.488C193.499 19.9333 193.606 19.432 193.606 18.984C193.606 17.6613 192.71 17 190.918 17ZM200.87 17C201.147 14.8667 201.286 12.3493 201.286 9.448C201.286 6.52533 201.094 3.70933 200.71 1H209.158C209.179 1.384 209.19 2.408 209.19 4.072C209.19 5.736 208.998 7.944 208.614 10.696C210.32 9.13867 211.846 7.304 213.19 5.192C213.168 3.86933 213.051 2.472 212.838 1H221.126C221.168 2.28 221.19 3.24 221.19 3.88C221.19 8.01867 220.784 12.392 219.974 17H212.326C212.752 14.1413 213.03 11.56 213.158 9.256C211.963 11.112 210 13.6933 207.27 17H200.87ZM225.458 6.728C225.458 5.04267 225.693 3.13333 226.162 1H242.866C243.165 3.26133 243.314 5.72533 243.314 8.392C243.314 11.0373 243.005 13.9067 242.386 17H235.41C235.538 15.5067 235.602 14.216 235.602 13.128C235.602 12.0187 235.591 11.2827 235.57 10.92C233.757 11.688 232.626 13.7147 232.178 17H223.922C224.093 14.5893 224.53 12.488 225.234 10.696C227.751 10.5893 229.959 10.2907 231.858 9.8C229.383 9.288 227.25 8.57333 225.458 7.656V6.728ZM234.898 3.144C233.767 4.59467 233.01 6.024 232.626 7.432C233.351 8.09333 234.301 8.50933 235.474 8.68C235.346 6.86667 235.154 5.02133 234.898 3.144Z"/>
</mask>
<path d="M8.408 13C8.408 14.216 8.46133 15.5493 8.568 17H1.528C0.653333 13.608 0.216 10.0027 0.216 6.184C0.216 4.24267 0.333333 2.51467 0.568 1H17.912C18.5307 3.41067 18.872 6.28 18.936 9.608C15.7787 11.016 12.2693 11.9333 8.408 12.36V13ZM8.44 10.152C9.80533 9.98133 10.9467 9.64 11.864 9.128C11.5227 6.86667 10.6053 4.86133 9.112 3.112C8.77067 5.224 8.54667 7.57067 8.44 10.152ZM33.5613 7.432L36.5693 7.624C36.8679 7.624 37.0919 7.61333 37.2413 7.592L35.7373 10.408H35.4493C35.0439 10.408 34.4679 10.3013 33.7213 10.088C32.9746 9.85333 32.4413 9.736 32.1213 9.736C31.2466 9.736 30.5533 10.3013 30.0413 11.432C29.9559 12.4773 29.8919 13.5227 29.8493 14.568C30.9586 14.7813 31.8333 14.888 32.4733 14.888H32.7613C33.6786 14.888 34.4039 14.6853 34.9373 14.28C35.4919 13.8747 35.8866 13.1493 36.1213 12.104L39.9613 12.264C39.6413 14.0987 39.2146 15.6773 38.6813 17H22.9693C22.5426 14.12 22.3293 11.2613 22.3293 8.424C22.3293 5.58667 22.4786 3.112 22.7773 1H39.9293C39.5453 3.304 39.2039 4.92533 38.9053 5.864C37.6466 5.928 36.4946 5.97067 35.4493 5.992C35.6199 5.50133 35.7053 5.04267 35.7053 4.616C35.7053 3.592 34.9373 3.08 33.4013 3.08C32.8253 3.08 32.1853 3.144 31.4813 3.272C31.0119 5.29867 30.6493 7.08 30.3933 8.616C31.2466 7.82667 32.3026 7.432 33.5613 7.432ZM56.726 4.616C56.726 3.592 55.958 3.08 54.422 3.08C53.846 3.08 53.206 3.144 52.502 3.272C51.4353 7.64533 50.902 11.528 50.902 14.92C50.902 15.8587 50.9233 16.552 50.966 17H44.022C43.5953 14.12 43.382 11.2613 43.382 8.424C43.382 5.56533 43.5313 3.09067 43.83 1H60.95C60.5873 3.09067 60.246 4.712 59.926 5.864C58.838 5.88533 57.686 5.928 56.47 5.992C56.6407 5.50133 56.726 5.04267 56.726 4.616ZM63.4633 17C63.7406 14.8667 63.8793 12.3493 63.8793 9.448C63.8793 6.52533 63.6873 3.70933 63.3033 1H71.7513C71.7726 1.384 71.7833 2.408 71.7833 4.072C71.7833 5.736 71.5913 7.944 71.2073 10.696C72.9139 9.13867 74.4393 7.304 75.7833 5.192C75.7619 3.86933 75.6446 2.472 75.4313 1H83.7193C83.7619 2.28 83.7833 3.24 83.7833 3.88C83.7833 8.01867 83.3779 12.392 82.5673 17H74.9193C75.3459 14.1413 75.6233 11.56 75.7513 9.256C74.5566 11.112 72.5939 13.6933 69.8633 17H63.4633ZM100.212 2.952C99.4651 2.824 98.7398 2.76 98.0358 2.76C97.3531 2.76 96.5211 2.87733 95.5398 3.112C95.2198 4.456 95.0598 5.768 95.0598 7.048C95.0598 10.3547 96.5318 12.8933 99.4758 14.664C101.438 13.3627 103.209 11.7413 104.788 9.8C104.852 10.6533 104.905 11.9547 104.948 13.704C103.369 14.9413 101.758 15.912 100.116 16.616C98.4731 17.32 96.4251 17.672 93.9718 17.672H93.2358C91.3158 16.84 89.8011 15.6133 88.6918 13.992C87.6038 12.3707 87.0598 10.664 87.0598 8.872C87.0598 6.48267 88.0411 4.456 90.0038 2.792C91.9664 1.10667 94.8144 0.264 98.5478 0.264C100.638 0.264 102.825 0.530666 105.108 1.064C104.766 2.408 104.34 3.67733 103.828 4.872C102.484 5 101.097 5.064 99.6678 5.064C99.8811 4.46667 100.062 3.76267 100.212 2.952ZM121.167 3.08C120.612 6.45067 120.335 9.20267 120.335 11.336C120.335 13.4693 120.42 15.3573 120.591 17H113.615C112.889 13.608 112.527 9.96 112.527 6.056C112.527 5.39467 112.548 4.40267 112.591 3.08C110.777 3.61333 109.668 4.84 109.263 6.76L106.095 6.568L107.247 1H128.527C128.1 3.34667 127.609 5.26667 127.055 6.76L123.823 6.568C123.908 6.22667 123.951 5.88533 123.951 5.544C123.951 4.712 123.695 4.09333 123.183 3.688C122.671 3.28267 121.999 3.08 121.167 3.08ZM138.033 13C138.033 14.216 138.086 15.5493 138.193 17H131.153C130.278 13.608 129.841 10.0027 129.841 6.184C129.841 4.24267 129.958 2.51467 130.193 1H147.537C148.156 3.41067 148.497 6.28 148.561 9.608C145.404 11.016 141.894 11.9333 138.033 12.36V13ZM138.065 10.152C139.43 9.98133 140.572 9.64 141.489 9.128C141.148 6.86667 140.23 4.86133 138.737 3.112C138.396 5.224 138.172 7.57067 138.065 10.152ZM171.986 16.744V17H164.562C164.477 15.784 164.296 14.5253 164.018 13.224C162.696 14.568 161.202 15.8267 159.538 17H152.082C151.933 16.1253 151.858 14.9733 151.858 13.544C151.858 12.0933 152.072 10.6427 152.498 9.192C154.034 8.744 155.506 7.98667 156.914 6.92C158.344 5.85333 159.378 4.70133 160.018 3.464C159.442 2.568 158.834 1.74667 158.194 1H168.818C170.93 5.58667 171.986 10.8347 171.986 16.744ZM163.442 10.888C162.888 8.98933 162.162 7.19733 161.266 5.512C160.264 8.456 159.688 11.24 159.538 13.864C161.074 13.0747 162.376 12.0827 163.442 10.888ZM190.918 17H176.198C176.496 14.9307 176.646 12.488 176.646 9.672C176.646 6.856 176.454 3.96533 176.07 1H184.518C184.56 2.45067 184.582 3.53867 184.582 4.264C184.582 7.86933 184.347 11.304 183.878 14.568C184.88 14.8027 186.182 14.92 187.782 14.92C188.102 12.04 188.262 9.50133 188.262 7.304C188.262 5.10667 188.176 3.00533 188.006 1H196.326C196.368 2.23733 196.39 3.15467 196.39 3.752C196.39 7.336 196.102 11.0053 195.526 14.76C196.486 14.8453 197.392 14.8987 198.246 14.92C197.883 17.0533 197.403 18.9733 196.806 20.68L193.286 20.488C193.499 19.9333 193.606 19.432 193.606 18.984C193.606 17.6613 192.71 17 190.918 17ZM200.87 17C201.147 14.8667 201.286 12.3493 201.286 9.448C201.286 6.52533 201.094 3.70933 200.71 1H209.158C209.179 1.384 209.19 2.408 209.19 4.072C209.19 5.736 208.998 7.944 208.614 10.696C210.32 9.13867 211.846 7.304 213.19 5.192C213.168 3.86933 213.051 2.472 212.838 1H221.126C221.168 2.28 221.19 3.24 221.19 3.88C221.19 8.01867 220.784 12.392 219.974 17H212.326C212.752 14.1413 213.03 11.56 213.158 9.256C211.963 11.112 210 13.6933 207.27 17H200.87ZM225.458 6.728C225.458 5.04267 225.693 3.13333 226.162 1H242.866C243.165 3.26133 243.314 5.72533 243.314 8.392C243.314 11.0373 243.005 13.9067 242.386 17H235.41C235.538 15.5067 235.602 14.216 235.602 13.128C235.602 12.0187 235.591 11.2827 235.57 10.92C233.757 11.688 232.626 13.7147 232.178 17H223.922C224.093 14.5893 224.53 12.488 225.234 10.696C227.751 10.5893 229.959 10.2907 231.858 9.8C229.383 9.288 227.25 8.57333 225.458 7.656V6.728ZM234.898 3.144C233.767 4.59467 233.01 6.024 232.626 7.432C233.351 8.09333 234.301 8.50933 235.474 8.68C235.346 6.86667 235.154 5.02133 234.898 3.144Z" fill="white"/>
<path d="M8.568 17V20H11.7967L11.5599 16.78L8.568 17ZM1.528 17L-1.37697 17.7491L-0.796549 20H1.528V17ZM0.568 1V-2H-2.003L-2.39663 0.540691L0.568 1ZM17.912 1L20.8178 0.254255L20.2393 -2H17.912V1ZM18.936 9.608L20.1579 12.3479L21.9737 11.5381L21.9354 9.55032L18.936 9.608ZM8.408 12.36L8.07851 9.37815L5.408 9.67323V12.36H8.408ZM8.44 10.152L5.44256 10.0281L5.29627 13.5683L8.81211 13.1288L8.44 10.152ZM11.864 9.128L13.3261 11.7476L15.1405 10.7349L14.8304 8.68024L11.864 9.128ZM9.112 3.112L11.3937 1.16421L7.18472 -3.7663L6.15043 2.63336L9.112 3.112ZM5.408 13C5.408 14.3019 5.46503 15.7098 5.57608 17.22L11.5599 16.78C11.4576 15.3889 11.408 14.1301 11.408 13H5.408ZM8.568 14H1.528V20H8.568V14ZM4.43297 16.2509C3.62679 13.1245 3.216 9.7725 3.216 6.184H-2.784C-2.784 10.2328 -2.32013 14.0915 -1.37697 17.7491L4.43297 16.2509ZM3.216 6.184C3.216 4.35798 3.32674 2.78821 3.53263 1.45931L-2.39663 0.540691C-2.66008 2.24112 -2.784 4.12735 -2.784 6.184H3.216ZM0.568 4H17.912V-2H0.568V4ZM15.0062 1.74574C15.5515 3.87059 15.8756 6.49728 15.9366 9.66568L21.9354 9.55032C21.8684 6.06272 21.5099 2.95075 20.8178 0.254255L15.0062 1.74574ZM17.7142 6.86809C14.8726 8.13527 11.6693 8.98138 8.07851 9.37815L8.73749 15.3419C12.8694 14.8853 16.6847 13.8967 20.1579 12.3479L17.7142 6.86809ZM5.408 12.36V13H11.408V12.36H5.408ZM8.81211 13.1288C10.4477 12.9244 11.9851 12.4961 13.3261 11.7476L10.4019 6.50841C9.90823 6.78395 9.16297 7.03828 8.0679 7.17517L8.81211 13.1288ZM14.8304 8.68024C14.4049 5.86141 13.2487 3.3372 11.3937 1.16421L6.83031 5.05979C7.96198 6.38547 8.64042 7.87193 8.8976 9.57576L14.8304 8.68024ZM6.15043 2.63336C5.7867 4.88391 5.55317 7.35141 5.44256 10.0281L11.4374 10.2759C11.5402 7.78992 11.7546 5.56409 12.0736 3.59064L6.15043 2.63336ZM33.5612 7.432L33.7523 4.43809L33.6569 4.432H33.5612V7.432ZM36.5693 7.624L36.3782 10.6179L36.4736 10.624H36.5693V7.624ZM37.2412 7.592L39.8875 9.00533L42.6755 3.78524L36.817 4.62215L37.2412 7.592ZM35.7373 10.408V13.408H37.536L38.3835 11.8213L35.7373 10.408ZM33.7213 10.088L32.8218 12.95L32.8593 12.9618L32.8971 12.9726L33.7213 10.088ZM30.0413 11.432L27.3084 10.1945L27.0936 10.6689L27.0512 11.1879L30.0413 11.432ZM29.8493 14.568L26.8517 14.4457L26.7464 17.0263L29.2827 17.514L29.8493 14.568ZM34.9373 14.28L33.1672 11.8578L33.1444 11.8745L33.122 11.8915L34.9373 14.28ZM36.1213 12.104L36.2461 9.1066L33.7429 9.0023L33.1941 11.4469L36.1213 12.104ZM39.9613 12.264L42.9166 12.7795L43.5045 9.40903L40.0861 9.2666L39.9613 12.264ZM38.6813 17V20H40.7063L41.4636 18.1219L38.6813 17ZM22.9692 17L20.0016 17.4396L20.381 20H22.9692V17ZM22.7773 1V-2H20.1716L19.8068 0.579937L22.7773 1ZM39.9293 1L42.8884 1.4932L43.4706 -2H39.9293V1ZM38.9053 5.864L39.0576 8.86013L41.1337 8.75456L41.764 6.77361L38.9053 5.864ZM35.4492 5.992L32.6158 5.00644L31.1991 9.07936L35.5105 8.99137L35.4492 5.992ZM31.4813 3.272L30.9446 0.32039L29.0037 0.673286L28.5586 2.59517L31.4813 3.272ZM30.3932 8.616L27.4341 8.1228L25.9923 16.7735L32.4304 10.8183L30.3932 8.616ZM33.3702 10.4259L36.3782 10.6179L36.7603 4.63009L33.7523 4.43809L33.3702 10.4259ZM36.5693 10.624C36.9008 10.624 37.2981 10.6143 37.6655 10.5618L36.817 4.62215C36.8469 4.61788 36.8623 4.61668 36.8591 4.61696C36.8566 4.61717 36.8438 4.61819 36.8186 4.6194C36.7667 4.62187 36.6855 4.624 36.5693 4.624V10.624ZM34.595 6.17867L33.091 8.99467L38.3835 11.8213L39.8875 9.00533L34.595 6.17867ZM35.7373 7.408H35.4492V13.408H35.7373V7.408ZM35.4492 7.408C35.4908 7.408 35.4394 7.41146 35.2595 7.37815C35.0896 7.34668 34.8547 7.29179 34.5454 7.20343L32.8971 12.9726C33.7143 13.2061 34.6155 13.408 35.4492 13.408V7.408ZM34.6207 7.22602C33.883 6.99417 32.9519 6.736 32.1213 6.736V12.736C32.0271 12.736 31.9783 12.7281 31.9926 12.73C32.0025 12.7314 32.0418 12.7375 32.1167 12.7539C32.2695 12.7876 32.4998 12.8488 32.8218 12.95L34.6207 7.22602ZM32.1213 6.736C29.5858 6.736 28.0695 8.51369 27.3084 10.1945L32.7741 12.6695C32.9087 12.3723 32.9652 12.3839 32.8411 12.4851C32.7711 12.5421 32.6622 12.6117 32.5168 12.6642C32.3705 12.7169 32.2321 12.736 32.1213 12.736V6.736ZM27.0512 11.1879C26.9626 12.2737 26.8961 13.3596 26.8517 14.4457L32.8468 14.6903C32.8878 13.6857 32.9493 12.681 33.0313 11.6761L27.0512 11.1879ZM29.2827 17.514C30.4604 17.7405 31.5519 17.888 32.4733 17.888V11.888C32.1146 11.888 31.4568 11.8222 30.4158 11.622L29.2827 17.514ZM32.4733 17.888H32.7612V11.888H32.4733V17.888ZM32.7612 17.888C34.0956 17.888 35.5346 17.5941 36.7525 16.6685L33.122 11.8915C33.1919 11.8384 33.2291 11.8346 33.1859 11.8467C33.1359 11.8606 33.0041 11.888 32.7612 11.888V17.888ZM36.7073 16.7022C38.1003 15.6842 38.7395 14.137 39.0484 12.7611L33.1941 11.4469C33.1206 11.7742 33.0459 11.9396 33.0141 11.9982C32.9864 12.049 33.0217 11.9641 33.1672 11.8578L36.7073 16.7022ZM35.9964 15.1014L39.8364 15.2614L40.0861 9.2666L36.2461 9.1066L35.9964 15.1014ZM37.0059 11.7485C36.7118 13.4348 36.3337 14.7998 35.8989 15.8781L41.4636 18.1219C42.0954 16.5549 42.5707 14.7626 42.9166 12.7795L37.0059 11.7485ZM38.6813 14H22.9692V20H38.6813V14ZM25.9369 16.5604C25.5312 13.8221 25.3293 11.1104 25.3293 8.424H19.3293C19.3293 11.4123 19.554 14.4179 20.0016 17.4396L25.9369 16.5604ZM25.3293 8.424C25.3293 5.6844 25.4739 3.35613 25.7477 1.42006L19.8068 0.579937C19.4833 2.86787 19.3293 5.48893 19.3293 8.424H25.3293ZM22.7773 4H39.9293V-2H22.7773V4ZM36.9701 0.506803C36.5865 2.8083 36.2736 4.24055 36.0465 4.95439L41.764 6.77361C42.1342 5.61012 42.504 3.7997 42.8884 1.4932L36.9701 0.506803ZM38.7529 2.86787C37.5187 2.93063 36.3976 2.97202 35.388 2.99262L35.5105 8.99137C36.5916 8.96931 37.7745 8.92537 39.0576 8.86013L38.7529 2.86787ZM38.2827 6.97756C38.5405 6.23662 38.7052 5.44212 38.7052 4.616H32.7052C32.7052 4.64321 32.6994 4.76605 32.6158 5.00644L38.2827 6.97756ZM38.7052 4.616C38.7052 3.23008 38.114 1.84826 36.7934 0.967848C35.6874 0.230553 34.4078 0.079999 33.4013 0.079999V6.08C33.628 6.08 33.7369 6.09978 33.7585 6.10456C33.7811 6.10959 33.6539 6.08598 33.4651 5.96015C33.2564 5.82098 33.0329 5.59548 32.878 5.28564C32.7293 4.98822 32.7052 4.7368 32.7052 4.616H38.7052ZM33.4013 0.079999C32.6083 0.079999 31.7851 0.167572 30.9446 0.32039L32.0179 6.22361C32.5854 6.12043 33.0422 6.08 33.4013 6.08V0.079999ZM28.5586 2.59517C28.0795 4.66389 27.7031 6.50878 27.4341 8.1228L33.3524 9.1092C33.5954 7.65122 33.9443 5.93344 34.4039 3.94882L28.5586 2.59517ZM32.4304 10.8183C32.6812 10.5863 32.9896 10.432 33.5612 10.432V4.432C31.6155 4.432 29.812 5.06703 28.3561 6.4137L32.4304 10.8183ZM52.502 3.272L51.9653 0.32039L50.049 0.66882L49.5874 2.56113L52.502 3.272ZM50.966 17V20H54.2653L53.9525 16.7156L50.966 17ZM44.022 17L41.0544 17.4396L41.4337 20H44.022V17ZM43.83 1V-2H41.2281L40.8602 0.575736L43.83 1ZM60.95 1L63.9059 1.51275L64.5152 -2H60.95V1ZM59.926 5.864L59.9848 8.86342L62.2186 8.81962L62.8166 6.66693L59.926 5.864ZM56.47 5.992L53.6365 5.00644L52.1701 9.22246L56.6277 8.98785L56.47 5.992ZM59.726 4.616C59.726 3.23008 59.1347 1.84826 57.8141 0.967848C56.7082 0.230553 55.4286 0.079999 54.422 0.079999V6.08C54.6488 6.08 54.7577 6.09978 54.7792 6.10456C54.8019 6.10959 54.6746 6.08598 54.4859 5.96015C54.2771 5.82098 54.0536 5.59548 53.8987 5.28564C53.75 4.98822 53.726 4.7368 53.726 4.616H59.726ZM54.422 0.079999C53.629 0.079999 52.8058 0.167572 51.9653 0.32039L53.0387 6.22361C53.6062 6.12043 54.063 6.08 54.422 6.08V0.079999ZM49.5874 2.56113C48.4813 7.0964 47.902 11.2252 47.902 14.92H53.902C53.902 11.8308 54.3894 8.19427 55.4166 3.98287L49.5874 2.56113ZM47.902 14.92C47.902 15.8749 47.9226 16.687 47.9795 17.2844L53.9525 16.7156C53.9241 16.417 53.902 15.8424 53.902 14.92H47.902ZM50.966 14H44.022V20H50.966V14ZM46.9896 16.5604C46.5839 13.8221 46.382 11.1104 46.382 8.424H40.382C40.382 11.4123 40.6067 14.4179 41.0544 17.4396L46.9896 16.5604ZM46.382 8.424C46.382 5.66126 46.5269 3.3352 46.7999 1.42426L40.8602 0.575736C40.5358 2.84613 40.382 5.46941 40.382 8.424H46.382ZM43.83 4H60.95V-2H43.83V4ZM57.9941 0.487249C57.6376 2.54248 57.3161 4.05066 57.0354 5.06107L62.8166 6.66693C63.1759 5.37334 63.537 3.63885 63.9059 1.51275L57.9941 0.487249ZM59.8672 2.86458C58.7426 2.88663 57.5575 2.93061 56.3123 2.99615L56.6277 8.98785C57.8145 8.92539 58.9334 8.88404 59.9848 8.86342L59.8672 2.86458ZM59.3035 6.97756C59.5612 6.23662 59.726 5.44213 59.726 4.616H53.726C53.726 4.64321 53.7201 4.76605 53.6365 5.00644L59.3035 6.97756ZM63.4632 17L60.4883 16.6133L60.048 20H63.4632V17ZM63.3033 1V-2H59.8481L60.3329 1.42099L63.3033 1ZM71.7513 1L74.7466 0.833587L74.5892 -2H71.7513V1ZM71.2073 10.696L68.236 10.2814L67.0869 18.5171L73.2294 12.9121L71.2073 10.696ZM75.7832 5.192L78.3142 6.80263L78.7974 6.04341L78.7829 5.14362L75.7832 5.192ZM75.4313 1V-2H71.9651L72.4623 1.43029L75.4313 1ZM83.7193 1L86.7176 0.900057L86.6209 -2H83.7193V1ZM82.5673 17V20H85.0855L85.5219 17.5198L82.5673 17ZM74.9193 17L71.9521 16.5571L71.4383 20H74.9193V17ZM75.7513 9.256L78.7466 9.42241L79.3767 -1.91919L73.2287 7.63226L75.7513 9.256ZM69.8633 17V20H71.2765L72.1765 18.9103L69.8633 17ZM66.4382 17.3867C66.7368 15.0898 66.8792 12.4373 66.8792 9.448H60.8792C60.8792 12.2614 60.7444 14.6435 60.4883 16.6133L66.4382 17.3867ZM66.8792 9.448C66.8792 6.39394 66.6786 3.43686 66.2736 0.57901L60.3329 1.42099C60.6959 3.9818 60.8792 6.65673 60.8792 9.448H66.8792ZM63.3033 4H71.7513V-2H63.3033V4ZM68.7559 1.16641C68.7715 1.44737 68.7832 2.37249 68.7832 4.072H74.7832C74.7832 2.44351 74.7737 1.32063 74.7466 0.833587L68.7559 1.16641ZM68.7832 4.072C68.7832 5.53623 68.6117 7.58893 68.236 10.2814L74.1785 11.1106C74.5708 8.29907 74.7832 5.93577 74.7832 4.072H68.7832ZM73.2294 12.9121C75.1472 11.162 76.8399 9.1195 78.3142 6.80263L73.2523 3.58137C72.0386 5.4885 70.6806 7.11529 69.1851 8.47994L73.2294 12.9121ZM78.7829 5.14362C78.7592 3.67855 78.6297 2.15294 78.4002 0.569713L72.4623 1.43029C72.6595 2.79106 72.7646 4.06011 72.7836 5.24038L78.7829 5.14362ZM75.4313 4H83.7193V-2H75.4313V4ZM80.7209 1.09994C80.7633 2.37257 80.7832 3.29185 80.7832 3.88H86.7832C86.7832 3.18815 86.7605 2.18743 86.7176 0.900057L80.7209 1.09994ZM80.7832 3.88C80.7832 7.8236 80.3969 12.022 79.6126 16.4802L85.5219 17.5198C86.3589 12.762 86.7832 8.21373 86.7832 3.88H80.7832ZM82.5673 14H74.9193V20H82.5673V14ZM77.8864 17.4429C78.3235 14.5143 78.6124 11.8386 78.7466 9.42241L72.7559 9.08959C72.6341 11.2814 72.3683 13.7684 71.9521 16.5571L77.8864 17.4429ZM73.2287 7.63226C72.1326 9.335 70.2615 11.8063 67.55 15.0897L72.1765 18.9103C74.9263 15.5803 76.9805 12.889 78.2738 10.8797L73.2287 7.63226ZM69.8633 14H63.4632V20H69.8633V14ZM100.212 2.952L103.162 3.49549L103.712 0.508345L100.719 -0.00486708L100.212 2.952ZM95.5397 3.112L94.842 0.194263L93.0485 0.623158L92.6213 2.41714L95.5397 3.112ZM99.4758 14.664L97.9295 17.2348L99.5538 18.2118L101.134 17.1643L99.4758 14.664ZM104.788 9.8L107.779 9.57563L107.216 2.05936L102.46 7.90726L104.788 9.8ZM104.948 13.704L106.798 16.0652L107.984 15.1362L107.947 13.6309L104.948 13.704ZM93.2357 17.672L92.0429 20.4247L92.6137 20.672H93.2357V17.672ZM88.6917 13.992L86.2007 15.6637L86.2082 15.6749L86.2158 15.6861L88.6917 13.992ZM90.0038 2.792L91.9438 5.08027L91.951 5.07417L91.9582 5.06802L90.0038 2.792ZM105.108 1.064L108.015 1.80246L108.768 -1.16155L105.79 -1.85732L105.108 1.064ZM103.828 4.872L104.112 7.85849L105.884 7.68974L106.585 6.05376L103.828 4.872ZM99.6677 5.064L96.8425 4.05499L95.4107 8.064H99.6677V5.064ZM100.719 -0.00486708C99.8171 -0.159417 98.9219 -0.240001 98.0358 -0.240001V5.76C98.5576 5.76 99.1131 5.80742 99.7049 5.90887L100.719 -0.00486708ZM98.0358 -0.240001C97.0353 -0.240001 95.9542 -0.071703 94.842 0.194263L96.2375 6.02974C97.0879 5.82637 97.6708 5.76 98.0358 5.76V-0.240001ZM92.6213 2.41714C92.2514 3.9709 92.0598 5.51629 92.0598 7.048H98.0598C98.0598 6.01971 98.1881 4.9411 98.4582 3.80686L92.6213 2.41714ZM92.0598 7.048C92.0598 11.4565 94.1264 14.9475 97.9295 17.2348L101.022 12.0932C98.9371 10.8392 98.0598 9.25285 98.0598 7.048H92.0598ZM101.134 17.1643C103.364 15.6853 105.357 13.8545 107.115 11.6927L102.46 7.90726C101.061 9.62812 99.5126 11.04 97.8179 12.1637L101.134 17.1643ZM101.796 10.0244C101.854 10.7987 101.906 12.0377 101.949 13.7771L107.947 13.6309C107.904 11.8716 107.849 10.5079 107.779 9.57563L101.796 10.0244ZM103.097 11.3428C101.699 12.4389 100.31 13.2687 98.934 13.8586L101.298 19.3734C103.207 18.5553 105.039 17.4438 106.798 16.0652L103.097 11.3428ZM98.934 13.8586C97.7762 14.3548 96.1607 14.672 93.9717 14.672V20.672C96.6894 20.672 99.17 20.2852 101.298 19.3734L98.934 13.8586ZM93.9717 14.672H93.2357V20.672H93.9717V14.672ZM94.4286 14.9193C92.9922 14.2969 91.9366 13.4217 91.1677 12.2979L86.2158 15.6861C87.6656 17.8049 89.6393 19.3831 92.0429 20.4247L94.4286 14.9193ZM91.1828 12.3203C90.3955 11.1471 90.0598 10.0152 90.0598 8.872H84.0598C84.0598 11.3128 84.812 13.5942 86.2007 15.6637L91.1828 12.3203ZM90.0598 8.872C90.0598 7.43831 90.5947 6.22407 91.9438 5.08027L88.0637 0.503728C85.4875 2.68793 84.0598 5.52702 84.0598 8.872H90.0598ZM91.9582 5.06802C93.1795 4.01925 95.2196 3.264 98.5478 3.264V-2.736C94.4092 -2.736 90.7533 -1.80591 88.0493 0.515976L91.9582 5.06802ZM98.5478 3.264C100.383 3.264 102.34 3.49806 104.425 3.98532L105.79 -1.85732C103.31 -2.43673 100.894 -2.736 98.5478 -2.736V3.264ZM102.2 0.325536C101.895 1.52809 101.517 2.64839 101.07 3.69024L106.585 6.05376C107.163 4.70628 107.638 3.28791 108.015 1.80246L102.2 0.325536ZM103.543 1.88551C102.299 2.004 101.008 2.064 99.6677 2.064V8.064C101.187 8.064 102.668 7.996 104.112 7.85849L103.543 1.88551ZM102.493 6.07301C102.774 5.28701 102.992 4.4203 103.162 3.49549L97.2614 2.40851C97.1331 3.10504 96.9885 3.64632 96.8425 4.05499L102.493 6.07301ZM121.167 3.08V0.079999H118.62L118.206 2.59288L121.167 3.08ZM120.59 17V20H123.918L123.574 16.69L120.59 17ZM113.615 17L110.681 17.6273L111.188 20H113.615V17ZM112.59 3.08L115.589 3.17672L115.723 -0.968289L111.744 0.201902L112.59 3.08ZM109.262 6.76L109.081 9.75451L111.663 9.91101L112.198 7.37967L109.262 6.76ZM106.094 6.568L103.157 5.96018L102.455 9.35292L105.913 9.56251L106.094 6.568ZM107.246 1V-2H104.804L104.309 0.392183L107.246 1ZM128.527 1L131.478 1.53666L132.121 -2H128.527V1ZM127.055 6.76L126.877 9.75472L129.094 9.88642L129.867 7.80456L127.055 6.76ZM123.823 6.568L120.912 5.84039L120.035 9.3483L123.645 9.56272L123.823 6.568ZM123.183 3.688L121.32 6.04014V6.04014L123.183 3.688ZM118.206 2.59288C117.639 6.04113 117.335 8.97244 117.335 11.336H123.335C123.335 9.43289 123.585 6.8602 124.127 3.56712L118.206 2.59288ZM117.335 11.336C117.335 13.5448 117.423 15.5398 117.607 17.31L123.574 16.69C123.417 15.1749 123.335 13.3939 123.335 11.336H117.335ZM120.59 14H113.615V20H120.59V14ZM116.548 16.3727C115.872 13.2107 115.526 9.77499 115.526 6.056H109.526C109.526 10.145 109.906 14.0053 110.681 17.6273L116.548 16.3727ZM115.526 6.056C115.526 5.44484 115.547 4.49225 115.589 3.17672L109.592 2.98327C109.549 4.31308 109.526 5.34449 109.526 6.056H115.526ZM111.744 0.201902C110.384 0.601845 109.15 1.30828 108.173 2.38777C107.202 3.46206 106.619 4.75879 106.327 6.14032L112.198 7.37967C112.311 6.84121 112.486 6.56461 112.624 6.41223C112.757 6.26505 112.983 6.09149 113.437 5.9581L111.744 0.201902ZM109.444 3.76549L106.276 3.57349L105.913 9.56251L109.081 9.75451L109.444 3.76549ZM109.032 7.17582L110.184 1.60782L104.309 0.392183L103.157 5.96018L109.032 7.17582ZM107.246 4H128.527V-2H107.246V4ZM125.575 0.463344C125.166 2.71316 124.714 4.44646 124.242 5.71544L129.867 7.80456C130.505 6.08687 131.034 3.98017 131.478 1.53666L125.575 0.463344ZM127.232 3.76528L124 3.57328L123.645 9.56272L126.877 9.75472L127.232 3.76528ZM126.733 7.29561C126.876 6.72366 126.951 6.13808 126.951 5.544H120.951C120.951 5.63259 120.94 5.72967 120.912 5.84039L126.733 7.29561ZM126.951 5.544C126.951 4.06949 126.466 2.46108 125.045 1.33586L121.32 6.04014C121.25 5.9846 121.18 5.9146 121.118 5.832C121.057 5.74972 121.014 5.67004 120.986 5.60306C120.932 5.47207 120.951 5.42919 120.951 5.544H126.951ZM125.045 1.33586C123.872 0.407456 122.486 0.079999 121.167 0.079999V6.08C121.342 6.08 121.42 6.1016 121.428 6.10422C121.432 6.10529 121.42 6.10205 121.398 6.0907C121.376 6.07915 121.348 6.06238 121.32 6.04014L125.045 1.33586ZM138.193 17V20H141.422L141.185 16.78L138.193 17ZM131.153 17L128.248 17.7491L128.828 20H131.153V17ZM130.193 1V-2H127.622L127.228 0.540691L130.193 1ZM147.537 1L150.443 0.254255L149.864 -2H147.537V1ZM148.561 9.608L149.783 12.3479L151.599 11.5381L151.56 9.55032L148.561 9.608ZM138.033 12.36L137.704 9.37815L135.033 9.67323V12.36H138.033ZM138.065 10.152L135.068 10.0281L134.921 13.5683L138.437 13.1288L138.065 10.152ZM141.489 9.128L142.951 11.7476L144.766 10.7349L144.455 8.68024L141.489 9.128ZM138.737 3.112L141.019 1.16421L136.81 -3.7663L135.775 2.63336L138.737 3.112ZM135.033 13C135.033 14.3019 135.09 15.7098 135.201 17.22L141.185 16.78C141.083 15.3889 141.033 14.1301 141.033 13H135.033ZM138.193 14H131.153V20H138.193V14ZM134.058 16.2509C133.252 13.1245 132.841 9.7725 132.841 6.184H126.841C126.841 10.2328 127.305 14.0915 128.248 17.7491L134.058 16.2509ZM132.841 6.184C132.841 4.35798 132.952 2.78821 133.158 1.45931L127.228 0.540691C126.965 2.24112 126.841 4.12735 126.841 6.184H132.841ZM130.193 4H147.537V-2H130.193V4ZM144.631 1.74574C145.176 3.87059 145.501 6.49728 145.562 9.66568L151.56 9.55032C151.493 6.06272 151.135 2.95075 150.443 0.254255L144.631 1.74574ZM147.339 6.86809C144.498 8.13527 141.294 8.98138 137.704 9.37815L138.362 15.3419C142.494 14.8853 146.31 13.8967 149.783 12.3479L147.339 6.86809ZM135.033 12.36V13H141.033V12.36H135.033ZM138.437 13.1288C140.073 12.9244 141.61 12.4961 142.951 11.7476L140.027 6.50841C139.533 6.78395 138.788 7.03828 137.693 7.17517L138.437 13.1288ZM144.455 8.68024C144.03 5.86141 142.874 3.3372 141.019 1.16421L136.455 5.05979C137.587 6.38547 138.265 7.87193 138.523 9.57576L144.455 8.68024ZM135.775 2.63336C135.412 4.88391 135.178 7.35141 135.068 10.0281L141.062 10.2759C141.165 7.78992 141.38 5.56409 141.699 3.59064L135.775 2.63336ZM171.986 17V20H174.986V17H171.986ZM164.562 17L161.57 17.21L161.765 20H164.562V17ZM164.018 13.224L166.952 12.5987L165.79 7.1463L161.88 11.1197L164.018 13.224ZM159.538 17V20H160.49L161.267 19.4518L159.538 17ZM152.082 17L149.125 17.5049L149.551 20H152.082V17ZM152.498 9.192L151.658 6.312L150.083 6.77141L149.62 8.3455L152.498 9.192ZM156.914 6.92L155.12 4.5157L155.111 4.52218L155.103 4.52872L156.914 6.92ZM160.018 3.464L162.683 4.84227L163.48 3.30119L162.542 1.84173L160.018 3.464ZM158.194 1V-2H151.672L155.916 2.95238L158.194 1ZM168.818 1L171.543 -0.254763L170.74 -2H168.818V1ZM163.442 10.888L165.68 12.886L166.789 11.6445L166.322 10.0468L163.442 10.888ZM161.266 5.512L163.915 4.10372L160.661 -2.01684L158.426 4.54482L161.266 5.512ZM159.538 13.864L156.543 13.6935L156.245 18.9292L160.909 16.5323L159.538 13.864ZM168.986 16.744V17H174.986V16.744H168.986ZM171.986 14H164.562V20H171.986V14ZM167.555 16.79C167.459 15.4224 167.256 14.0246 166.952 12.5987L161.084 13.8493C161.335 15.026 161.495 16.1456 161.57 17.21L167.555 16.79ZM161.88 11.1197C160.693 12.3262 159.338 13.4701 157.809 14.5482L161.267 19.4518C163.066 18.1832 164.698 16.8098 166.156 15.3283L161.88 11.1197ZM159.538 14H152.082V20H159.538V14ZM155.039 16.4951C154.93 15.8565 154.858 14.893 154.858 13.544H148.858C148.858 15.0536 148.935 16.3942 149.125 17.5049L155.039 16.4951ZM154.858 13.544C154.858 12.3918 155.027 11.226 155.376 10.0385L149.62 8.3455C149.116 10.0594 148.858 11.7948 148.858 13.544H154.858ZM153.338 12.072C155.26 11.5115 157.057 10.5758 158.726 9.31128L155.103 4.52872C153.956 5.39758 152.809 5.97647 151.658 6.312L153.338 12.072ZM158.708 9.3243C160.403 8.0596 161.784 6.57984 162.683 4.84227L157.354 2.08573C156.972 2.82283 156.284 3.64707 155.12 4.5157L158.708 9.3243ZM162.542 1.84173C161.898 0.839635 161.208 -0.0932446 160.472 -0.952375L155.916 2.95238C156.46 3.58658 156.987 4.29636 157.495 5.08627L162.542 1.84173ZM158.194 4H168.818V-2H158.194V4ZM166.093 2.25476C167.996 6.3865 168.986 11.1947 168.986 16.744H174.986C174.986 10.4746 173.865 4.78684 171.543 -0.254763L166.093 2.25476ZM166.322 10.0468C165.712 7.95883 164.911 5.97614 163.915 4.10372L158.617 6.92028C159.414 8.41853 160.063 10.0198 160.563 11.7292L166.322 10.0468ZM158.426 4.54482C157.352 7.70048 156.71 10.7539 156.543 13.6935L162.533 14.0345C162.665 11.7261 163.175 9.21152 164.106 6.47918L158.426 4.54482ZM160.909 16.5323C162.747 15.5879 164.35 14.3763 165.68 12.886L161.204 8.88995C160.402 9.78908 159.401 10.5614 158.167 11.1957L160.909 16.5323ZM176.197 17L173.228 16.5715L172.733 20H176.197V17ZM176.07 1V-2H172.656L173.094 1.38527L176.07 1ZM184.518 1L187.516 0.911804L187.431 -2H184.518V1ZM183.878 14.568L180.908 14.141L180.517 16.8625L183.194 17.4891L183.878 14.568ZM187.781 14.92V17.92H190.467L190.763 15.2513L187.781 14.92ZM188.005 1V-2H184.739L185.016 1.2544L188.005 1ZM196.326 1L199.324 0.896611L199.224 -2H196.326V1ZM195.525 14.76L192.56 14.3051L192.075 17.4652L195.26 17.7482L195.525 14.76ZM198.245 14.92L201.203 15.4228L201.784 12.0075L198.32 11.9209L198.245 14.92ZM196.805 20.68L196.642 23.6755L198.893 23.7983L199.637 21.6711L196.805 20.68ZM193.286 20.488L190.485 19.4111L189.005 23.259L193.122 23.4835L193.286 20.488ZM190.917 14H176.197V20H190.917V14ZM179.167 17.4285C179.492 15.1783 179.646 12.5857 179.646 9.672H173.646C173.646 12.3903 173.501 14.6831 173.228 16.5715L179.167 17.4285ZM179.646 9.672C179.646 6.71954 179.444 3.70002 179.045 0.614727L173.094 1.38527C173.463 4.23065 173.646 6.99246 173.646 9.672H179.646ZM176.07 4H184.518V-2H176.07V4ZM181.519 1.0882C181.561 2.53235 181.581 3.58441 181.581 4.264H187.581C187.581 3.49292 187.559 2.36898 187.516 0.911804L181.519 1.0882ZM181.581 4.264C181.581 7.73953 181.355 11.0308 180.908 14.141L186.847 14.995C187.338 11.5772 187.581 7.99913 187.581 4.264H181.581ZM183.194 17.4891C184.508 17.7967 186.063 17.92 187.781 17.92V11.92C186.3 11.92 185.252 11.8087 184.561 11.6469L183.194 17.4891ZM190.763 15.2513C191.092 12.2937 191.262 9.64042 191.262 7.304H185.262C185.262 9.36224 185.111 11.7863 184.8 14.5887L190.763 15.2513ZM191.262 7.304C191.262 5.02938 191.173 2.84282 190.995 0.745601L185.016 1.2544C185.179 3.16785 185.262 5.18395 185.262 7.304H191.262ZM188.005 4H196.326V-2H188.005V4ZM193.327 1.10339C193.37 2.33453 193.389 3.20901 193.389 3.752H199.389C199.389 3.10032 199.367 2.14014 199.324 0.896611L193.327 1.10339ZM193.389 3.752C193.389 7.17494 193.114 10.692 192.56 14.3051L198.491 15.2149C199.089 11.3186 199.389 7.49706 199.389 3.752H193.389ZM195.26 17.7482C196.275 17.8385 197.246 17.896 198.171 17.9191L198.32 11.9209C197.538 11.9014 196.696 11.8522 195.791 11.7718L195.26 17.7482ZM195.288 14.4172C194.948 16.4158 194.506 18.1686 193.974 19.6889L199.637 21.6711C200.3 19.7781 200.817 17.6909 201.203 15.4228L195.288 14.4172ZM196.969 17.6845L193.449 17.4925L193.122 23.4835L196.642 23.6755L196.969 17.6845ZM196.086 21.5649C196.39 20.7725 196.605 19.8988 196.605 18.984H190.605C190.605 18.9652 190.607 19.0942 190.485 19.4111L196.086 21.5649ZM196.605 18.984C196.605 17.5725 196.079 16.0887 194.715 15.0823C193.522 14.2016 192.095 14 190.917 14V20C191.191 20 191.332 20.0262 191.377 20.0371C191.419 20.0474 191.314 20.0291 191.152 19.9097C190.973 19.7774 190.808 19.582 190.703 19.3508C190.607 19.1365 190.605 18.9894 190.605 18.984H196.605ZM200.87 17L197.895 16.6133L197.454 20H200.87V17ZM200.71 1V-2H197.254L197.739 1.42099L200.71 1ZM209.158 1L212.153 0.833587L211.995 -2H209.158V1ZM208.613 10.696L205.642 10.2814L204.493 18.5171L210.636 12.9121L208.613 10.696ZM213.189 5.192L215.72 6.80263L216.204 6.04341L216.189 5.14362L213.189 5.192ZM212.837 1V-2H209.371L209.869 1.43029L212.837 1ZM221.126 1L224.124 0.900057L224.027 -2H221.126V1ZM219.973 17V20H222.492L222.928 17.5198L219.973 17ZM212.326 17L209.358 16.5571L208.845 20H212.326V17ZM213.158 9.256L216.153 9.42241L216.783 -1.91919L210.635 7.63226L213.158 9.256ZM207.27 17V20H208.683L209.583 18.9103L207.27 17ZM203.844 17.3867C204.143 15.0898 204.286 12.4373 204.286 9.448H198.286C198.286 12.2614 198.151 14.6435 197.895 16.6133L203.844 17.3867ZM204.286 9.448C204.286 6.39394 204.085 3.43686 203.68 0.57901L197.739 1.42099C198.102 3.9818 198.286 6.65673 198.286 9.448H204.286ZM200.71 4H209.158V-2H200.71V4ZM206.162 1.16641C206.178 1.44737 206.189 2.37249 206.189 4.072H212.189C212.189 2.44351 212.18 1.32063 212.153 0.833587L206.162 1.16641ZM206.189 4.072C206.189 5.53623 206.018 7.58893 205.642 10.2814L211.585 11.1106C211.977 8.29907 212.189 5.93577 212.189 4.072H206.189ZM210.636 12.9121C212.553 11.162 214.246 9.1195 215.72 6.80263L210.659 3.58137C209.445 5.4885 208.087 7.11529 206.591 8.47994L210.636 12.9121ZM216.189 5.14362C216.165 3.67855 216.036 2.15294 215.806 0.569713L209.869 1.43029C210.066 2.79106 210.171 4.06011 210.19 5.24038L216.189 5.14362ZM212.837 4H221.126V-2H212.837V4ZM218.127 1.09994C218.17 2.37257 218.189 3.29185 218.189 3.88H224.189C224.189 3.18815 224.167 2.18743 224.124 0.900057L218.127 1.09994ZM218.189 3.88C218.189 7.8236 217.803 12.022 217.019 16.4802L222.928 17.5198C223.765 12.762 224.189 8.21373 224.189 3.88H218.189ZM219.973 14H212.326V20H219.973V14ZM215.293 17.4429C215.73 14.5143 216.019 11.8386 216.153 9.42241L210.162 9.08959C210.04 11.2814 209.775 13.7684 209.358 16.5571L215.293 17.4429ZM210.635 7.63226C209.539 9.335 207.668 11.8063 204.956 15.0897L209.583 18.9103C212.333 15.5803 214.387 12.889 215.68 10.8797L210.635 7.63226ZM207.27 14H200.87V20H207.27V14ZM226.162 1V-2H223.75L223.232 0.355414L226.162 1ZM242.866 1L245.84 0.607185L245.496 -2H242.866V1ZM242.386 17V20H244.845L245.328 17.5883L242.386 17ZM235.41 17L232.421 16.7438L232.142 20H235.41V17ZM235.57 10.92L238.565 10.7438L238.315 6.49937L234.4 8.15755L235.57 10.92ZM232.178 17V20H234.797L235.15 17.4053L232.178 17ZM223.922 17L220.929 16.7881L220.702 20H223.922V17ZM225.234 10.696L225.107 7.69869L223.156 7.78137L222.442 9.59904L225.234 10.696ZM231.858 9.8L232.609 12.7046L232.466 6.86222L231.858 9.8ZM225.458 7.656H222.458V9.49051L224.091 10.3264L225.458 7.656ZM234.898 3.144L237.87 2.73866L236.909 -4.31565L232.532 1.29977L234.898 3.144ZM232.626 7.432L229.732 6.64265L229.249 8.41272L230.605 9.64887L232.626 7.432ZM235.474 8.68L235.042 11.6488L238.729 12.185L238.467 8.46876L235.474 8.68ZM228.458 6.728C228.458 5.31219 228.656 3.62485 229.092 1.64459L223.232 0.355414C222.729 2.64182 222.458 4.77315 222.458 6.728H228.458ZM226.162 4H242.866V-2H226.162V4ZM239.892 1.39282C240.171 3.50434 240.314 5.83535 240.314 8.392H246.314C246.314 5.61532 246.159 3.01833 245.84 0.607185L239.892 1.39282ZM240.314 8.392C240.314 10.8064 240.031 13.4763 239.444 16.4117L245.328 17.5883C245.978 14.3371 246.314 11.2683 246.314 8.392H240.314ZM242.386 14H235.41V20H242.386V14ZM238.399 17.2562C238.532 15.7069 238.602 14.3266 238.602 13.128H232.602C232.602 14.1054 232.544 15.3064 232.421 16.7438L238.399 17.2562ZM238.602 13.128C238.602 12.0346 238.592 11.2096 238.565 10.7438L232.575 11.0962C232.59 11.3558 232.602 12.0028 232.602 13.128H238.602ZM234.4 8.15755C231.081 9.56317 229.696 12.9978 229.206 16.5947L235.15 17.4053C235.556 14.4315 236.432 13.8128 236.74 13.6825L234.4 8.15755ZM232.178 14H223.922V20H232.178V14ZM226.915 17.2119C227.069 15.0308 227.458 13.2403 228.026 11.793L222.442 9.59904C221.602 11.7357 221.116 14.1478 220.929 16.7881L226.915 17.2119ZM225.361 13.6933C228.033 13.5801 230.458 13.2604 232.609 12.7046L231.107 6.89542C229.461 7.32093 227.47 7.59856 225.107 7.69869L225.361 13.6933ZM232.466 6.86222C230.191 6.39158 228.325 5.75349 226.825 4.98555L224.091 10.3264C226.175 11.3932 228.576 12.1844 231.25 12.7378L232.466 6.86222ZM228.458 7.656V6.728H222.458V7.656H228.458ZM232.532 1.29977C231.218 2.98509 230.244 4.76591 229.732 6.64265L235.52 8.22135C235.776 7.28209 236.316 6.20424 237.264 4.98823L232.532 1.29977ZM230.605 9.64887C231.858 10.7915 233.401 11.41 235.042 11.6488L235.906 5.71124C235.2 5.60864 234.845 5.3952 234.647 5.21513L230.605 9.64887ZM238.467 8.46876C238.334 6.58786 238.135 4.67776 237.87 2.73866L231.926 3.54934C232.173 5.36491 232.358 7.14547 232.481 8.89124L238.467 8.46876Z" fill="black" mask="url(#path-1-outside-1_10_3)"/>
</svg>
