<svg width="115" height="120" viewBox="0 0 115 120" fill="none" xmlns="http://www.w3.org/2000/svg">
<rect width="115" height="120" rx="15" fill="#E1E1E1"/>
<path d="M96.5 81.5C96.5 98.6208 71.3137 106 68 106C64.6863 106 86.5 96.6208 86.5 79.5C86.5 71.8008 85.4926 58.6449 84.5 52C83.2853 43.8686 90.6765 44.5 92.5 44.5C94.9883 45.6713 95.5195 46.921 96.5 52C97.5 60 96.5 73.0044 96.5 81.5Z" fill="#B96313"/>
<path d="M48.9972 62.3374C49.9053 58.2324 53.284 55.1337 57.4521 54.5833L67.0441 53.3167C72.5419 52.5907 77.5805 56.4771 78.2746 61.979L82.5978 96.2484C83.3512 102.221 78.696 107.5 72.6764 107.5H51.4609C45.0674 107.5 40.316 101.583 41.6969 95.3402L48.9972 62.3374Z" fill="#EC801C"/>
<ellipse cx="19.7624" cy="14.2388" rx="19.7624" ry="14.2388" transform="matrix(0.0350893 -0.999384 0.999388 0.0349935 46.9022 100.471)" fill="#FEE187"/>
<ellipse cx="43.5028" cy="99" rx="12.5028" ry="14" fill="#EC801C"/>
<ellipse cx="71.5" cy="99" rx="12.5" ry="14" fill="#EC801C"/>
<ellipse cx="71.5144" cy="100" rx="12.5028" ry="14" fill="#FEE187"/>
<ellipse cx="41.5076" cy="100" rx="12.5028" ry="14" fill="#FEE187"/>
<path d="M73.3799 66.105C72.3292 63.4681 73.2466 60.4554 75.5888 58.8518C78.2593 57.0234 81.8951 57.612 83.8526 60.1896L102.716 85.0298C104.752 87.7115 104.591 91.4628 102.331 93.9591L100.651 95.8161C99.5359 97.0478 98.0193 97.8428 96.372 98.0591L92.0226 98.63C88.8468 99.047 85.7929 97.2555 84.6072 94.2802L73.3799 66.105Z" fill="#EC801C"/>
<path d="M44.0545 59.5735C46.6369 58.3961 49.6908 59.1657 51.4069 61.4263C53.3637 64.004 52.9532 67.6632 50.474 69.743L26.5746 89.7916C23.9953 91.9553 20.2405 91.9764 17.6365 89.8418L15.7 88.2544C14.4147 87.2008 13.5462 85.7245 13.2498 84.0895L12.4677 79.775C11.8964 76.6239 13.5368 73.4873 16.4509 72.1587L44.0545 59.5735Z" fill="#EC801C"/>
<ellipse cx="94.652" cy="91.1857" rx="7.91905" ry="10.2812" transform="rotate(54.3921 94.652 91.1857)" fill="#FEE187"/>
<ellipse cx="20.477" cy="81.9747" rx="7.91905" ry="10.2812" transform="rotate(143.569 20.477 81.9747)" fill="#FEE187"/>
<ellipse cx="23.5051" cy="19.5002" rx="23.5051" ry="19.5002" transform="matrix(0.976097 -0.217335 0.217428 0.976076 32.0055 25.2169)" fill="#EC801C"/>
<ellipse cx="19.1029" cy="15.8481" rx="19.1029" ry="15.8481" transform="matrix(0.976097 -0.217335 0.217428 0.976076 38.0001 31.3034)" fill="#FEE187"/>
<path d="M39.5075 42C39.5075 49.1285 34.597 54.5 29.0048 54.5C23.4126 54.5 18.5021 49.1285 18.5021 42C18.5021 34.8715 23.4126 29.5 29.0048 29.5C34.597 29.5 39.5075 34.8715 39.5075 42Z" fill="#FEE187" stroke="#EC801C" stroke-width="3"/>
<path d="M96.1642 19.9271C100.443 26.7457 99.1915 34.5554 94.2855 37.6325C89.3795 40.7096 81.8019 38.4374 77.5234 31.6188C73.2448 24.8002 74.4961 16.9905 79.4021 13.9134C84.3081 10.8364 91.8856 13.1085 96.1642 19.9271Z" fill="#FEE187" stroke="#EC801C" stroke-width="3"/>
</svg>
