<svg width="115" height="120" viewBox="0 0 115 120" fill="none" xmlns="http://www.w3.org/2000/svg">
<rect width="115" height="120" rx="15" fill="#E1E1E1"/>
<path d="M83 80L93 70V100L83 110V80Z" fill="#FFCA05"/>
<rect x="23" y="80" width="60" height="30" fill="#FEE187"/>
<path d="M33 70H93L83 80H23L33 70Z" fill="#FFCA05"/>
<ellipse cx="47.5" cy="71" rx="7.5" ry="2" fill="#FEE187"/>
<path d="M40 66C40 65.4477 40.4477 65 41 65H54C54.5523 65 55 65.4477 55 66V71H40V66Z" fill="#FEE187"/>
<ellipse cx="47.5" cy="65.5" rx="7.5" ry="2.5" fill="#FFCA05"/>
<ellipse cx="40.5" cy="77" rx="7.5" ry="2" fill="#FEE187"/>
<path d="M33 72C33 71.4477 33.4477 71 34 71H47C47.5523 71 48 71.4477 48 72V77H33V72Z" fill="#FEE187"/>
<ellipse cx="40.5" cy="71.5" rx="7.5" ry="2.5" fill="#FFCA05"/>
<ellipse cx="74.5" cy="71" rx="7.5" ry="2" fill="#FEE187"/>
<path d="M67 66C67 65.4477 67.4477 65 68 65H81C81.5523 65 82 65.4477 82 66V71H67V66Z" fill="#FEE187"/>
<ellipse cx="74.5" cy="65.5" rx="7.5" ry="2.5" fill="#FFCA05"/>
<ellipse cx="66.5" cy="77" rx="7.5" ry="2" fill="#FEE187"/>
<path d="M59 72C59 71.4477 59.4477 71 60 71H73C73.5523 71 74 71.4477 74 72V77H59V72Z" fill="#FEE187"/>
<ellipse cx="66.5" cy="71.5" rx="7.5" ry="2.5" fill="#FFCA05"/>
<g clip-path="url(#clip0_38_31)">
<rect x="39" y="22" width="37" height="18" fill="white"/>
<path d="M71.3493 25.2246C71.0293 25.2246 70.7108 25.2892 70.4539 25.6785C69.8139 26.52 68.0262 31.4461 68.0893 32.4169C68.0893 32.7431 68.2816 33.0646 68.7293 33.0646C69.177 33.0646 69.4954 32.7431 69.7508 32.2861C70.2647 31.3815 71.8616 26.9738 71.9231 25.8723C71.9231 25.6123 71.8616 25.2246 71.3493 25.2246Z" fill="#EC1C24"/>
<path d="M70.16 10H45.84C41.5277 10 38 13.5277 38 17.8369V42.1646C38 46.4723 41.5277 50 45.84 50H70.1615C74.4723 50 78 46.4723 78 42.1631V17.8369C78 13.5277 74.4723 10 70.16 10ZM43.2292 36.1108C42.0154 36.1108 40.9292 35.5277 40.9292 34.1031C40.8662 31.5738 43.3554 25.7415 44.5723 23.8631C45.1462 22.9554 45.7862 22.5015 46.8708 22.5015C47.8954 22.5015 48.1508 23.0215 48.0846 23.6046C48.0846 25.2892 45.4031 30.4092 44.5077 32.4169C46.6154 32.0923 47.1277 32.8062 47.0615 33.5846C46.8723 35.7231 44.9538 36.1754 43.2292 36.1108ZM51.3462 30.4738C51.22 30.8631 50.9631 31.6415 50.7708 32.4846C51.4754 32.3538 51.9846 32.2246 52.8785 32.2246C53.84 32.2246 54.5415 32.6769 54.5415 33.52C54.5415 35.5954 52.24 36.1769 50.7077 36.1769C48.9815 36.1769 47.5123 35.2062 47.5123 33.3262C47.5123 31.0569 48.6615 27.6877 49.8123 25.4831C51.1538 22.6969 52.5615 22.3077 54.9877 22.3077C56.0123 22.3077 57.2892 22.8277 57.2892 23.8C57.2892 25.2262 56.0738 25.7446 54.9262 25.8092C54.4138 25.8738 53.6462 25.8738 53.1985 25.8738C53.1985 25.8738 52.8169 26.4569 52.4338 27.4938C54.5415 27.2354 55.5 27.6892 55.1154 28.9862C54.6046 30.6677 53.1354 30.7969 51.3462 30.4738ZM64.3815 30.6677C63.7415 33.7123 61.6354 36.1754 58.5677 36.1754C56.4585 36.1754 55.1815 35.0092 55.1815 32.8708C55.1815 31.3169 55.9477 28.92 56.5215 27.4923C57.8015 24.5123 59.1431 22.3754 62.5262 22.3754C64.5754 22.3754 66.1723 23.1523 65.9154 25.0985C65.7246 26.5215 65.0215 27.3 63.8077 27.4292C63.4231 27.4292 61.9554 27.4292 62.4662 26.0046C62.5938 25.5508 62.7215 25.16 61.9554 25.16C61.3785 25.16 60.9969 25.5508 60.74 25.94C60.1 26.8477 58.7585 30.4108 58.5677 31.8354C58.3754 32.8723 58.8215 33.0662 59.2708 33.0662C60.0369 33.0662 60.8677 32.2262 61.1877 30.9277C61.1877 30.9277 59.7185 30.8646 60.1 29.6323C60.4846 28.3369 61.2508 28.0769 62.4662 28.0123C64.8292 27.9462 64.5754 29.6954 64.3815 30.6677ZM74.7985 27.6862C74.4154 29.5015 73.5846 31.64 72.7569 33.1938C71.2846 35.8508 69.56 36.1754 68.0892 36.1754C66.5554 36.1754 64.8308 35.5938 64.8308 33.1938C64.8308 31.5092 65.5338 29.1138 66.1738 27.5569C67.2585 24.7046 68.3446 22.3738 71.7938 22.4385C75.8215 22.4385 75.1185 26.1292 74.7985 27.6862Z" fill="#EC1C24"/>
</g>
<defs>
<clipPath id="clip0_38_31">
<rect width="40" height="40" fill="white" transform="translate(38 10)"/>
</clipPath>
</defs>
</svg>
