<svg width="116" height="120" viewBox="0 0 116 120" fill="none" xmlns="http://www.w3.org/2000/svg">
<rect width="115" height="120" rx="15" fill="#E1E1E1"/>
<path d="M2.24071 54.7779C2.74139 53.2758 3.55012 51.8949 4.61515 50.7233L6.69704 48.4333C7.52689 47.5204 8.70332 47 9.93698 47C10.9478 47 11.9274 47.3497 12.7097 47.9898L15.5444 50.309C16.4475 51.0479 17.0899 52.5833 16 53C15.1731 53.3161 11.5 58.5 11.5 60.5C11.5 62.4097 13.62 65.301 21.7991 69.4092C22.5874 69.8052 23.8568 70.086 24.7359 70.1598C28.9426 70.5132 31.2128 66.593 30.9431 62.3801C30.7648 59.5938 30.8233 56.7598 31 53L32.7597 41.5616C32.9195 40.5234 33.1878 39.5048 33.5604 38.5227L37.6804 27.6609C38.2236 26.2287 38.983 24.8883 39.9321 23.686L44.0551 18.4636C45.3378 16.8388 46.9429 15.4971 48.7695 14.5229L51.6182 13.0036C52.8665 12.3379 54.2026 11.8521 55.5869 11.5607L62.657 10.0722C62.8833 10.0246 63.1169 10.0234 63.3437 10.0687C64.4368 10.2874 65.0308 11.4775 64.5484 12.4824L60.0042 21.9495C59.6692 22.6474 59.4197 23.383 59.2467 24.1376C58.0088 29.5357 57.0944 31.4722 58.5 38.5C59.6648 44.3239 61.4939 47.1851 64.3126 50.9419C66.0586 53.2689 68.4546 55.0369 71.1291 56.1817C73.5468 57.2167 75.6053 58.0713 78.4315 58.4252C79.7972 58.5961 81.1885 58.4484 82.4971 58.0221C85.9118 56.9095 87.8728 55.3441 89.8651 52.3461C90.6601 51.1497 91.1744 49.788 91.5001 48.389C93.2598 40.8294 93.6463 37.4083 91.5 37C89.0785 36.4187 88.1828 36.457 87.737 36.7648C86.2831 37.7683 85.8505 36.6495 87.0997 35.4003C87.361 35.139 87.5349 34.8059 87.6344 34.4501C88.3622 31.8484 89.9866 31.2989 94 31.5C99.6175 31.6641 101.345 35.3498 104 43C106.124 48.5015 107.525 51.9532 108.623 55.458C110.756 62.2667 114.474 62.6156 115 55.5V105C115 113.284 108.284 120 100 120H15C6.71573 120 0 113.284 0 105V63.9342C0 62.3219 0.259918 60.7202 0.769751 59.1908L2.24071 54.7779Z" fill="#EC1C24"/>
<path d="M3.03288 90.7251C3.66564 88.9986 4.75701 87.4773 6.18965 86.3247L6.96506 85.7008C7.64615 85.1529 8.44261 84.7664 9.29455 84.5706L11.2558 84.1198C11.4128 84.0837 11.579 84.1086 11.7183 84.1896C14.4689 85.7882 15.8317 87.0471 17.0784 88.9538C17.1649 89.0862 16.6429 89.9321 16.5 90C15.3917 90.5263 13.6093 88.4773 11.5 92C9.53442 95.2827 14.1273 108.265 25.0122 108.226C26.6657 108.22 28.3477 108.229 29.989 108.028C37.3696 107.125 45.0083 98.1945 44.5 98.5C45.1696 97.9643 43.8563 85.1902 43 82C41.7585 77.3954 41.2565 75.5833 40.8904 74.3207C40.6352 73.4404 40.4504 72.5415 40.3519 71.6303L38.6923 56.2785C38.5645 55.097 38.5777 53.9045 38.7314 52.7262L39.7959 44.5645C39.9316 43.5244 40.176 42.5014 40.5251 41.5122L42.1789 36.8265C42.7185 35.2976 43.6149 33.9193 44.7937 32.806L51.7073 26.2764C51.8703 26.1225 52.1261 26.1261 52.2846 26.2846C52.4128 26.4128 52.4424 26.6099 52.3585 26.7705C49.918 31.444 48.1283 35.3803 48 46C48.2518 52.2092 49.1358 56.4273 51.5069 61.2241C53.6904 65.6411 55.9043 70.5406 59.66 73.7301C60.095 74.0995 60.5445 74.5177 61 75C61.9268 75.9812 62.8165 76.6868 63.6496 77.2278C67.0467 79.4342 71.2214 81.0828 75.2403 81.5896C76.9088 81.8 78.5854 81.9145 80.8774 81.9753C81.6236 81.9951 82.3749 81.9654 83.1043 81.8065C86.8415 80.9924 90.1871 78.6651 92.7323 76.5224C94.2671 75.2303 95.4167 73.5519 96.3433 71.7725C98.116 68.3684 99.6085 65.6868 98 62C96.4682 58.4889 96.4401 58.1409 94.4978 57.6306C92.8502 57.1977 91.9016 56.5719 93.3808 55.727C94.1354 55.2959 95.1585 54.7318 96.5 54C99.1042 52.8228 101.443 54.6287 102.916 56.3026C104.101 57.6498 104.643 59.4084 104.827 61.1932C105.204 64.8453 105.374 68.6315 105.5 70C105.616 71.2673 106.06 75.2419 107.532 80.312C108.437 83.4263 114.557 88.6172 115 85.4045V105C115 113.284 108.284 120 100 120H15C6.71573 120 0 113.284 0 105V101.662C0 99.9012 0.310123 98.1539 0.91616 96.5003L3.03288 90.7251Z" fill="#EC801C"/>
<path d="M0.5 62C3.76123 47.9976 8.90405 40.9854 17.5 52.5C15.7385 52.4165 8.49999 59 13 64C17.5 69 31.9131 74.9343 31 63C30.0869 51.0657 33.5237 7.86802 65.5 10.5C41.0704 50.6568 85.9173 73.0278 91.5 48C94.5227 36.739 93.1056 34.7366 86 37.5C87.3667 34.0116 88.1086 32.0201 91.5 31.5C99.1738 31.5362 100.989 34.6152 103.5 41C112.3 68.6 114.5 61.8333 114.5 55" stroke="#EC1C24"/>
<path d="M0.5 99C3.76123 84.9976 9.40405 78.6006 18 90.1153C16.2385 90.0317 6.46688 87.8935 13.5 101.615C20.5331 115.337 44.5819 105.068 45 95.5C45.4181 85.932 26.2935 40.0291 52.5 26C39.3981 51.841 57.5 80.5 76.5 82C95.5 83.5 106.709 59.6006 92 57C97.2218 49.972 104.609 55.8369 104.5 59C105.136 72.5241 106.515 85.752 115 86" stroke="#EC801C"/>
</svg>
