<svg width="115" height="120" viewBox="0 0 115 120" fill="none" xmlns="http://www.w3.org/2000/svg">
<rect width="115" height="120" rx="15" fill="#E1E1E1"/>
<path fill-rule="evenodd" clip-rule="evenodd" d="M115 67.473C112.638 63.5426 109.778 59.8747 106.451 56.5485C95.7802 45.8771 81.5917 40 66.5 40C51.4083 40 37.2198 45.8771 26.5485 56.5485C15.8771 67.2198 10 81.4083 10 96.5C10 104.745 11.7542 112.72 15.0859 120H22.9794L22.4055 119.842C20.3426 115.956 18.808 111.814 17.842 107.505C22.4803 108.432 27.1489 109.223 31.8368 109.887C32.0704 113.266 32.3896 116.638 32.7984 120H39.4825C39.0928 116.923 38.7783 113.837 38.5429 110.744C42.7106 111.22 46.8899 111.595 51.0755 111.863C51.2439 114.578 51.4566 117.291 51.7131 120H58.3704C58.1181 117.404 57.9073 114.803 57.7379 112.201C60.8551 112.317 63.9732 112.378 67.0899 112.378C69.8315 112.378 72.574 112.328 75.316 112.238C75.1474 114.828 74.9379 117.416 74.6873 120H81.3447C81.5985 117.313 81.8093 114.623 81.9766 111.93C86.266 111.675 90.5498 111.31 94.8217 110.836C94.5927 113.897 94.2865 116.953 93.9066 120H100C100.197 120 100.393 119.996 100.589 119.989C100.987 116.668 101.298 113.337 101.525 110C105.949 109.389 110.355 108.66 114.736 107.814C114.909 106.903 115 105.962 115 105V101.005C110.647 101.874 106.267 102.627 101.869 103.258C101.965 100.357 101.997 97.4537 101.962 94.5514C101.942 92.9047 101.898 91.2585 101.836 89.613C106.245 90.2442 110.636 90.9967 115 91.8674V85.1096C110.512 84.2394 105.998 83.4916 101.466 82.8672C101.176 78.8658 100.759 74.874 100.221 70.898C103.618 71.5109 106.998 72.2156 110.355 73.0152C110.385 73.0224 110.416 73.0299 110.446 73.0373C110.479 73.0453 110.512 73.0533 110.544 73.0611C112.526 76.7731 114.02 80.7214 115 84.8263V67.473ZM81.9823 80.9499C86.2456 81.2026 90.5032 81.5637 94.7496 82.0331C94.4238 77.9406 93.9663 73.8583 93.3728 69.7956C89.2304 69.2054 85.0686 68.7521 80.8962 68.4402C81.3619 72.6007 81.7243 76.7727 81.9823 80.9499ZM92.2395 62.9465C91.5939 59.4404 90.8482 55.9533 90.0033 52.4903C86.141 50.4209 82.0214 48.8789 77.7355 47.8968C78.6373 52.4839 79.4096 57.0992 80.0545 61.7337C84.1271 62.0101 88.1918 62.4142 92.2395 62.9465ZM66.5 46.631C65.0877 46.631 63.6847 46.6928 62.2927 46.8082C61.2921 51.6487 60.4349 56.5227 59.729 61.4203C62.526 61.3159 65.3245 61.2711 68.1219 61.2884C69.8525 61.2987 71.5826 61.3347 73.3124 61.3917C72.6069 56.5048 71.7501 51.6419 70.7505 46.812C69.3444 46.6941 67.9273 46.631 66.5 46.631ZM68.0818 67.9194C65.0085 67.9024 61.9339 67.9655 58.8617 68.0993C58.3755 72.2838 57.9961 76.4809 57.7257 80.684C60.8639 80.5657 64.003 80.5039 67.1403 80.5039C69.8666 80.5039 72.5945 80.554 75.3215 80.6434C75.0498 76.4407 74.6687 72.2438 74.1809 68.06C72.1485 67.9812 70.1151 67.9317 68.0818 67.9194ZM55.3097 47.8859C51.1179 48.8422 47.0863 50.3371 43.2964 52.3338C42.4363 55.8754 41.6802 59.4424 41.0282 63.0286C44.9991 62.4934 48.987 62.0831 52.9828 61.7942C53.629 57.1358 54.4039 52.4967 55.3097 47.8859ZM52.1437 68.5076C48.0519 68.832 43.9708 69.2944 39.9095 69.8861C39.3246 73.9552 38.8775 78.0435 38.5612 82.1424C42.719 81.6663 46.8883 81.2918 51.0636 81.0234C51.3192 76.8437 51.6798 72.67 52.1437 68.5076ZM25.5649 72.54L22.451 73.0713C20.3825 76.9477 18.8434 81.0817 17.8689 85.3825C22.5008 84.4567 27.163 83.6652 31.8445 83.0018C32.1255 78.9938 32.5331 74.9945 33.0622 71.0112C30.6106 71.4617 28.1676 71.958 25.737 72.5063L25.5649 72.54ZM16.8014 92.374C16.6904 93.739 16.631 95.1151 16.631 96.5C16.631 97.8481 16.6869 99.1873 16.7919 100.517C21.6586 101.539 26.5602 102.415 31.4859 103.139C31.3841 100.162 31.3482 97.1833 31.3839 94.2053C31.4018 92.7198 31.442 91.2347 31.4941 89.75C26.5686 90.4748 21.6677 91.3508 16.8014 92.374ZM27.5708 65.3279C29.7426 64.8777 31.9227 64.4667 34.1092 64.0911C34.4786 61.9118 34.8814 59.7381 35.3255 57.5728C33.9079 58.7125 32.542 59.9326 31.2374 61.2372C29.9319 62.5424 28.7112 63.9094 27.5708 65.3279ZM38.1588 88.8608C38.0847 90.6681 38.0361 92.4766 38.0145 94.285C37.9757 97.5329 38.0264 100.782 38.1564 104.028C42.3436 104.526 46.544 104.916 50.7504 105.198C50.6458 102.246 50.5888 99.2932 50.5888 96.3418C50.5888 93.458 50.644 90.573 50.7438 87.6889C46.5405 87.9718 42.3429 88.3618 38.1588 88.8608ZM67.0902 105.748C69.945 105.748 72.8013 105.693 75.6565 105.592C75.7724 102.526 75.8329 99.4581 75.8329 96.3921C75.8329 93.3583 75.7731 90.323 75.6596 87.289C72.8198 87.1894 69.9794 87.1349 67.1403 87.1349C63.8908 87.1349 60.6399 87.2007 57.3903 87.3309C57.279 90.3342 57.2201 93.3386 57.2201 96.3415C57.2201 99.4117 57.2806 102.483 57.3971 105.554C60.6278 105.683 63.8597 105.748 67.0902 105.748ZM82.3017 105.268C86.6091 104.999 90.9109 104.617 95.1994 104.121C95.3221 100.959 95.3695 97.7946 95.3316 94.6313C95.3082 92.671 95.2512 90.7112 95.1658 88.7524C90.8895 88.2594 86.6001 87.8789 82.3048 87.6116C82.4076 90.5381 82.4639 93.4658 82.4639 96.3919C82.4639 99.3502 82.4067 102.31 82.3017 105.268ZM105.256 65.1118C104.165 63.7706 103.002 62.4764 101.763 61.2374C100.559 60.0332 99.3038 58.8997 98.0032 57.8359C98.4229 59.879 98.8078 61.9288 99.1614 63.9845C101.199 64.3277 103.231 64.704 105.256 65.1118Z" fill="#EC801C"/>
<path d="M48.6875 44.3938C48.6875 51.0266 43.9758 56.4257 38.1875 56.4257H18.5C13.4333 56.4257 9.3125 51.703 9.3125 45.8978C9.3125 41.5664 11.5837 37.7462 15.0214 36.1519C16.4531 30.4216 21.1122 26.3459 26.375 26.3459C29.9446 26.3459 33.24 28.1656 35.4446 31.2191C26.375 33.8805 27.6875 44.3938 27.6875 44.3938C27.6875 38.4982 31.402 33.5802 36.2969 32.5572C36.9147 32.422 37.5441 32.3618 38.1875 32.3618C43.9758 32.3618 48.6875 37.7609 48.6875 44.3938Z" fill="white"/>
<path d="M97.875 104.25C97.875 109.211 93.8364 113.25 88.875 113.25H72C67.6571 113.25 64.125 109.717 64.125 105.375C64.125 102.135 66.0718 99.2776 69.0183 98.085C70.2455 93.7987 74.239 90.75 78.75 90.75C81.8097 90.75 84.6343 92.1112 86.5239 94.3953C78.75 96.386 79.875 104.25 79.875 104.25C79.875 99.8401 83.0588 96.1613 87.2545 95.3961C87.7841 95.295 88.3235 95.25 88.875 95.25C93.8364 95.25 97.875 99.2886 97.875 104.25Z" fill="white"/>
<path d="M10 75C20.8957 55.4049 28.2681 46.4223 44 34.5L38 31.5C50.6637 29.2576 57.5555 29.5249 69.5 32.5C68.4739 37.4169 68.9616 40.9077 71 46.5C67.868 41.5634 58.0353 36.86 55.5 38.5C52.9647 40.14 48.5456 42.6601 42.5 47.5C38.2326 52.8588 33.5644 60.1244 30 70.5C27.9449 78.302 29.0805 94.4613 31 97.5C20.6278 92.1283 15.9355 87.353 10 75Z" fill="#FFCA05"/>
<path d="M31 97.2593C21.5954 64.3108 45.8534 39.6324 57.5 38.2593C67.0213 39.1781 68.1403 42.3929 72.5 49.5C69.5557 42.4518 68.5131 40.2337 69.5 32.2593C54.282 29.0205 47.1144 29.4821 35.5 32.2593C39.7245 32.332 42.012 32.453 44.5 34.2593C23.6539 48.645 17.695 62.5938 10 74.7593C17.2151 89.7693 22.0858 92.9743 31 97.2593Z" stroke="#FFCA05"/>
</svg>
