<svg width="115" height="120" viewBox="0 0 115 120" fill="none" xmlns="http://www.w3.org/2000/svg">
<rect width="115" height="120" rx="15" fill="#E1E1E1"/>
<path d="M95.761 104.056C99.1922 101.177 100.573 97.1741 98.8459 95.1153C97.1184 93.0566 92.9364 93.7216 89.5052 96.6008C86.0739 99.4799 84.6928 103.483 86.4203 105.542C88.1477 107.6 92.3297 106.935 95.761 104.056Z" fill="#FFCA05"/>
<path d="M84.335 103.057L96.7606 92.6303L98.7244 94.9706C99.0794 95.3937 99.0242 96.0244 98.6011 96.3794L87.7076 105.52C87.2845 105.875 86.6538 105.82 86.2988 105.397L84.335 103.057Z" fill="#FFCA05"/>
<path d="M93.6757 101.571C97.107 98.6919 98.4881 94.689 96.7607 92.6302C95.0332 90.5715 90.8512 91.2366 87.42 94.1157C83.9887 96.9949 82.6076 100.998 84.335 103.057C86.0625 105.115 90.2445 104.45 93.6757 101.571Z" fill="#FEE187"/>
<path d="M92.4902 88.8026L81.3071 98.1863L84.9563 102.535L96.1394 93.1516L92.4902 88.8026Z" fill="#E4B401"/>
<path d="M88.984 95.9796C92.4152 93.1004 93.7964 89.0975 92.0689 87.0387C90.3414 84.98 86.1594 85.6451 82.7282 88.5242C79.2969 91.4034 77.9158 95.4063 79.6433 97.465C81.3708 99.5238 85.5527 98.8587 88.984 95.9796Z" fill="#FFCA05"/>
<path d="M77.5579 94.9799L89.9835 84.5536L91.9473 86.894C92.3023 87.3171 92.2471 87.9478 91.824 88.3028L80.9305 97.4436C80.5074 97.7986 79.8767 97.7434 79.5217 97.3203L77.5579 94.9799Z" fill="#FFCA05"/>
<path d="M86.8986 93.4945C90.3299 90.6153 91.711 86.6124 89.9836 84.5536C88.2561 82.4949 84.0741 83.16 80.6429 86.0391C77.2116 88.9183 75.8305 92.9212 77.5579 94.98C79.2854 97.0387 83.4674 96.3736 86.8986 93.4945Z" fill="#FEE187"/>
<path d="M84.9564 102.535C85.3712 103.03 86.3581 103.009 87.7 102.479C89.0419 101.949 90.6289 100.952 92.1118 99.7073C93.5948 98.4629 94.8523 97.0732 95.6076 95.8437C96.3629 94.6143 96.5542 93.6459 96.1394 93.1516L90.5479 97.8434L84.9564 102.535Z" fill="#E4B401"/>
<path d="M78.8005 93.9373C79.2153 94.4316 80.1367 94.4663 81.3621 94.0337C82.5875 93.6011 84.0165 92.7367 85.3347 91.6306C86.6529 90.5245 87.7523 89.2674 88.3911 88.1357C89.0299 87.004 89.1558 86.0906 88.741 85.5962L83.7707 89.7668L78.8005 93.9373Z" fill="#EC1C24"/>
<path d="M29.311 14.7703L19.3705 23.1114L78.8005 93.9373L88.741 85.5963L29.311 14.7703Z" fill="#EC1C24"/>
<path d="M36.3309 33.2303C39.7621 30.3511 41.1433 26.3482 39.4158 24.2895C37.6883 22.2307 33.5063 22.8958 30.0751 25.7749C26.6439 28.6541 25.2627 32.657 26.9902 34.7158C28.7177 36.7745 32.8997 36.1094 36.3309 33.2303Z" fill="#FFCA05"/>
<path d="M24.9049 32.2307L37.3305 21.8043L39.2943 24.1447C39.6493 24.5678 39.5941 25.1985 39.171 25.5535L28.2775 34.6943C27.8545 35.0493 27.2237 34.9941 26.8687 34.571L24.9049 32.2307Z" fill="#FFCA05"/>
<path d="M34.2457 30.7452C37.6769 27.866 39.0581 23.8631 37.3306 21.8043C35.6031 19.7456 31.4211 20.4107 27.9899 23.2898C24.5587 26.169 23.1775 30.1719 24.905 32.2307C26.6325 34.2894 30.8145 33.6243 34.2457 30.7452Z" fill="#FEE187"/>
<path d="M33.0601 17.9767L21.8771 27.3604L25.5263 31.7094L36.7093 22.3257L33.0601 17.9767Z" fill="#E4B401"/>
<path d="M29.5539 25.1537C32.9852 22.2745 34.3663 18.2716 32.6388 16.2128C30.9113 14.1541 26.7294 14.8192 23.2981 17.6983C19.8669 20.5775 18.4857 24.5804 20.2132 26.6391C21.9407 28.6979 26.1227 28.0328 29.5539 25.1537Z" fill="#FFCA05"/>
<path d="M18.1278 24.154L30.5534 13.7277L32.5172 16.068C32.8722 16.4911 32.817 17.1219 32.3939 17.4769L21.5004 26.6176C21.0774 26.9726 20.4466 26.9174 20.0916 26.4943L18.1278 24.154Z" fill="#FFCA05"/>
<path d="M27.4686 22.6685C30.8998 19.7894 32.281 15.7864 30.5535 13.7277C28.826 11.6689 24.644 12.334 21.2128 15.2132C17.7816 18.0923 16.4004 22.0953 18.1279 24.154C19.8554 26.2128 24.0374 25.5477 27.4686 22.6685Z" fill="#FEE187"/>
<path d="M25.5262 31.7093C25.941 32.2037 26.9279 32.1834 28.2698 31.6531C29.6117 31.1227 31.1987 30.1257 32.6817 28.8813C34.1647 27.637 35.4221 26.2472 36.1774 25.0178C36.9327 23.7884 37.1241 22.82 36.7093 22.3256L31.1177 27.0175L25.5262 31.7093Z" fill="#E4B401"/>
</svg>
