<svg width="115" height="120" viewBox="0 0 115 120" fill="none" xmlns="http://www.w3.org/2000/svg">
<rect width="115" height="120" rx="15" fill="#E1E1E1"/>
<path d="M98.9094 34.5149L38.3034 95.5553L8 65.0351L13.357 59.6397L38.3034 84.7646L93.5524 29.1196L98.9094 34.5149Z" fill="#FFCA05"/>
<g clip-path="url(#clip0_43_27)">
<path d="M81.9726 60.9123C81.9726 60.9123 87.5249 74.0451 81.9726 76.831C76.4203 79.6169 74.041 67.2799 74.041 67.2799C74.041 67.2799 68.4887 68.8716 69.2818 75.2393C70.0749 81.607 72.851 85.3875 70.8679 87.9739C68.8848 90.5602 67.4968 87.9739 66.1087 83.1979C64.7206 78.4219 59.7633 76.8302 59.7633 76.8302C59.7633 76.8302 62.3414 85.1871 62.9356 91.1573C63.5298 97.1274 62.6397 109.862 81.2789 111.851C99.9182 113.84 108.637 95.4136 104.181 84.7896C101.066 77.3627 102.595 68.8708 102.595 68.8708C102.595 68.8708 97.193 71.3486 96.2495 76.8302C95.2528 82.6216 95.4565 87.5755 93.0772 83.1979C90.6972 78.8203 96.4476 63.6982 81.9726 60.9123Z" fill="#EC1C24"/>
</g>
<path d="M83.5004 84C76.5971 84 71 89.5968 71 96.4996C71 103.402 76.5971 109 83.5004 109C90.4029 109 96 103.402 96 96.4996C96 89.5968 90.4029 84 83.5004 84ZM83.5004 102.749C80.0484 102.749 77.2495 99.9514 77.2495 96.4996C77.2495 93.0479 80.0484 90.2498 83.5004 90.2498C86.9523 90.2498 89.7505 93.0479 89.7505 96.4996C89.7505 99.9514 86.9523 102.749 83.5004 102.749Z" fill="#EC801C"/>
<g clip-path="url(#clip1_43_27)">
<path d="M40.1544 8C40.1544 8 45.7067 21.1329 40.1544 23.9188C34.6021 26.7047 32.2229 14.3677 32.2229 14.3677C32.2229 14.3677 26.6705 15.9594 27.4636 22.3271C28.2567 28.6947 31.0328 32.4752 29.0498 35.0616C27.0667 37.6479 25.6786 35.0616 24.2905 30.2856C22.9024 25.5097 17.9451 23.918 17.9451 23.918C17.9451 23.918 20.5232 32.2749 21.1174 38.245C21.7116 44.2152 20.8215 56.9497 39.4608 58.9389C58.1 60.9282 66.8191 42.5013 62.3629 31.8774C59.2479 24.4504 60.7768 15.9586 60.7768 15.9586C60.7768 15.9586 55.3748 18.4364 54.4314 23.918C53.4347 29.7093 53.6383 34.6633 51.2591 30.2856C48.879 25.908 54.6294 10.7859 40.1544 8Z" fill="#EC1C24"/>
</g>
<path d="M41.5004 31C34.5971 31 29 36.5968 29 43.4996C29 50.4018 34.5971 56 41.5004 56C48.4029 56 54 50.4018 54 43.4996C54 36.5968 48.4029 31 41.5004 31ZM41.5004 49.7495C38.0484 49.7495 35.2495 46.9514 35.2495 43.4996C35.2495 40.0479 38.0484 37.2498 41.5004 37.2498C44.9523 37.2498 47.7505 40.0479 47.7505 43.4996C47.7505 46.9514 44.9523 49.7495 41.5004 49.7495Z" fill="#EC801C"/>
<defs>
<clipPath id="clip0_43_27">
<rect width="50.9091" height="51.0877" fill="white" transform="translate(57.0909 60.9123)"/>
</clipPath>
<clipPath id="clip1_43_27">
<rect width="50.9091" height="51.0877" fill="white" transform="translate(15.2727 8)"/>
</clipPath>
</defs>
</svg>
