<svg width="115" height="120" viewBox="0 0 115 120" fill="none" xmlns="http://www.w3.org/2000/svg">
<rect width="115" height="120" rx="15" fill="#E1E1E1"/>
<path d="M107 96C107 100.41 103.41 104 99 104H84C80.1396 104 77 100.86 77 97C77 94.1201 78.7305 91.5801 81.3496 90.52C82.4404 86.71 85.9902 84 90 84C92.7197 84 95.2305 85.21 96.9102 87.2402C90 89.0098 91 96 91 96C91 92.0801 93.8301 88.8101 97.5596 88.1299C98.0303 88.04 98.5098 88 99 88C103.41 88 107 91.5898 107 96Z" fill="white"/>
<g clip-path="url(#clip0_42_12)">
<path d="M26.7951 81.9214C26.2769 82.4398 25.5976 82.6989 24.9184 82.6989C24.2392 82.6989 23.5599 82.4398 23.0417 81.9214C22.005 80.8849 22.005 79.2042 23.0417 78.1678L28.1111 73.0983C29.1476 72.0616 30.8283 72.0616 31.8648 73.0983C32.9014 74.1348 32.9014 75.8154 31.8648 76.8519L26.7951 81.9214ZM40.355 85.3424L30.9401 94.7571C30.4219 95.2753 29.7425 95.5345 29.0634 95.5345C28.384 95.5345 27.7049 95.2753 27.1865 94.7569C26.15 93.7204 26.15 92.0398 27.1865 91.0033L36.6013 81.5886C37.6378 80.5521 39.3183 80.5519 40.355 81.5886C41.3915 82.6251 41.3915 84.3057 40.355 85.3424ZM48.8452 90.0788C49.8818 91.1154 49.8818 92.7959 48.8452 93.8324L43.7758 98.9017C43.2574 99.4201 42.5783 99.6793 41.8989 99.6793C41.2196 99.6793 40.5404 99.4201 40.0222 98.9019C38.9855 97.8652 38.9855 96.1848 40.0222 95.1483L45.0915 90.0789C46.128 89.0423 47.8087 89.0423 48.8452 90.0788Z" fill="#EC1C24"/>
<path d="M103.045 19.3244C102.468 18.7482 101.659 18.4686 100.85 18.5664L77.667 21.3673C71.1302 22.157 65.8946 24.6237 61.1898 29.13C57.1129 33.035 53.9269 38.0257 50.5539 43.3093C49.0064 45.7332 47.4064 48.238 45.6531 50.7483L38.7258 49.8392C34.2828 49.2562 28.3386 51.9226 25.1946 55.9103L20.5215 61.8375C19.9306 62.587 19.7877 63.5959 20.1474 64.48C20.5069 65.364 21.3137 65.9867 22.2599 66.1109L30.7729 67.2281C31.183 67.282 31.6052 67.3081 32.0375 67.3081C33.9514 67.3081 36.049 66.7938 38.0379 65.8997L57.6032 85.4649C57.654 85.5157 57.7075 85.562 57.7611 85.6077C56.9439 88.238 56.7435 90.9762 57.3468 93.2051L59.5902 101.493C59.8396 102.414 60.5645 103.131 61.4887 103.369C61.708 103.425 61.9306 103.453 62.1513 103.453C62.8606 103.453 63.5513 103.168 64.0575 102.645L69.3078 97.2231C72.84 93.5751 74.6897 87.3287 73.5187 83.0027L71.8047 76.6704C74.3829 74.8416 76.9478 73.1901 79.4386 71.5864C84.6331 68.2417 89.5397 65.0824 93.3742 61.0408C97.7941 56.3824 100.218 51.1908 101.002 44.7023L103.803 21.519C103.901 20.7096 103.621 19.9005 103.045 19.3244ZM31.4634 61.9666L27.5791 61.4569L29.3616 59.1961C31.3538 56.6697 35.4075 54.7573 38.0353 55.1009L41.9195 55.6107L40.1369 57.8716C38.1449 60.3979 34.0911 62.3101 31.4634 61.9666ZM61.558 78.9846C61.0832 79.4748 60.6401 80.0132 60.2293 80.5865L42.6003 62.9573C43.2275 62.3958 43.8022 61.7937 44.3042 61.157L47.1286 57.5746L64.992 75.438L61.558 78.9846ZM65.4956 93.5315L63.4929 95.5999L62.4694 91.8184C61.7767 89.2595 63.1324 84.9873 65.3704 82.676L67.3732 80.6076L68.3967 84.389C69.0892 86.948 67.7335 91.2201 65.4956 93.5315ZM95.7335 44.0655C94.3294 55.6864 86.4904 60.734 76.5657 67.1243C74.1479 68.6812 71.6609 70.2849 69.126 72.0674L50.3484 53.2898C52.0266 50.8617 53.5506 48.4771 55.0267 46.1647C61.4875 36.0444 66.5906 28.0506 78.3033 26.6354L98.1286 24.2403L95.7335 44.0655ZM68.6978 37.9592C66.5992 40.0577 65.4436 42.8479 65.4436 45.8157C65.4436 48.7834 66.5992 51.5737 68.6978 53.6721C70.7964 55.7707 73.5865 56.9265 76.5543 56.9265C79.522 56.9265 82.3123 55.7707 84.4107 53.6721C88.7427 49.3401 88.7429 42.2914 84.4107 37.9592C80.0787 33.6272 73.0297 33.6272 68.6978 37.9592ZM80.6584 41.7115C82.9214 43.9746 82.9214 47.6569 80.6584 49.9198C79.5621 51.016 78.1046 51.6198 76.5543 51.6198C75.0039 51.6198 73.5464 51.016 72.4501 49.9197C71.354 48.8235 70.7502 47.366 70.7502 45.8155C70.7502 44.2651 71.354 42.8076 72.4501 41.7113C73.5816 40.5799 75.0679 40.0142 76.5543 40.0142C78.0406 40.0144 79.527 40.58 80.6584 41.7115Z" fill="#FFCA05"/>
</g>
<path d="M46.75 32.5C46.75 38.0127 42.2627 42.5 36.75 42.5H18C13.1746 42.5 9.25 38.5748 9.25 33.75C9.25 30.1501 11.4131 26.9751 14.687 25.65C16.0505 20.8875 20.4878 17.5 25.5 17.5C28.8997 17.5 32.0381 19.0125 34.1377 21.5503C25.5 23.7622 26.75 32.5 26.75 32.5C26.75 27.6001 30.2876 23.5126 34.9495 22.6624C35.5378 22.55 36.1372 22.5 36.75 22.5C42.2627 22.5 46.75 26.9873 46.75 32.5Z" fill="white"/>
<defs>
<clipPath id="clip0_42_12">
<rect width="84.9057" height="84.9057" fill="white" transform="translate(19.434 18.5472)"/>
</clipPath>
</defs>
</svg>
